<svg id="Layer_1" data-name="Layer 1" xmlns="http://www.w3.org/2000/svg" xmlns:xlink="http://www.w3.org/1999/xlink" viewBox="0 0 289.4 743"><defs><linearGradient id="linear-gradient" x1="986.63" y1="385.67" x2="986.63" y2="399.74" gradientTransform="translate(-587.4) scale(0.69 1)" gradientUnits="userSpaceOnUse"><stop offset="0" stop-color="#534741"/><stop offset="0.29" stop-color="#736357"/><stop offset="0.65" stop-color="#633303"/><stop offset="1"/></linearGradient></defs><title>bookcase</title><g id="bookcase"><rect x="9" y="156.4" width="271.4" height="577.64" fill="#261a12"/><path d="M304.6,180.4V740H51.1V180.4H304.6m18-18H33.1V758H322.6V162.4Z" transform="translate(-33.1 -15)" fill="#3a281a"/><rect x="7.1" y="293.4" width="278" height="5.29" fill="#3a281a"/><rect x="7.1" y="442.5" width="278" height="5.29" fill="#3a281a"/><rect x="7.1" y="595.2" width="278" height="5.29" fill="#3a281a"/><rect x="143.4" y="152.7" width="5.3" height="586.81" fill="#3a281a"/></g><g id="top-drawer"><rect x="15.7" y="163.2" width="128" height="130.6" fill="#326496"/><rect x="51.7" y="184" width="55.5" height="8.71" rx="4.2" fill="#1f4463"/><path d="M136.1,199.5a3.8,3.8,0,0,1,3.7,3.8v.2a3.8,3.8,0,0,1-3.7,3.8H89a3.8,3.8,0,0,1-3.7-3.8v-.2a3.8,3.8,0,0,1,3.7-3.8h47.1m0-1H89a4.8,4.8,0,0,0-4.7,4.8v.2a4.8,4.8,0,0,0,4.7,4.8h47.1a4.8,4.8,0,0,0,4.7-4.8v-.2a4.8,4.8,0,0,0-4.7-4.8Z" transform="translate(-33.1 -15)" fill="#a4a4a5"/></g><g id="center-drawer"><rect x="148.9" y="448.3" width="123.8" height="147.36" fill="#326496"/><rect x="183.8" y="467.3" width="53.6" height="8.71" rx="4.2" fill="#1f4463"/><path d="M266.3,482.8a3.8,3.8,0,0,1,3.7,3.7v.3a3.8,3.8,0,0,1-3.7,3.7H221.1a3.7,3.7,0,0,1-3.7-3.7v-.3a3.7,3.7,0,0,1,3.7-3.7h45.2m0-1H221.1a4.7,4.7,0,0,0-4.7,4.7v.3a4.7,4.7,0,0,0,4.7,4.7h45.2a4.7,4.7,0,0,0,4.7-4.7v-.3a4.7,4.7,0,0,0-4.7-4.7Z" transform="translate(-33.1 -15)" fill="#a4a4a5"/></g><g id="bottom-drawer"><rect x="15.7" y="600.9" width="128" height="126.19" fill="#326496"/><rect x="51.7" y="621.7" width="55.5" height="8.71" rx="4.2" fill="#1f4463"/><path d="M136.1,637.2a3.8,3.8,0,0,1,3.7,3.7v.3a3.7,3.7,0,0,1-3.7,3.7H89a3.7,3.7,0,0,1-3.7-3.7v-.3a3.8,3.8,0,0,1,3.7-3.7h47.1m0-1H89a4.7,4.7,0,0,0-4.7,4.7v.3a4.7,4.7,0,0,0,4.7,4.7h47.1a4.7,4.7,0,0,0,4.7-4.7v-.3a4.7,4.7,0,0,0-4.7-4.7Z" transform="translate(-33.1 -15)" fill="#a4a4a5"/></g><g id="book01"><rect id="cover" x="200.6" y="238.6" width="121.6" height="18.87" transform="translate(475.4 -29.3) rotate(89.8)" fill="#0b6daa"/><g id="accents"><rect x="256.7" y="190.7" width="9.1" height="18.87" transform="translate(427.3 -76.8) rotate(89.8)" fill="#a9d800"/><rect x="257" y="286" width="9.1" height="18.87" transform="translate(523 17.9) rotate(89.8)" fill="#a9d800"/></g></g><g id="book02"><rect id="cover-2" data-name="cover" x="230.3" y="246.1" width="103.5" height="21.96" transform="translate(505 -40.9) rotate(89.8)" fill="#13996c"/><g id="accents-2" data-name="accents"><rect x="280.9" y="202.5" width="2" height="21.96" transform="translate(461.2 -84.2) rotate(89.8)" fill="#af5f08"/><rect x="269" y="282.4" width="26.3" height="21.96" transform="matrix(0, 1, -1, 0, 541.44, -4.83)" fill="#096040"/><rect x="280.9" y="205.3" width="2" height="21.96" transform="translate(464.1 -81.3) rotate(89.8)" fill="#af5f08"/></g></g><g id="book03"><rect id="cover-3" data-name="cover" x="242.2" y="244.7" width="114.9" height="13.33" transform="translate(516.9 -64.2) rotate(89.8)" fill="#c48300"/><g id="accents-3" data-name="accents"><rect id="rect" x="295.6" y="289.1" width="8.6" height="13.33" transform="translate(561.5 -20.1) rotate(89.8)" fill="#e5d900"/><ellipse id="circle" cx="299.7" cy="207.4" rx="5.2" ry="4.9" transform="translate(-33.8 -13.9) rotate(-0.2)" fill="#e5d900"/><rect id="stripe-right" x="299.4" y="294.7" width="1" height="13.33" transform="translate(567 -14.6) rotate(89.8)" fill="#a54605"/><rect id="stripe-left" x="299.4" y="283.6" width="1" height="13.33" transform="translate(555.9 -25.6) rotate(89.8)" fill="#a54605"/></g></g><g id="book04"><rect x="204.3" y="191.6" width="25.3" height="116.19" transform="translate(86.2 -81.3) rotate(23.8)" fill="#9e1032"/><rect x="204.4" y="206.7" width="25.3" height="85.15" transform="translate(86.1 -81.5) rotate(23.8)" fill="#600b21"/></g><g id="book05"><rect x="49.7" y="399.7" width="88.2" height="1.76" transform="translate(154.5 786.2) rotate(180)" fill="#600b21"/><rect x="50.6" y="401.5" width="86.5" height="10.59" transform="translate(154.5 798.6) rotate(180)" fill="#d6d0ab"/><rect x="49.7" y="412.1" width="88.2" height="1.76" transform="translate(154.5 810.9) rotate(180)" fill="#600b21"/></g><g id="book05-2" data-name="book05"><rect x="52.3" y="433.3" width="88.2" height="1.76" transform="translate(159.8 853.3) rotate(180)" fill="#5f7504"/><rect x="53.2" y="435" width="86.5" height="21.18" transform="translate(159.8 876.2) rotate(180)" fill="#d6d0ab"/><rect x="52.3" y="456.2" width="88.2" height="1.76" transform="translate(159.8 899.2) rotate(180)" fill="#5f7504"/></g><g id="book06"><rect id="cover-4" data-name="cover" x="23.6" y="399" width="95.5" height="18.87" fill="#0b6daa"/><g id="accents-4" data-name="accents"><rect x="34.5" y="400.5" width="10.4" height="15.88" rx="4" fill="#b26b06"/><rect x="70.4" y="399" width="46.2" height="18.87" fill="#965d02"/></g></g><g id="terrarium"><g id="plant-bush"><path d="M74.2,370.6s-2.6-3.9-5.4-4.3c0,0,1,5.9,3.9,9.9l3,4,3.9-3.8Z" transform="translate(-33.1 -15)" fill="#819629"/><path d="M88.5,369.1s3.5-3.6,5.4-4.1a10.3,10.3,0,0,1-1.5,6.2c-1.9,3-6.7,9.4-6.7,9.4S86.2,371.2,88.5,369.1Z" transform="translate(-33.1 -15)" fill="#819629"/><path d="M84.4,370.1s-.5-6.2-2.5-8.9c0,0-1.7,4.6-1.1,7.9s-4.2,10.4-.1,12S84.4,370.1,84.4,370.1Z" transform="translate(-33.1 -15)" fill="#819629"/><path d="M73.2,381.8s-4.1-1.8-6.5-.3c0,0-.8,2,9.3,3.3l3.8,1.9S79.8,382.1,73.2,381.8Z" transform="translate(-33.1 -15)" fill="#93ad39"/><path d="M79.7,385.4s-2.3-.1-5.5-3.3a9.8,9.8,0,0,0-7.5-2.7s2.5-3.8,8.4-1.7,5.6,9.1,5.6,9.1Z" transform="translate(-33.1 -15)" fill="#b7ce4f"/><path d="M82.6,385.5s1.5-9.7-3.2-15.6-5-4.4-5-4.4,1.5,5.2.9,7.8S81.5,388.9,82.6,385.5Z" transform="translate(-33.1 -15)" fill="#94af35"/><path d="M83.1,373.7a36.6,36.6,0,0,1,4-8.4s1.8,4.1-.4,12.4-4.7,9.1-4.7,9.1S80.5,381.4,83.1,373.7Z" transform="translate(-33.1 -15)" fill="#b7ce4f"/><path d="M88.5,374.4s4.5-3,7.2-4.4a18.5,18.5,0,0,1-6,8.6,14.7,14.7,0,0,0-5.4,8.3S80.8,385,88.5,374.4Z" transform="translate(-33.1 -15)" fill="#94ae3a"/><path d="M92,382.5a4.6,4.6,0,0,1,4.5,1.7l.8.5s-.4,1.1-3.4,1.2-3.7-1.5-6.3-.2S86.4,382.8,92,382.5Z" transform="translate(-33.1 -15)" fill="#93ad39"/><path d="M91.7,377.9s3.9-1.2,5.2-3.3c0,0-.7,4.4-5.9,7.9a66,66,0,0,0-5.9,4.4S81.5,381.9,91.7,377.9Z" transform="translate(-33.1 -15)" fill="#b7ce4f"/></g><g id="plant-flower"><path id="leaf-3" d="M112.4,359.7a6.5,6.5,0,0,0-3,8.2S115.4,365.5,112.4,359.7Z" transform="translate(-33.1 -15)" fill="#b7ce4f"/><path id="leaf-2" d="M117.5,364.1a7.6,7.6,0,0,0-8.9,3.9S115.2,370.5,117.5,364.1Z" transform="translate(-33.1 -15)" fill="#94ae3a"/><path id="leaf-1" d="M108.3,376.1a4.5,4.5,0,0,0-5.9,2S106.4,380.5,108.3,376.1Z" transform="translate(-33.1 -15)" fill="#b7ce4f"/><path id="stem" d="M108.6,385.1s.8-6.6.7-7.8-2.6-.4-2.9-4a.7.7,0,0,1,.7-.9c.9-.1.9.9.9.9s.3,1.6,1.1,2.1a40.4,40.4,0,0,0-.9-7.5,19,19,0,0,0-3.7-7.4,8.9,8.9,0,0,0-3.7-2.2.6.6,0,0,1-.5-.9.6.6,0,0,1,.9-.5,10.4,10.4,0,0,1,4,2.6c1.5,1.6,3,2.3,4.2,7.9s2,8.7,1,17.2Z" transform="translate(-33.1 -15)" fill="#819629"/><g id="bud-left"><path d="M108.1,371.4a2.2,2.2,0,0,1-.6,1.9,2.4,2.4,0,0,0-1.4-1.7,2.3,2.3,0,0,0,.5-1.8,3.5,3.5,0,0,0-.1-.6A2.4,2.4,0,0,1,108.1,371.4Z" transform="translate(-33.1 -15)" fill="#b7ce4f" stroke="#065b12" stroke-miterlimit="10" stroke-width="0.5"/><path d="M106.6,369.8a2.3,2.3,0,0,1-.5,1.8,2.5,2.5,0,0,1-1.8,1h-1a.1.1,0,0,0-.1-.1.7.7,0,0,0-.1-.5,2.7,2.7,0,0,1,2.3-2.9,2.2,2.2,0,0,1,1.1.2A3.5,3.5,0,0,1,106.6,369.8Z" transform="translate(-33.1 -15)" fill="#b7ce4f" stroke="#065b12" stroke-miterlimit="10" stroke-width="0.5"/><path d="M107.5,373.3a2.4,2.4,0,0,1-1.6.9,2.4,2.4,0,0,1-2.6-1.7h1a2.5,2.5,0,0,0,1.8-1A2.4,2.4,0,0,1,107.5,373.3Z" transform="translate(-33.1 -15)" fill="#b7ce4f" stroke="#065b12" stroke-miterlimit="10" stroke-width="0.5"/></g><g id="bud-top"><path d="M102.3,356.5a3.3,3.3,0,0,1-.8,2.4,3.1,3.1,0,0,0-1.8-2.1,3.5,3.5,0,0,0,.7-2.3c-.1-.2-.1-.5-.2-.7A3.3,3.3,0,0,1,102.3,356.5Z" transform="translate(-33.1 -15)" fill="#b7ce4f" stroke="#065b12" stroke-miterlimit="10" stroke-width="0.5"/><path d="M100.4,354.5a3.5,3.5,0,0,1-.7,2.3,3.2,3.2,0,0,1-2.1,1.3l-1.4-.2h0a1.5,1.5,0,0,1-.1-.7,3.1,3.1,0,0,1,2.8-3.5,3,3,0,0,1,1.3.2C100.3,354,100.3,354.3,100.4,354.5Z" transform="translate(-33.1 -15)" fill="#b7ce4f" stroke="#065b12" stroke-miterlimit="10" stroke-width="0.5"/><path d="M101.5,358.9a3,3,0,0,1-5.3-1l1.4.2a3.2,3.2,0,0,0,2.1-1.3A3.1,3.1,0,0,1,101.5,358.9Z" transform="translate(-33.1 -15)" fill="#b7ce4f" stroke="#065b12" stroke-miterlimit="10" stroke-width="0.5"/></g><g id="flower"><path id="outer-petal-6" d="M99.4,353.8s.4-3.8-2-5.1-3.2,1.2-3.3,1.4-.5,2.1,1.7,4.4,3,2.1,3,2.1A6,6,0,0,0,99.4,353.8Z" transform="translate(-33.1 -15)" fill="#ba6161"/><path id="outer-petal-5" d="M102.1,355.8s3.5-1.9,3.1-4.8a2.4,2.4,0,0,0-3.1-2.2c-.2.1-2.2.8-2.7,4.1s0,4,0,4A5.7,5.7,0,0,0,102.1,355.8Z" transform="translate(-33.1 -15)" fill="#ba6161"/><path id="outer-petal-4" d="M101.8,358.7s3.2,2.1,5.4.4.3-3.6.2-3.8a4.5,4.5,0,0,0-4.6-.4c-3,1-3.3,1.9-3.3,1.9A7,7,0,0,0,101.8,358.7Z" transform="translate(-33.1 -15)" fill="#ba6161"/><path id="outer-petal-3" d="M99.2,359.4s-.6,3.5,1.7,5.1a2,2,0,0,0,3.4-.8c.1-.1.6-1.9-1.5-4.4s-2.9-2.5-2.9-2.5A4.7,4.7,0,0,0,99.2,359.4Z" transform="translate(-33.1 -15)" fill="#ba6161"/><path id="outer-petal-2" d="M96.9,358s-3.4,1.5-3.5,4.5,2.7,2.7,2.8,2.6,2.2-.5,3.1-3.8.4-4.2.4-4.2A5.6,5.6,0,0,0,96.9,358Z" transform="translate(-33.1 -15)" fill="#ba6161"/><path id="outer-petal-1" d="M96.8,354.7s-3.3-1.9-5.4-.1a2.4,2.4,0,0,0-.1,3.8c.2.2,1.8,1.4,4.7.2s3.1-2.1,3.1-2.1A7.1,7.1,0,0,0,96.8,354.7Z" transform="translate(-33.1 -15)" fill="#ba6161"/><path id="inner-petal-6" d="M97.6,354.3s-1.8-3.3-4.5-2.9-1.9,2.9-1.9,3.1.8,2.1,3.8,2.6,3.7-.1,3.7-.1A7.7,7.7,0,0,0,97.6,354.3Z" transform="translate(-33.1 -15)" fill="#dd8e8e"/><path id="inner-petal-5" d="M100.9,354.3s1.7-3.7-.2-5.8-3.6,0-3.7.2-1.3,1.9,0,5,2.3,3.2,2.3,3.2A7.2,7.2,0,0,0,100.9,354.3Z" transform="translate(-33.1 -15)" fill="#dd8e8e"/><path id="inner-petal-4" d="M102.3,356.8s3.7-.1,4.6-2.8a2.5,2.5,0,0,0-2-3.3c-.2,0-2.2-.2-4,2.5s-1.5,3.5-1.5,3.5A6,6,0,0,0,102.3,356.8Z" transform="translate(-33.1 -15)" fill="#dd8e8e"/><path id="inner-petal-3" d="M100.5,359s1.5,3.2,4.3,3.1a2.1,2.1,0,0,0,2.3-2.6c0-.2-.5-2-3.7-2.8s-3.8-.3-3.8-.3A5.9,5.9,0,0,0,100.5,359Z" transform="translate(-33.1 -15)" fill="#dd8e8e"/><path id="inner-petal-2" d="M97.9,359.2s-2,3.4-.3,5.9a2.4,2.4,0,0,0,3.8.4c.1-.2,1.4-1.8.3-5s-2-3.7-2-3.7A6.7,6.7,0,0,0,97.9,359.2Z" transform="translate(-33.1 -15)" fill="#dd8e8e"/><path id="inner-petal-1" d="M95.9,356.7s-3.7.4-4.4,3.1a2.4,2.4,0,0,0,2.1,3.2c.2,0,2.2.1,3.9-2.7s1.3-3.6,1.3-3.6A5.3,5.3,0,0,0,95.9,356.7Z" transform="translate(-33.1 -15)" fill="#dd8e8e"/><ellipse id="flower-center" cx="66.2" cy="341.9" rx="2.3" ry="2.4" fill="#e8debe"/></g></g><path id="plant-moss" d="M66.7,385.5s9.6-3,17.4-.5,21.6-2.2,25.3-2.2a41.4,41.4,0,0,1,8.2,1.1l-.2,6.4L67,392.1Z" transform="translate(-33.1 -15)" fill="#5f7715"/><path id="dirt" d="M66.8,389.5s1.5-4.6,5.6-1.9,7.1,0,8.6-.8,7-1.5,10,2,8.6-2.3,10.8-2.7,7,.4,8.2,1.9,4.1.8,5.2,0a15.1,15.1,0,0,0,2.3-2.3s.2,9.4-2,10.3-2.4,3.9-25.9,3.7-20.9-4.4-21.5-4.6S66.5,390.3,66.8,389.5Z" transform="translate(-33.1 -15)" fill="url(#linear-gradient)"/><g id="bee"><path id="back-wing" d="M97.3,355.6s-2.7-2.4-2.3-3.4a1.3,1.3,0,0,1,2.5-.6C98,352.3,97.3,355.6,97.3,355.6Z" transform="translate(-33.1 -15)" fill="#b9f3f9" opacity="0.45"/><path d="M96,355.4a13.8,13.8,0,0,1,1.1,2.4h-.4c-.2-.5-.5-1.3-.9-2.1Z" transform="translate(-33.1 -15)" fill="#ffd506"/><path d="M96.6,355a11.8,11.8,0,0,1,1.2,2.7h-.3a13.7,13.7,0,0,0-1.2-2.6Z" transform="translate(-33.1 -15)" fill="#ffd506"/><path d="M97.4,354.7a12.3,12.3,0,0,1,1.1,2.7l-.3.2a12.8,12.8,0,0,0-1.3-2.8h.5Z" transform="translate(-33.1 -15)" fill="#ffd506"/><path d="M98.2,354.6a13.8,13.8,0,0,1,.9,2.3l-.2.2a21.5,21.5,0,0,0-1.1-2.5Z" transform="translate(-33.1 -15)" fill="#ffd506"/><path d="M99.5,355.4a1.2,1.2,0,0,1-.1,1c-.2-.4-.4-1-.8-1.7A1.3,1.3,0,0,1,99.5,355.4Z" transform="translate(-33.1 -15)" fill="#ffd506"/><path d="M96.7,357.8h-.4a1.1,1.1,0,0,1-.7-1.6c0-.1.1-.2.1-.3h.1C96.2,356.5,96.5,357.3,96.7,357.8Z" transform="translate(-33.1 -15)"/><path d="M97.5,357.8h-.4a13.8,13.8,0,0,0-1.1-2.4l.3-.2A13.7,13.7,0,0,1,97.5,357.8Z" transform="translate(-33.1 -15)"/><path d="M98.2,357.6h-.4a11.8,11.8,0,0,0-1.2-2.7l.3-.2A12.8,12.8,0,0,1,98.2,357.6Z" transform="translate(-33.1 -15)"/><path d="M98.9,357.1l-.4.3a12.3,12.3,0,0,0-1.1-2.7h.4A21.5,21.5,0,0,1,98.9,357.1Z" transform="translate(-33.1 -15)"/><path d="M99.4,356.4c0,.2-.1.3-.3.5a13.8,13.8,0,0,0-.9-2.3h.4C99,355.4,99.2,356,99.4,356.4Z" transform="translate(-33.1 -15)"/><path d="M95.4,356.7a8,8,0,0,1-2.2,1.4,8.5,8.5,0,0,1,2.5-.7C96.3,357.5,95.4,356.7,95.4,356.7Z" transform="translate(-33.1 -15)"/><path id="front-wing" d="M97.4,355.6s-3.3-.9-3.4-2a2.3,2.3,0,0,1,.3-1.6,1.4,1.4,0,0,1,1.5-.3C96.7,352.1,97.4,355.6,97.4,355.6Z" transform="translate(-33.1 -15)" fill="#b9f3f9" opacity="0.45"/></g><g id="jar-glass" opacity="0.28"><path d="M112,325.2a8.6,8.6,0,0,1-1.4,1.3c-3.1,2.3-7.3,1.9-14.5,2.7s-20.2-1.6-20.2-1.6a4.4,4.4,0,0,1-1.4-.5,3.6,3.6,0,0,1-2-3.9c.4-3.7,6.9-3.9,6.9-3.9,4.5-1.7,25.7.2,27.5,0S115.2,321.5,112,325.2Z" transform="translate(-33.1 -15)" fill="#c3f3f4"/><path d="M117.5,387.1c-.2,6.4-1.1,7.6-1.1,7.6s-1,4.3-15.3,4.8S77,399.5,72,398s-4.8-8.3-4.8-8.3.2-45.8.4-49a6.7,6.7,0,0,1,5.4-5.5c1.7-.1,1.5-8,1.5-8.1a4.4,4.4,0,0,0,1.4.5s11.8,2.5,20.2,1.6,11.4-.4,14.5-2.7a45.1,45.1,0,0,1-.1,6.2c-.4,2.2,1,2.6,1,2.6,4.5,2.1,5.1,7.8,5.1,7.8S117.7,380.7,117.5,387.1Z" transform="translate(-33.1 -15)" fill="#c3f3f4"/><path d="M82.8,330.9c0,.5-10.1-2.1-10.5-.5s.6,3,5.1,4,23.8,1.8,29.7,0,6.1-3.5,5.8-4.1-1.7-1.9-5.5,0" transform="translate(-33.1 -15)" fill="#c3f3f4"/></g><g id="jar-outline"><path d="M112,325.2a8.6,8.6,0,0,1-1.4,1.3c-3.1,2.3-7.3,1.9-14.5,2.7s-20.2-1.6-20.2-1.6a4.4,4.4,0,0,1-1.4-.5,3.6,3.6,0,0,1-2-3.9c.4-3.7,6.9-3.9,6.9-3.9,4.5-1.7,25.7.2,27.5,0S115.2,321.5,112,325.2Z" transform="translate(-33.1 -15)" fill="none" stroke="#a8e3e5" stroke-miterlimit="10"/><path d="M117.5,387.1c-.2,6.4-1.1,7.6-1.1,7.6s-1,4.3-15.3,4.8S77,399.5,72,398s-4.8-8.3-4.8-8.3.2-45.8.4-49a6.7,6.7,0,0,1,5.4-5.5c1.7-.1,1.5-8,1.5-8.1a4.4,4.4,0,0,0,1.4.5s11.8,2.5,20.2,1.6,11.4-.4,14.5-2.7a45.1,45.1,0,0,1-.1,6.2c-.4,2.2,1,2.6,1,2.6,4.5,2.1,5.1,7.8,5.1,7.8S117.7,380.7,117.5,387.1Z" transform="translate(-33.1 -15)" fill="none" stroke="#a8e3e5" stroke-miterlimit="10"/><path d="M82.8,330.9c0,.5-10.1-2.1-10.5-.5s.6,3,5.1,4,23.8,1.8,29.7,0,6.1-3.5,5.8-4.1-1.7-1.9-5.5,0" transform="translate(-33.1 -15)" fill="none" stroke="#a8e3e5" stroke-miterlimit="10"/></g></g><g id="globe"><path d="M169.2,129.5a3.6,3.6,0,0,0-4.8-1.3c-29.7,17.1-67.8,7-84.9-22.4s-6.7-67.2,23-84.3a3.7,3.7,0,0,0,1.3-4.8A3.7,3.7,0,0,0,99,15.4C65.9,34.5,54.5,76.7,73.4,109.3A68.6,68.6,0,0,0,128,143.2v9.5H114.7a5.2,5.2,0,1,0,0,10.4h33.5a5.2,5.2,0,1,0,0-10.4H134.9v-9.2a69.8,69.8,0,0,0,33-9.3A3.6,3.6,0,0,0,169.2,129.5Z" transform="translate(-33.1 -15)" fill="#324d5b"/><path d="M133.7,19.6A55.6,55.6,0,1,1,78.2,75.2,55.6,55.6,0,0,1,133.7,19.6Z" transform="translate(-33.1 -15)" fill="#26a6d1"/><path d="M175.2,112.2c3.8-14.8,7.3-36.2-3.7-33.8s-23.6,4.9-29.9,5.8-13.8-5.3-22.2-9.8c-1.2-4.8-1.3-7.3,5.3-12.2s9.9,4.7,12.5,1.9c4.4-5.4,1.4-10.3,7.1-21.9s6.2-9.6,10.3-18.5a55.2,55.2,0,0,0-20.9-4.1A55.8,55.8,0,0,0,84.3,49.7a52.5,52.5,0,0,0,6.5,10c8.9,10.7,18.3,15.1,33,24.1s12.5,13,8.9,17.1-9.1,21.4,1.4,26.8l4.7,2.9A56.3,56.3,0,0,0,175.2,112.2Z" transform="translate(-33.1 -15)" fill="#aec225"/><path d="M141.9,122.6A55.6,55.6,0,0,1,98.7,32a55.6,55.6,0,1,0,78.2,78.2A55.1,55.1,0,0,1,141.9,122.6Z" transform="translate(-33.1 -15)" fill="#2295bc"/><path d="M175.3,111.4a54.6,54.6,0,0,1-33.4,11.2,55.3,55.3,0,0,1-13.1-1.6,10.5,10.5,0,0,0,5.3,6.6l4.7,2.9h.4l2-.2.8-.2,1.9-.3h.7c2.2-.5,4.4-1.1,6.5-1.8l.7-.2a5.9,5.9,0,0,0,1.6-.6l1.1-.3,1.5-.7,1.1-.5,1.4-.7,1.2-.5,1.2-.7,1.4-.8,1.3-.9a21.2,21.2,0,0,1,2-1.2l.9-.7,1.4-1.1.9-.7,1.3-1,.8-.8,1.3-1.2.8-.7,1.4-1.4.6-.5h.1c.1-.6.2-1,.2-1.2ZM87.6,55.3A56.2,56.2,0,0,1,98.7,32.1h-.1l-1.9,1.6-.6.6c-.4.5-1,1-1.5,1.5l-.7.7L92.5,38l-.7.8-1.3,1.8a2.2,2.2,0,0,0-.7.9l-1,1.1-.9,1.3L87,45.3a12.7,12.7,0,0,0-.7,1.2l-.7,1-1,1.9-.4.5Z" transform="translate(-33.1 -15)" fill="#9cae21"/></g><g id="ducky"><path d="M225.5,291.2s-6.8,1.6-8.4,1.5-3.5-1.5-3.6,1.6.3,7.3,2.5,9.2,6.4,7.7,20,4.9,10.1-13.2,6.8-15.6S225.5,291.2,225.5,291.2Z" transform="translate(-33.1 -15)" fill="#fac112"/><path d="M230.8,278.1s-9.2,1.3-6.1,11.1,11.8,4.8,12.6,4.5a10,10,0,0,0,3.7-10.3A7.7,7.7,0,0,0,230.8,278.1Z" transform="translate(-33.1 -15)" fill="#fddb00"/><ellipse cx="235.5" cy="285.3" rx="1.4" ry="1.8" transform="translate(-66 15.7) rotate(-7)" fill="#5b2415"/><path d="M229.5,299.3a32.3,32.3,0,0,1-8.2-.4c-4.5-.8-4.3,3.3-1.8,5.4s9.8,6.5,15.3,2S231.9,298.7,229.5,299.3Z" transform="translate(-33.1 -15)" fill="#f49f1d"/><path d="M244.9,288.6s3.5-2.9,1-2.8a25.3,25.3,0,0,1-4.9-.2c-.3-.3-3.2,3.3-3.5,5.3s4.7,2.2,5.7,2,2.9-1,1.9-2.7S244.9,288.6,244.9,288.6Z" transform="translate(-33.1 -15)" fill="#f08321"/><path d="M238.6,290.8s.9.7,3.3-.2,2-1.3,2.3-1.1,1.1,2.4-1.1,2.4A14.9,14.9,0,0,1,238.6,290.8Z" transform="translate(-33.1 -15)" fill="#e85824"/></g></svg>