<svg id="Layer_1" data-name="Layer 1" xmlns="http://www.w3.org/2000/svg" viewBox="0 0 1245.9 648.1"><defs><style>.cls-1{fill:#ebf6ff;}.cls-2{fill:none;stroke:#d2e9f9;stroke-miterlimit:10;stroke-width:10px;}.cls-3{fill:#d2e9f9;}</style></defs><title>home-background</title><g id="background"><path id="window" class="cls-1" d="M1158.4,649.4v.6H94.2v-.6c0-293.9,238.2-532.1,532.1-532.1S1158.4,355.5,1158.4,649.4Z" transform="translate(-13.1 -6.9)"/><path id="window-outline" class="cls-2" d="M1180.7,649.4v.6H117.7v-.6c0-299,237.9-541.5,531.5-541.5S1180.7,350.4,1180.7,649.4Z" transform="translate(-13.1 -6.9)"/><g id="closing-brackets"><path class="cls-3" d="M230,144c2.5-8.1,4.5-15.4,6-21.8a104.9,104.9,0,0,0,2.9-18.7l1.8-.7a26.9,26.9,0,0,1,6.7-1.5c2.2-.1,3.6.6,4.1,2.2-.7,3.3-1.9,9.5-3.6,18.5s-2.5,13.9-2.2,14.7l.2.5c.9,2.5,1.7,3.7,2.4,3.7l19.2,15.6,2.6,2.4a13.3,13.3,0,0,1,1.2,2.4c.5,1.3-.4,2.9-2.7,4.7a20.2,20.2,0,0,1-5.3,3.3c-.6.2-5.3-2.9-14.3-9.5s-14.6-10.9-16.9-13.1l-.3-.3-.2-.8-.9.3Zm5.6-3.6a6.4,6.4,0,0,0,.1,4.1l2-.6a7.6,7.6,0,0,0,2.8-1.6,2,2,0,0,0,.7-2.3,4.2,4.2,0,0,0-1.1-1.8,1.9,1.9,0,0,0-1.8-.7A4.4,4.4,0,0,0,235.6,140.4Zm3.2-8.3a5.8,5.8,0,0,0,.2,3.9l1.5-.6.9-5.8H241A3.3,3.3,0,0,0,238.8,132.1Zm.1,15.5a5.2,5.2,0,0,0,2.4-1.6,6.4,6.4,0,0,0,1-3C240.4,143.7,239.3,145.2,238.9,147.6Zm2.1-28.5a30.2,30.2,0,0,0-1,6.5c1.3-.5,2.5-1.9,3.4-4.3s1.4-4.1,1-5.2L244,115C242.6,115.5,241.6,116.9,241,119.1Zm3.8,32.2a4.7,4.7,0,0,0,2.4-2,3.5,3.5,0,0,0,.2-3,6.3,6.3,0,0,0-.9-2,4.6,4.6,0,0,0-1.4-1.4c0,.2-.6.7-1.5,1.7a4.6,4.6,0,0,0-1.7,3l3.5-1.3A4.9,4.9,0,0,0,244.8,151.3Zm-2.2-42.6v2.6h.2c.3-.1.6-.5,1-1.1a3,3,0,0,0,.6-2l-1.2-.7Zm5.9,41.4c0,1.1-.1,1.8-.1,1.9l1-.2a3.9,3.9,0,0,0,1.6-1,1.3,1.3,0,0,0-.4-2.4,1.3,1.3,0,0,0-1.1-.3C248.8,148.4,248.5,149,248.5,150.1Zm3.2,2.9-.5.2c-1.1.4-1.7.9-1.8,1.7l1.4.8Zm6.6,8.2,1.8,1.2c.6.5,1,.8,1.1.7l2.8-3.2-2.6,1a4.1,4.1,0,0,0,0-1.6,6.6,6.6,0,0,0-.3-1.8,16.3,16.3,0,0,0-3.2-2.6c-1.9-1.3-3-2-3.2-1.9a5.3,5.3,0,0,0-2.9,3.4c.5.7,1.3.8,2.6.4l1.3-.7-1,2.6A36,36,0,0,1,258.3,161.2Z" transform="translate(-13.1 -6.9)"/><path class="cls-3" d="M305,169.7c.8-3.3.9-6,.2-7.9s-.6-3.6-.9-6.4-.3-4.3-.1-4.4l.9-2.7,4.8-43.6L311,88.8c-.5-1.3-.8-11.2-1-29.7V50.6c.2-4.6.5-7.9.8-9.9a21.7,21.7,0,0,1,2.9-7,13.5,13.5,0,0,0,3.9-.5,25,25,0,0,1,5.1-.6,10.9,10.9,0,0,1,4.9,1.6c.4.9.7,4.2.9,9.8s.2,11.1.1,16.4-.5,8.2-1,8.9l-1.4-.8-.3,7.1,1.1-1.7L323.7,127l-.9,2.5,2.2-.8-1.8,15.5h-.3c-.6.3-.9,3.3-.7,9.1,0,4.2,0,7.5-.2,9.9s-.6,3.8-1.3,4.3l-1.8.8a22.8,22.8,0,0,1-3.5,1.1l-2.6.6a43.4,43.4,0,0,0-6.2,1.5A2.7,2.7,0,0,0,305,169.7Zm1.7-2.9,9.6-3.5c.4-.1.7-.7.9-1.7a3.1,3.1,0,0,0,.1-2.1,25.1,25.1,0,0,0-4.9,2.5,32.9,32.9,0,0,1-5.4,2.6A1.9,1.9,0,0,0,306.7,166.8Zm4-5.8a4.3,4.3,0,0,0,2.5.1q.6-.2.6-1.5a1.4,1.4,0,0,1,1.1-1.6l1.1-.3h1c.9-.4,1.3-1.5,1-3.3l-4.3,1.5a12.8,12.8,0,0,0,2-2.5,7.4,7.4,0,0,1,2.8-3c.2-1.4.6-4.6,1.1-9.5s.9-8.7,1.1-11.6c-.5-4.5-.8-7-.8-7.6a12.8,12.8,0,0,1,.2-2.6c.1-1,.2-1.8.3-2.3a24.1,24.1,0,0,0,.6-4.9,11.4,11.4,0,0,0-.7-4.1l-2.2.9c.6-.4.8-.8.6-1.4l-.4-.7a3.1,3.1,0,0,1-.5-1l.8-.3.4-.3a3.7,3.7,0,0,1,2.1.6,9.4,9.4,0,0,0-.2-5.3c-.2-1-.3-1.8-.4-2.4a9.2,9.2,0,0,1,.7-2.6q.4-1.8,1.2-6.6c.5-3.1.9-6.4,1.2-9.8s.3-5.8-.2-7.1-.8-.4-2.2-.7-2.1-.7-2.4-1.5V69l4.5.7c1-.3,1.6-1.4,1.7-3.3a50.1,50.1,0,0,0-.6-7.7,27.8,27.8,0,0,1-.3-5.4c0-1.3.3-2,.7-2.2s-.2-4.1-1.2-12v-.4c-.2-.6-1.3-.8-3.3-.4a30,30,0,0,0-4.7,1.1,2.6,2.6,0,0,0,1.9,1.9c-2,1.4-3.2,3.8-3.7,7.1a20.3,20.3,0,0,0,.9,9.2c.1.4.5.7,1.3,1a16.6,16.6,0,0,0,2.1.6,3,3,0,0,0-1.2.2,3.6,3.6,0,0,0-2.2,3.3,11.2,11.2,0,0,0,.6,5.1,1.3,1.3,0,0,0,.6.7c.3.2.5.3.6.2a4.8,4.8,0,0,0-1.6,3.4,5.8,5.8,0,0,1-.9,3l.6,17.9a13.8,13.8,0,0,1,.2,5.6c-.2,2.6-.6,6.5-1.3,11.8l-1.2,10.2a26.1,26.1,0,0,0,0,7l.5,1.5c.1.2-.2,1.1-.9,2.8a6.2,6.2,0,0,0-.5,4.1l.5.4c.3.2.5.3.7.2s-1.9,2-2.6,4.7a48.9,48.9,0,0,0-1.3,8.9c-.2,3.2-.1,5.3.3,6.2a6.2,6.2,0,0,0,1,2,1.9,1.9,0,0,0,1.8.5l-3.6,1.3A7.3,7.3,0,0,0,310.7,161Zm7-23.8a5.4,5.4,0,0,1-3-.2l2.6-.9Zm5.5-1.1a6.5,6.5,0,0,0-.2-3.2A6.5,6.5,0,0,0,323.2,136.1Z" transform="translate(-13.1 -6.9)"/><path class="cls-3" d="M399.8,84.5a2,2,0,0,1,0,1.7l-1.5,2.2c-.3,3.3-1.8,10-4.3,20.2s-4,15.3-4.5,15.5a21.8,21.8,0,0,1-6.3.8c-2.9,0-4.6-.6-5-1.9a7.3,7.3,0,0,1-.6-2.6c0-.7.2-1.9.4-3.5l4.9-24.3c.6-.4.5-1.7-.2-3.7l-.3-.9a9.9,9.9,0,0,0-2.1-2.7c-1.9-1.7-5.1-4.5-9.7-8.2l-9.8-8.2a12.5,12.5,0,0,1-2.8-1.3,2.8,2.8,0,0,1-1.3-1.8c-.6-1.6,0-3,1.9-4.3a23.3,23.3,0,0,1,6.1-3.1l1.8-.7a96.3,96.3,0,0,0,14.1,12.7c5.3,4,11.4,8.3,18.5,13ZM365.9,65.8l1.1.4a3,3,0,0,0,1.5.2c0-.1.1-.1,0-.3a8.8,8.8,0,0,0-2.7-2.4l-.5,1.2Zm8.4,8.6c2.2,1.2,4,1.6,5.4,1.1a41.5,41.5,0,0,0-4.9-4.4c-1.9-1.3-3.5-1.7-4.9-1.2l.4,1.1C370.7,72.1,372,73.2,374.3,74.4Zm6.8,5.2,4.4,3.9,1.6-.6a7.2,7.2,0,0,0-2.3-3.1,3.4,3.4,0,0,0-3.3-.6Zm7.3,29.2c1.2-.5,1.8-1.1,1.7-1.9a4.9,4.9,0,0,0-4.4-.8c-.2,0-.6,1.2-1.2,3.4a26.1,26.1,0,0,0-.9,4.1l.9,1.6c.5.6.8,1,1.1,1.1l-2.7,1,4.2.7c.1,0,.3-.5.4-1.3a9.3,9.3,0,0,1,.7-2,40.5,40.5,0,0,1,1.1-4.3l-2.4-1.3Zm-2.5-8.9a1.7,1.7,0,0,0-.1,1.2,1.6,1.6,0,0,0,1.4.9,5.8,5.8,0,0,0,1.9-.2l.9-.6a6.7,6.7,0,0,1-1.3-1.3q-1.1-1.4-2.1-.9A1.7,1.7,0,0,0,385.9,99.9Zm3.1-7.4-2.3-.3a6.7,6.7,0,0,0-.3,1.8,10.6,10.6,0,0,0,.7,2.2,3.5,3.5,0,0,0,2.1,2.2,4.2,4.2,0,0,0,3.1,0,5.5,5.5,0,0,0-3.6-3.5l3.5-1.2A5.4,5.4,0,0,0,389,92.5Zm-1.4-7.2a3.9,3.9,0,0,0,.3,2.1,1.8,1.8,0,0,0,2.2,1.4,15.7,15.7,0,0,0,3.1-.8l1.8-.6a6.2,6.2,0,0,0-2.6-3.2,4.3,4.3,0,0,0-3.8-.6A1.9,1.9,0,0,0,387.6,85.3Zm1,18.6-.6.2,2.5,1.5.5-1.4A2.2,2.2,0,0,0,388.6,103.9Zm3-11.8a5.2,5.2,0,0,0,2.9-.3,5.2,5.2,0,0,0-5.5-1.3A5.9,5.9,0,0,0,391.6,92.1Z" transform="translate(-13.1 -6.9)"/></g><g id="semi-colon"><path class="cls-3" d="M1212,577h-.6l-.9-1.2a19.2,19.2,0,0,0,5.5-5.2,18.9,18.9,0,0,0,3.1-6.2c.1-.3-.2-.7-.8-1.1a3.8,3.8,0,0,0-1.8-.9l3.4-14.8,23.7,5.5q.5.1.6,4.5a43.4,43.4,0,0,1-.1,6.6c-.4,1.8-3,4.1-7.6,6.8a46,46,0,0,1-11.6,5.1l-6.3,1.5-4.5.9-1.3-.3.2-1Zm9.7-19.6c-.1.2.1.5.4.9a1.9,1.9,0,0,0,1.1.7,4,4,0,0,0,2-2.5,9.9,9.9,0,0,0,.4-1.7,4,4,0,0,0-2.3.8,3,3,0,0,0-1.4,1.8Zm.3,13.1.6.3,2.1-.2c1-.1,1.6-.5,1.7-1A12.9,12.9,0,0,0,1222,570.5Zm3.8-4,1.3.4a5,5,0,0,0,2.9-.3,21.1,21.1,0,0,0,3-1.6q3.6-2.2,5.4-1.8l1.3.6v-5.7c-.3-.1-1.7.4-4.3,1.6a37.9,37.9,0,0,0-5.5,2.8l1.1,1.3Q1227.2,564.7,1225.8,566.5Zm5.2-7.7a2.8,2.8,0,0,1-2.1.4,7.4,7.4,0,0,0,4.9-.4,4.7,4.7,0,0,0,2.8-3.2c-4.8-1.1-8.2-.4-10.3,2.2l6.1-.6v.6Zm26.4-56.1a2.6,2.6,0,0,1,1.6,2.9l-2.4,10.1-3.2,1.4-8.2-1.6c-3.6-.6-6.5-1.1-8.6-1.6l-1.4.3-1.6.2-.7-.2a3.4,3.4,0,0,1-1.1-.5c-.5-.3-.7-.6-.6-1l3.4-14.8,6.6.9c3.9.6,7.3,1.2,10.3,1.9A26.6,26.6,0,0,1,1257.4,502.7Zm-18.5,7.2c1.4.3,3.4-.1,5.9-1.3s4-2.3,4.3-3.5a12,12,0,0,0-4.7-.4,9.3,9.3,0,0,0-3.1,1.4,11.7,11.7,0,0,1-4.8,1.9C1236.6,508.9,1237.4,509.5,1238.9,509.9Zm10.8.2a12.4,12.4,0,0,0-2.4,1.6l1.6.5c1.9.4,3.1-.2,3.5-1.9v-1.4A9.4,9.4,0,0,0,1249.7,510.1Z" transform="translate(-13.1 -6.9)"/></g><g id="curly-brackets"><path class="cls-3" d="M1112.5,305.7c.1-1.7,0-2.8-.3-3.2l-.6-.9a7.4,7.4,0,0,1,.8-2.2,9.3,9.3,0,0,0,.8-2.8c.2-2.6-.9-7.2-3.2-13.7s-4.5-10.2-6.2-11.1l-2-.4h-.7a2.5,2.5,0,0,1-1.8-.7c-.4-.4-.5-1.2-.4-2.6l.4-2.2a44.2,44.2,0,0,0,16.3-22.9c2.8-9.2,4.7-21,5.9-35.4.6-8.5,1.8-14.7,3.5-18.6s5.2-8.2,10.3-12.9l2.4-1.5a4.2,4.2,0,0,1,2.8-.9c-.1.5.3.8,1.1.9a5.4,5.4,0,0,0,2.9-.6,6.5,6.5,0,0,0,2.2-1.3l12.7-.4c3.4.3,5,1.9,4.8,4.9a5.2,5.2,0,0,1-1.1,2.8,18.4,18.4,0,0,1-2.3,2.7,4.5,4.5,0,0,1,1.9,2.3,5.8,5.8,0,0,1,.6,3c0,1-1.9,1.8-5.6,2.4a42.1,42.1,0,0,0-15.7,6.4c-4.3,3-6.7,8.3-7.3,15.8a79,79,0,0,0,.4,13.2,78.9,78.9,0,0,1,.5,12.9,25.7,25.7,0,0,1-2.9,9.7,123.6,123.6,0,0,1-7.5,12.4c-3.4,4.9-5.1,8.1-5.2,9.6s.8,4.1,2.7,10,3.2,10.5,4.3,13.7l-3.4,43.2c0,.5.7,2,2.1,4.4a41.5,41.5,0,0,0,5.2,6.7q3,3.1,5.4,3.3h3.5a7.8,7.8,0,0,1,6.3,4.1c1.7,2.5,2.3,5.6,2,9.4a5,5,0,0,1-.7,2.5,4.2,4.2,0,0,1-2.3,1.5l-8.8-2.1a44.4,44.4,0,0,1-21.4-11.4c-3.2-3.1-4.6-6.3-4.4-9.5l2.1-26.1a13.3,13.3,0,0,0-.8-2.4,3.9,3.9,0,0,0-1.4-1.8A43.4,43.4,0,0,0,1112.5,305.7Zm-1.1-33.3.3-4.2,8.3-11.1.3-3.7c-.8,0-3.1,2.3-6.8,6.9s-5.7,7.5-5.8,8.4S1108.9,271.1,1111.4,272.4Zm3.9,8.9a43.8,43.8,0,0,1,2.3,6.5l.4-2a11.1,11.1,0,0,0-1.3-5.4,15.9,15.9,0,0,0-3.1-4.6l-.3.5A35.8,35.8,0,0,0,1115.3,281.3Zm0,57.8c.3,2.9.8,4.4,1.6,4.7s1.6-1.2,1.7-3.3c.4-5.1-.7-7.8-3.5-8A39.7,39.7,0,0,0,1115.3,339.1Zm3.2,11.4a12,12,0,0,0,4,1.1h2.7c-1.3-.3-2.4-1.4-3.2-3.3s-1.9-2.8-3.2-3-2.1.7-2.2,2.4S1117.1,349.8,1118.5,350.5Zm-.7-23.1a4.6,4.6,0,0,0,.8-2.4h-1.2l-.4,4.6A5.6,5.6,0,0,1,1117.8,327.4Zm1.9-16.6h-1.2l-.2,2.9A3.1,3.1,0,0,0,1119.7,310.8Zm-1.2-18.9a15.5,15.5,0,0,0,.3,4c.3,1.7.8,2.8,1.6,3.3l.4-2c.3-3-.5-5.3-2.2-6.7v1.4Zm2.1-44.6a11.5,11.5,0,0,0-2,5.7c2.5.2,4.7-1,6.7-3.6a14.4,14.4,0,0,0,3.4-8.2,10.9,10.9,0,0,0-.5-1.7c-.2-.6-.3-1.2-.5-1.8a3.6,3.6,0,0,0,1.7-2.7,4.8,4.8,0,0,0-1.2-3.7,4.6,4.6,0,0,0-3.3-1.8,14.2,14.2,0,0,1-1.7,4.9c-1.1,2.1-1.7,3.5-1.7,4.3a7.7,7.7,0,0,0,.7,3.9,2.8,2.8,0,0,0,2.5,2A5.3,5.3,0,0,0,1120.6,247.3Zm12.5,113.6a2.3,2.3,0,0,0,1.4-2c-.2-1.2-1.3-2.4-3.3-3.7s-3.2-2-3.7-2a2.3,2.3,0,0,0-2.9,2.3l.2.6,6,3.3-.2,2A4.5,4.5,0,0,0,1133.1,360.9Zm-6.3-133.5a4.7,4.7,0,0,1,1.2-2.7,4.3,4.3,0,0,0,1.2-2.3,2,2,0,0,0-.7-1.8,4.5,4.5,0,0,0-1.8-.7l-1,.2-.6,7.1Zm-1-15.6c-.2,2.5.2,4.2,1.1,5.3s1.1-.9,1.5-2.9.6-4.3.8-7l.3-6.8a8.9,8.9,0,0,1,2.4-3.8,19.7,19.7,0,0,1,3.7-2.6,21.3,21.3,0,0,0,4-3.2,7.8,7.8,0,0,0,1.6-4.6,35.2,35.2,0,0,0,9-.6,24.9,24.9,0,0,0,8.4-3.2l-7.1-.8a35.6,35.6,0,0,0-14.1,1.7c-4.7,1.5-7.2,4.8-7.6,9.7v1.7q-.2,1.2-2.4,2.4c.2,0,.3.2.6.6a1.7,1.7,0,0,1,.2,1.2c-.9,1.1-1.5,4.1-1.9,9Zm11,149.3,4.9.4v-1.2l-4.9-.4Z" transform="translate(-13.1 -6.9)"/><path class="cls-3" d="M1235.3,278.8a3.8,3.8,0,0,1-.8,2.5,2.6,2.6,0,0,1-2.1.4c-1.3-.1-3.2,1.1-5.6,3.7a44.4,44.4,0,0,0-6.7,9.3c-2,3.7-3.2,7-3.4,10.1a8.6,8.6,0,0,0,.4,2.9,6.3,6.3,0,0,1,.4,2.3l-.8.8a6.2,6.2,0,0,0-.7,3.1,45.5,45.5,0,0,0,.4,10.3c-.5.1-1,.7-1.6,1.6a9.9,9.9,0,0,0-1.2,2.2l-2,26.1c-.3,3.2-2.2,6.1-5.8,8.7a40.7,40.7,0,0,1-12.2,5.9,43.2,43.2,0,0,1-10.8,2l-9,.7a4.1,4.1,0,0,1-2-1.9,4.9,4.9,0,0,1-.3-2.6c.3-4.3.9-7,1.8-8s2.9-1.3,6.1-1.1c.1-2,.9-3,2.4-2.9l3.4.6c1.7.1,3.6-.7,5.9-2.4a43,43,0,0,0,6.2-5.8c1.8-2.2,2.7-3.5,2.8-4.1l3.4-43.2c1.5-2.9,3.7-7.2,6.4-12.8s4.2-8.7,4.2-9.5-1.1-4.9-3.6-10.3-4.2-10-5.4-13.4a23.8,23.8,0,0,1-1.4-10,73.9,73.9,0,0,1,2.5-12.7,96,96,0,0,0,2.5-12.9q.9-11.4-4.8-16.8a38.5,38.5,0,0,0-14.5-8.7c-3.5-1.3-5.2-2.4-5.2-3.3a6.9,6.9,0,0,1,1.1-2.9,4.8,4.8,0,0,1,2.3-2,16.6,16.6,0,0,1-1.9-3,5.2,5.2,0,0,1-.6-2.9c.2-3,2.1-4.4,5.5-4.1l12.4,2.4a11.6,11.6,0,0,0,2.8,2.3,26.8,26.8,0,0,0,4.3,2.5l-1-2.9a4.3,4.3,0,0,1,2.6,1.3l2.1,1.9-1.1,1.3c4.7,4.8,7.7,9.2,8.9,13.2s1.6,10.3.9,18.8c-1.1,14.4-1,26.3.3,35.9a43.3,43.3,0,0,0,12.5,25.1Zm-52,85.9v-1.1l-5-.4v1.1Zm12.9-3.5a2.4,2.4,0,0,0-2.5-2.8,13.9,13.9,0,0,0-4,1.4c-2.1,1-3.4,2-3.8,3.1a2.4,2.4,0,0,0,1.1,2.3,5,5,0,0,0,2.4.9v-2l6.4-2.4Zm11.1-164.9a12.1,12.1,0,0,0,3.1,3.4c2.8,2.5,4.6,5,5.3,7.5l-.7,6.8c-.2,2.7-.3,5-.3,7s.3,3,1,3.1,1.6-2.6,1.8-5v-4c.4-4.9.2-8-.5-9.2a2.5,2.5,0,0,1,.4-1.1c.3-.4.5-.5.7-.5-1.4-1.1-2.1-2-2-2.8l.4-1.6q.6-7.5-6-10.8a33.2,33.2,0,0,0-13.6-3.9l-7.2-.3a22.5,22.5,0,0,0,7.7,4.4,31.4,31.4,0,0,0,8.6,2,2,2,0,0,1-.2-.9,7.6,7.6,0,0,1,.4-1.1.9.9,0,0,1,.8-.5c.6.1.9.7.8,1.8s-.4,1.4-1.1,1.3l-.5-.3A12.1,12.1,0,0,0,1207.3,196.3Zm-11.9-3.8a2,2,0,0,0-.3-1.1,1.4,1.4,0,0,0-.8-.5c-.5,0-.8.5-.9,1.4s.2,1.4.6,1.5S1195.3,193.4,1195.4,192.5Zm7.6,164.6c1.5-.4,2.2-1.2,2.3-2.3s-.4-2.7-1.7-2.8-2.6.7-3.7,2.5-2.3,2.6-3.7,2.7l2.7.5A10,10,0,0,0,1203,357.1Zm-5-179a3.7,3.7,0,0,0,1.9.7c1.2.1,1.8,0,1.8-.4s-.5-.6-1.7-.7S1198,177.7,1198,178.1Zm5.6,123.4c-.1.7.2,1.1.7,1.1s1.2-.2,1.3-1-.3-1.4-1.1-1.5S1203.7,300.5,1203.6,301.5Zm4.4,44.9a40.2,40.2,0,0,0,1.2-6.5c-2.8-.2-4.4,2.2-4.8,7.4-.1,2,.3,3.2,1.3,3.5S1207.3,349.2,1208,346.4Zm-1.1-14.4a5.7,5.7,0,0,0,.4,2.5,7.4,7.4,0,0,1,.5,2.2l.3-4.6Zm2.7-7.9a1,1,0,0,0-.8-.5c-.5-.1-.8.4-.9,1.3s.2,1.5.7,1.5,1.2-.3,1.3-1.3A1.7,1.7,0,0,0,1209.6,324.1Zm-1.6-6.3a3.1,3.1,0,0,0,1,2.9l.2-2.8Zm2.8,27.7c0-1-.2-1.5-.9-1.5a.8.8,0,0,0-.8.3,1.7,1.7,0,0,0-.3,1q-.1,1.5.9,1.5C1210.3,346.9,1210.7,346.4,1210.8,345.5Zm-.5-31.2c0-.6-.2-.9-.7-.9s-.6.6-.6.8.1.8.5.9S1210.2,314.8,1210.3,314.3Zm-1.2-10.1v2q1.2-.4,2.1-3a24.8,24.8,0,0,0,.9-3.9v-1.5C1210.4,299,1209.3,301.1,1209.1,304.2Zm3-48c1.6,2.9,3.6,4.5,6.1,4.7a12.3,12.3,0,0,0-1-6,5.7,5.7,0,0,0-3.7-3.3,2.9,2.9,0,0,0,2.8-1.6,7.5,7.5,0,0,0,1.3-3.8c.1-.7-.3-2.2-1-4.5a17.9,17.9,0,0,1-1-5,4.6,4.6,0,0,0-3.5,1.2,5.2,5.2,0,0,0-1.8,3.5,4.4,4.4,0,0,0,1.3,2.9,13,13,0,0,1-.8,1.7,8.7,8.7,0,0,0-.7,1.7A14.8,14.8,0,0,0,1212.1,256.2Zm.8-62.6c-.1.5-.4.8-1.1.7a2.5,2.5,0,0,1-1.4-.7c0-.5.5-.8,1.5-.7S1212.9,193.2,1212.9,193.6Zm2.5,33.3a4.3,4.3,0,0,0-1.9.4,2.2,2.2,0,0,0-1,1.7,4.5,4.5,0,0,0,.8,2.5,4.1,4.1,0,0,1,.8,2.7l1.7.2.6-7.1Zm1.7,62.5a39.9,39.9,0,0,0,2.7-4.7l-.2-.6a15.9,15.9,0,0,0-3.8,4.2,12.1,12.1,0,0,0-2.2,5.1v2A41.2,41.2,0,0,1,1217.1,289.4Zm-2-99.4a2.6,2.6,0,0,0-.3,1.1,2,2,0,0,0,.2,1.1.7.7,0,0,0,.7.4c.6.1,1-.4,1.1-1.3s-.2-1.7-.9-1.8A1,1,0,0,0,1215.1,190Zm.3-3.5a3.6,3.6,0,0,1-.2-1,5.6,5.6,0,0,1,.4-1.2.9.9,0,0,1,.8-.5c.6.1.9.7.8,1.8s-.4,1.4-1.1,1.4S1215.5,186.8,1215.4,186.5Zm11.1,91.6c.1-.9-1.4-4-4.4-9.2s-4.8-7.8-5.7-7.9l-.2,3.7,6.4,12.2-.3,4.3C1225,280.3,1226.4,279.2,1226.5,278.1Zm-7.7-75.2q-.1,1.3.9,1.5c.6,0,1-.4,1.1-1.4s-.2-1.7-.9-1.7S1218.9,201.8,1218.8,202.9Zm2.6,85.7c.1-1-.2-1.5-.8-1.5s-1,.4-1.1,1.3.2,1.2.9,1.2S1221.4,289.3,1221.4,288.6Z" transform="translate(-13.1 -6.9)"/></g><g id="bang"><path class="cls-3" d="M40,493.7q-10.7-30.6-16.3-48.1c-3.8-11.7-7.1-23.5-10.1-35.5-.5-2-.6-3.4-.2-4.3a3.3,3.3,0,0,1,2.5-1.8,3.8,3.8,0,0,1,2.6.4,4.2,4.2,0,0,0,2.6.3,6.8,6.8,0,0,1,3.3-2,30.2,30.2,0,0,1,5.5-.5,12.2,12.2,0,0,1,4.3-1.9,7.2,7.2,0,0,1,4.6.3c1.4.6,2.4,2,2.9,4.3,2.4,9.4,4.9,22.7,7.5,40.1s5.1,30.5,7.4,39.6l-.2,3.3c.2.7.8,4.1,1.9,10.1s1.9,10.4,2.7,13.4a3.1,3.1,0,0,1-.5,3.2,11.9,11.9,0,0,1-4.4,1.8l-1.9.5c-2.8.7-4.9.6-6.1-.2ZM20.1,412.5c.6.7,1.1,1,1.4.9s1.9-1.4,1.5-3.3l-4.1,1A12,12,0,0,1,20.1,412.5Zm6.8,21.3c.9,3.9,2.1,6.3,3.5,7.1a14.9,14.9,0,0,1,1.2-4.3,6.8,6.8,0,0,0,1-3.3,5,5,0,0,1-3.3-.1,4,4,0,0,1-1.8-2.8A10.7,10.7,0,0,1,28,425a31.3,31.3,0,0,0,1.1-4.6L25,424.3c-.2.1.2,1.9,1.1,5.6Zm-1.1-18.5,2.8-2.2a10.8,10.8,0,0,0,3.1-3.7L25.5,411l-.4,4.5ZM33.9,457a2.3,2.3,0,0,0,1.7-1.5A7.7,7.7,0,0,0,36,453l-.7.2C33.8,453.5,33.4,454.8,33.9,457Zm1.6-35.3,2.9-.7-1-4.2C35.9,419,35.3,420.6,35.5,421.7Zm.4,20.8c3.5-.9,4.8-3.3,3.8-7.2C37.6,435.8,36.4,438.2,35.9,442.5Zm3.7,28.2c-.2,1,.1,3.1.9,6.4a11.5,11.5,0,0,0,2.9-4.5,9.5,9.5,0,0,0,0-5.3C41.2,468.6,39.9,469.8,39.6,470.7Zm.6-13.9a13.7,13.7,0,0,0,.2,5.7,3.9,3.9,0,0,0,2.9-3.4,12.7,12.7,0,0,0-.1-5.8A4,4,0,0,0,40.2,456.8ZM45.3,480l2.4-.5-.4-1.4Zm1.8,18.4c1.2,5,3,8.3,5.2,9.8a41.2,41.2,0,0,0-1-10.3c-.9-4.1-1.8-7.9-2.7-11.6-2.7.6-3.8,2.2-3.2,4.6Zm11,58.6c-2.3-9.2-2.4-14-.5-14.5a54.1,54.1,0,0,1,9.6-1.7c2.9-.2,5.1.5,6.5,2.1s1.8,4.6,2.6,7.1,1.5,4.1,1.9,4.9a4.2,4.2,0,0,1-.6,2.8,10.5,10.5,0,0,0-.7,2.3l-2.2-.4a5.4,5.4,0,0,0-1.7-.1l-4.4,1.8L64.7,563a4.8,4.8,0,0,1-4-.2c-.9-.5-1.5-1.6-1.9-3.3Zm-.6-12.7a1.6,1.6,0,0,0,.6.8.8.8,0,0,0,.9.2.7.7,0,0,0,.7-.6v-1a2.7,2.7,0,0,0-.6-1,.6.6,0,0,0-.8-.4C57.5,542.5,57.2,543.2,57.5,544.3Zm7.1,9.6a4.8,4.8,0,0,0,2.9-.1l.7-.2q2.7-.6,2.7-2.4c-1.2-1.7-3.3-2.1-6.2-1.4a2.1,2.1,0,0,0-1.5,1.9C63.5,552.9,64,553.7,64.6,553.9Z" transform="translate(-13.1 -6.9)"/></g><g id="brackets"><path class="cls-3" d="M788.5,28.5Q802.4,23,813.1,18a112.9,112.9,0,0,0,19-11.1l2.3,1.2a36,36,0,0,1,7.5,4.9c2.2,1.8,2.9,3.6,2,5.3L824.3,28.5c-9.4,5.1-14.4,8-14.8,8.8l-.3.5c-1.3,2.6-1.6,4.3-.9,4.9l4.3,28.7a21.9,21.9,0,0,1,.2,4.1,6.4,6.4,0,0,1-.9,2.8c-.7,1.4-2.9,1.7-6.5,1a28.5,28.5,0,0,1-8-2.4c-.7-.3-2.3-6.9-5-19.7s-4.1-21.1-4.4-24.8v-.5l.6-.7-1.2-.7Zm8.4,2.5a5.9,5.9,0,0,0-3.5,3l2.4,1.3a9.2,9.2,0,0,0,4,1.4,2.2,2.2,0,0,0,2.6-1.1,4.4,4.4,0,0,0,.6-2.3,2.6,2.6,0,0,0-1.2-2.1A5.6,5.6,0,0,0,796.9,31Zm-3.3,8.1a7.9,7.9,0,0,0,3.6,1.1,10.6,10.6,0,0,0,3.6-1.3A7.4,7.4,0,0,0,793.6,39.1Zm2.3,8a6.9,6.9,0,0,0,3.9.8,3.7,3.7,0,0,0,2.9-2,12.1,12.1,0,0,0,1-2.3,6.8,6.8,0,0,0-.2-2.3,16.1,16.1,0,0,1-2.9-.1,7,7,0,0,0-4.2.6l4.4,2.2A5.7,5.7,0,0,0,795.9,47.1Zm5,7.5-.7-.3A3.2,3.2,0,0,0,797,54l.7,1.8Zm-1,12q.3,1.1.6,2.4a3.6,3.6,0,0,0,.4,1.6h5.4L803,69a3.5,3.5,0,0,0,1.4-1.1,5.7,5.7,0,0,0,1.3-1.6,18.4,18.4,0,0,0-.7-4.8,23,23,0,0,0-1.3-4.2,7.4,7.4,0,0,0-5.7-.1c-.2,1,.5,1.8,2,2.6a5.5,5.5,0,0,0,1.9.7l-3.2,1A39.3,39.3,0,0,1,799.9,66.6Zm.5-17-1.8,1.3,1.1.8a8.2,8.2,0,0,0,2.5.7,1.6,1.6,0,0,0,1.7-.7,1.9,1.9,0,0,0,0-1.5,1.7,1.7,0,0,0-.8-1.1A2.3,2.3,0,0,0,800.4,49.6ZM807,27.7a7.2,7.2,0,0,0-3.2,3l2,1,5.9-3.4-.5-.4A4.8,4.8,0,0,0,807,27.7Zm13.5-7.5a34.6,34.6,0,0,0-6.6,3.8q2.4,1.3,6.9,0c3-.8,4.8-1.8,5.4-2.9l.6-1.2Q824.1,18.6,820.5,20.2Zm10.6-6.1L828.8,16c-.1.1,0,.2.1.2a3.5,3.5,0,0,0,1.9.1,3.7,3.7,0,0,0,2.3-1l-.6-1.5Z" transform="translate(-13.1 -6.9)"/><path class="cls-3" d="M906.1,90.3a2.3,2.3,0,0,1-1.5,1.1l-3.3.3c-3.2,2.1-10.4,5.7-21.6,10.9s-17.1,7.6-17.8,7.3a36.8,36.8,0,0,1-6.6-5.1c-2.7-2.5-3.7-4.5-3-5.9a8.3,8.3,0,0,1,1.8-2.4,29.3,29.3,0,0,1,3.4-2.2L883.3,81q1.4.3,3-3l.4-.8a7.1,7.1,0,0,0,.5-3.9c-.3-3-.9-7.9-2-14.7l-1.9-14.8a19.7,19.7,0,0,1-1.5-3.5,3.4,3.4,0,0,1,.4-2.5c.8-1.7,2.7-2.2,5.5-1.5a41,41,0,0,1,8.3,3.3l2.3,1.1a122.8,122.8,0,0,0,2.1,22c1.5,7.6,3.5,16.3,6,26Zm-31.8,7.4c1.5.8,2.6.8,3.2.1a7,7,0,0,0-3.4-4.5c-.2-.1-1.6.4-4.1,1.4a19.9,19.9,0,0,0-4.4,2.2,8.3,8.3,0,0,0-.5,2,3.9,3.9,0,0,0-.1,1.8L861.7,99l3.3,4.3c.1.1.6-.1,1.5-.5l2.4-1a29.2,29.2,0,0,1,4.8-2l-1.1-3.2A4.8,4.8,0,0,0,874.3,97.7Zm4.3-3.4-.7-.3,1,3.3,1.8-.6Q880.6,95.4,878.6,94.3Zm1.1-5.3c-.6.2-1,.4-1.1.8a1.5,1.5,0,0,0,.4,1.8,7.4,7.4,0,0,0,2,1.6l1.3.4a6.3,6.3,0,0,1,0-2.1,2.3,2.3,0,0,0-1.1-2.5A1.9,1.9,0,0,0,879.7,89Zm9.3-2.7a24.1,24.1,0,0,1-1.8-2.2,3.2,3.2,0,0,0-1.9,1.1,7.8,7.8,0,0,0-1.3,2.2,3.4,3.4,0,0,0,.1,3.5,6.6,6.6,0,0,0,2.8,2.7,5.5,5.5,0,0,0-.3-5.8l4.4,2.3A7.4,7.4,0,0,0,889,86.3Zm2-26.4c1.1,2.9,2.5,4.8,4.1,5.6a34.1,34.1,0,0,0-.7-7.6c-.6-2.6-1.7-4.4-3.5-5.3l-.6,1.2C889.7,55,890,57,891,59.9Zm-.3-13.8a8.6,8.6,0,0,1,.7,1.2,5.4,5.4,0,0,0,1.2,1.5h.3a10.4,10.4,0,0,0-.4-4.3l-1.6.5A11.3,11.3,0,0,1,890.7,46.1Zm1.1,42.4a8.8,8.8,0,0,0,3,2.3,7.5,7.5,0,0,0-4-6A7.8,7.8,0,0,0,891.8,88.5Zm2.2-8.7a5.5,5.5,0,0,0-1.6,1.8q-.9,1.7.9,3a22.5,22.5,0,0,0,3.5,2.2l2.3,1.2a6.8,6.8,0,0,0,.4-4.7,5.9,5.9,0,0,0-3.1-3.8A2.5,2.5,0,0,0,894,79.8Zm-1.1-10,.7,6.8,2,1a6.4,6.4,0,0,0,.5-4.3,4.6,4.6,0,0,0-2.6-3.4Z" transform="translate(-13.1 -6.9)"/></g></g></svg>