<svg id="Layer_1" data-name="Layer 1" xmlns="http://www.w3.org/2000/svg" viewBox="0 0 139.7 139.7"><title>leaf</title><path d="M136.1,81.7a41.9,41.9,0,0,0-24.2-11.9l4.3-4.2A86.4,86.4,0,0,0,141.6,4.3,2.3,2.3,0,0,0,139.2,2,85.8,85.8,0,0,0,78,27.4l-4.3,4.2A41,41,0,0,0,61.8,7.4L57.1,2.7a2.4,2.4,0,0,0-3.3,0L49,7.4A41.3,41.3,0,0,0,36.8,36.9V48A49.9,49.9,0,0,0,5.4,36.9H4.2a2.3,2.3,0,0,0-2.3,2.3V51.3A46.2,46.2,0,0,0,36.8,96.1L5.4,123.6a10.1,10.1,0,0,0-3.2,10.2,10.3,10.3,0,0,0,7.5,7.6A10.5,10.5,0,0,0,20,138.2l27.5-31.5a46,46,0,0,0,44.7,35h14.4a2.4,2.4,0,0,0,2.4-2.3v-1.2a49.5,49.5,0,0,0-11.1-31.4h8.7a41.4,41.4,0,0,0,29.5-12.3l4.8-4.7a2.4,2.4,0,0,0,0-3.3ZM16.5,135.1a5.8,5.8,0,0,1-5.7,1.8,5.8,5.8,0,0,1-4.1-4.2,5.6,5.6,0,0,1,1.8-5.6l34.2-30,3.4.3.3,3.4ZM132.8,91.3a37,37,0,0,1-26.2,10.8H92.7a2.5,2.5,0,0,0-2.2,1.4,2.7,2.7,0,0,0,.5,2.6A45,45,0,0,1,104.3,137H92.2A41.3,41.3,0,0,1,50.8,96l4.6-4.6,26.3,26.3,3.3-3.3L61,90.5h52.6V85.8H61l49.6-49.6-3.3-3.3L57.7,82.5V29.9H53.1V82.5l-24-24-3.3,3.3L52.1,88.1l-4.6,4.7a41.6,41.6,0,0,1-41-41.5V41.6a45.2,45.2,0,0,1,31,13.2,2.3,2.3,0,0,0,2.5.6,2.4,2.4,0,0,0,1.4-2.2V36.9A37,37,0,0,1,52.3,10.7l3.1-3.1,3.1,3.1A37,37,0,0,1,69.4,36.9a2.4,2.4,0,0,0,1.4,2.2,2.7,2.7,0,0,0,2.6-.5l7.9-8A81.1,81.1,0,0,1,136.9,6.7a82,82,0,0,1-24,55.6L105,70.2a2.2,2.2,0,0,0-.5,2.5,2.3,2.3,0,0,0,2.1,1.5A36.2,36.2,0,0,1,132.8,85l3.1,3.1Z" transform="translate(-1.9 -2)" fill="#8c181b"/></svg>