<svg id="learning" xmlns="http://www.w3.org/2000/svg" viewBox="0 0 560 288">
  <title>learning</title>
  <rect id="backdrop" width="560" height="288" fill="#2d2d2d"/>
  <path id="star" d="M249.15,148.46s-1.66-4.75-2.79-5.88-6.14-3.06-6.14-3.06,4.6-1.26,5.95-2.71c1.2-1.28,3-6.22,3-6.22s2,5,3.33,6.35,5.6,2.58,5.6,2.58-5,1.55-6.1,2.66S249.15,148.46,249.15,148.46Z" transform="translate(0 0)" fill="#f6ca50"/>
  <path id="star-2" data-name="star" d="M302.06,226.32s-1.67-4.76-2.8-5.89-6.16-3.07-6.16-3.07,4.62-1.26,6-2.71c1.2-1.29,3-6.24,3-6.24s2,5,3.33,6.37,5.62,2.58,5.62,2.58-5,1.56-6.12,2.67S302.06,226.32,302.06,226.32Z" transform="translate(0 0)" fill="#f6ca50"/>
  <path id="star-3" data-name="star" d="M349.82,68s-1.25-3.59-2.1-4.44-4.64-2.31-4.64-2.31,3.48-1,4.49-2,2.25-4.71,2.25-4.71,1.5,3.76,2.52,4.8,4.23,2,4.23,2-3.77,1.17-4.61,2S349.82,68,349.82,68Z" transform="translate(0 0)" fill="#f6ca50"/>
  <path id="star-4" data-name="star" d="M144.15,219.19s-1.26-3.61-2.12-4.47-4.67-2.32-4.67-2.32,3.5-1,4.52-2.06,2.27-4.73,2.27-4.73,1.51,3.78,2.53,4.83,4.26,2,4.26,2-3.8,1.18-4.64,2S144.15,219.19,144.15,219.19Z" transform="translate(0 0)" fill="#f6ca50"/>
  <path id="star-5" data-name="star" d="M400.41,258.76a14.36,14.36,0,0,0-1.61-3.37,17.35,17.35,0,0,0-3.52-1.76s2.64-.73,3.42-1.55a16.76,16.76,0,0,0,1.71-3.58,17.3,17.3,0,0,0,1.91,3.65,10,10,0,0,0,3.22,1.48,14.43,14.43,0,0,0-3.51,1.53A15.83,15.83,0,0,0,400.41,258.76Z" transform="translate(0 0)" fill="#f6ca50"/>
  <path id="star-6" data-name="star" d="M416.06,114.51s-1.41-4-2.37-5-5.21-2.6-5.21-2.6,3.91-1.07,5-2.3,2.53-5.28,2.53-5.28,1.69,4.22,2.83,5.39,4.75,2.19,4.75,2.19-4.24,1.32-5.18,2.26S416.06,114.51,416.06,114.51Z" transform="translate(0 0)" fill="#f6ca50"/>
  <path id="star-7" data-name="star" d="M105.2,47.48s-1.29-3.7-2.18-4.58-4.78-2.38-4.78-2.38,3.59-1,4.63-2.11,2.33-4.85,2.33-4.85,1.54,3.88,2.59,4.95,4.37,2,4.37,2-3.9,1.21-4.76,2.07S105.2,47.48,105.2,47.48Z" transform="translate(0 0)" fill="#f6ca50"/>
  <path id="star-8" data-name="star" d="M67.39,224.59a14.81,14.81,0,0,0-1.61-3.38,17.74,17.74,0,0,0-3.52-1.75s2.64-.73,3.41-1.56a16.9,16.9,0,0,0,1.72-3.57A16.82,16.82,0,0,0,69.3,218a9.72,9.72,0,0,0,3.21,1.49A14.52,14.52,0,0,0,69,221,15.61,15.61,0,0,0,67.39,224.59Z" transform="translate(0 0)" fill="#f6ca50"/>
  <path id="star-9" data-name="star" d="M429.5,33.26a14.78,14.78,0,0,0-1.61-3.37,17.35,17.35,0,0,0-3.52-1.76s2.64-.73,3.41-1.55A16.92,16.92,0,0,0,429.5,23a17.3,17.3,0,0,0,1.91,3.65,9.88,9.88,0,0,0,3.22,1.48,14.43,14.43,0,0,0-3.51,1.53A15.39,15.39,0,0,0,429.5,33.26Z" transform="translate(0 0)" fill="#f6ca50"/>
  <path id="star-10" data-name="star" d="M207.84,267.32a14.78,14.78,0,0,0-1.61-3.37,17.35,17.35,0,0,0-3.52-1.76s2.64-.73,3.41-1.55a16.92,16.92,0,0,0,1.72-3.58,17.3,17.3,0,0,0,1.91,3.65,9.88,9.88,0,0,0,3.22,1.48,14.27,14.27,0,0,0-3.51,1.53A15.39,15.39,0,0,0,207.84,267.32Z" transform="translate(0 0)" fill="#f6ca50"/>
  <path id="star-11" data-name="star" d="M499.71,148.48a14.65,14.65,0,0,0-1.6-3.37,18.2,18.2,0,0,0-3.53-1.76s2.65-.72,3.42-1.55a16.76,16.76,0,0,0,1.71-3.58,17.3,17.3,0,0,0,1.91,3.65,10,10,0,0,0,3.22,1.48,14.43,14.43,0,0,0-3.51,1.53A16,16,0,0,0,499.71,148.48Z" transform="translate(0 0)" fill="#f6ca50"/>
  <path id="star-12" data-name="star" d="M527.59,244.9s-2.19-6.24-3.68-7.74-8.08-4-8.08-4,6.06-1.67,7.83-3.57c1.58-1.69,3.93-8.19,3.93-8.19s2.61,6.55,4.39,8.36,7.37,3.4,7.37,3.4-6.58,2-8,3.5S527.59,244.9,527.59,244.9Z" transform="translate(0 0)" fill="#f6ca50"/>
  <path id="star-13" data-name="star" d="M32.62,98.35A14.67,14.67,0,0,0,31,95a18,18,0,0,0-3.53-1.75s2.65-.73,3.42-1.56a16.74,16.74,0,0,0,1.71-3.57,17.3,17.3,0,0,0,1.91,3.65,10,10,0,0,0,3.22,1.48,14.72,14.72,0,0,0-3.51,1.52A16.05,16.05,0,0,0,32.62,98.35Z" transform="translate(0 0)" fill="#f6ca50"/>
  <path id="star-14" data-name="star" d="M371.16,179.26a14.65,14.65,0,0,0-1.6-3.37,17.38,17.38,0,0,0-3.53-1.76s2.65-.73,3.42-1.55a16.76,16.76,0,0,0,1.71-3.58,17,17,0,0,0,1.92,3.65,9.86,9.86,0,0,0,3.21,1.48,14.23,14.23,0,0,0-3.5,1.53A15.51,15.51,0,0,0,371.16,179.26Z" transform="translate(0 0)" fill="#f6ca50"/>
  <path id="star-15" data-name="star" d="M199.92,24.7a14.65,14.65,0,0,0-1.6-3.37,17.63,17.63,0,0,0-3.53-1.76s2.65-.73,3.42-1.55a16.76,16.76,0,0,0,1.71-3.58,17.3,17.3,0,0,0,1.91,3.65,10,10,0,0,0,3.22,1.48,14.43,14.43,0,0,0-3.51,1.53A15.83,15.83,0,0,0,199.92,24.7Z" transform="translate(0 0)" fill="#f6ca50"/>
  <g>
    <path d="M137.4,174.65l0-1.65v-2.44c0-3.52-.16-8.35-.49-14.46s-.5-11-.5-14.52q0-7.72-.5-21.35-.56-15-.55-21.34a1,1,0,0,1,.45-.88,1.79,1.79,0,0,1,1-.32c1.19,0,1.79.48,1.79,1.45q0,18.45.4,28.33l.5,18.3q0,3.84.55,14,.54,9.62.6,12.72c0,.13.1.23.3.29a8.25,8.25,0,0,0,1.39.05h6.29c.93,0,1.39.62,1.39,1.85a2.67,2.67,0,0,1-.35,1.4,1,1,0,0,1-.89.59l-.7.05a5.32,5.32,0,0,1-.85.05c-1.43,0-4.17,0-8.23,0a1.44,1.44,0,0,1-1.22-.62A2.42,2.42,0,0,1,137.4,174.65Z" transform="translate(0 0)" fill="#fff"/>
    <path d="M165.09,172.8l-.35-.4a12,12,0,0,0,.74-4.19q0-1.74-.24-6.73c-.17-3.32-.25-5.57-.25-6.73q0-5.79.35-15.36t.34-15.42c0-1.66-.06-3.7-.2-6.13s-.19-4.42-.19-6.09a2.49,2.49,0,0,1,2.94-2.89,2,2,0,0,1,1.64.65c.44.1,1.43.23,3,.4a24.44,24.44,0,0,1,4.44.9c1.26.4,1.89.91,1.89,1.54s-.63,1.32-1.89,2.05a34.11,34.11,0,0,0-8.28-2l-.5.6c.06,1.27.1,2.73.1,4.39q0,3.19-.2,7.93c-.14,3.16-.2,5.8-.2,7.93,0,1.9.48,2.84,1.44,2.84l1.7-.1,1.75-.1c2.62,0,3.95.62,4,1.85a3.18,3.18,0,0,1-.55,1.87,1.74,1.74,0,0,1-1.5.77,2.88,2.88,0,0,1-2.34-.79l-3.34-.5h-.45l-.5.5v.3q.19,2.34.2,8.08l-.1,7.23-.1,7.28q0,4,.3,8.13a4.54,4.54,0,0,0,1,3.12,5.35,5.35,0,0,0,3.35.77l1.84-.1,1.95-.1c2,0,3,.45,3,1.35q0,1.85-4.44,1.84H167c-1.26,0-1.94-.71-2-2.14,0-.47,0-.9,0-1.3S165.09,173.27,165.09,172.8Z" transform="translate(0 0)" fill="#fff"/>
    <path d="M200.8,160.48a1,1,0,0,0-.5.1,1.12,1.12,0,0,0-.25.55.21.21,0,0,1-.05.15l-.2,2.05q-.26,2.59-1.15,7.33a28.78,28.78,0,0,1-1.19,4.29c-.5,1.16-1,1.74-1.55,1.74a2.18,2.18,0,0,1-1.35-.57,1.59,1.59,0,0,1-.7-1.17l.1-.3.1-.3q1.69-6.54,3.1-14.41l1.14-6.34c.24-1.23.47-2.61.7-4.14l.6-3.59,1.1-6.73c.3-1.9.9-4.87,1.79-8.93s1.47-7.32,1.8-9.48l.4-3.74.2-1.64c.16-1.83.33-3.21.5-4.14a14.65,14.65,0,0,1,.64-3l.7,0a3.65,3.65,0,0,0,.7.05,2.57,2.57,0,0,0,1.85-.59,2,2,0,0,1,1.27.44,1.36,1.36,0,0,1,.57,1.1q0,2.9.18,5.31t.57,5.91l.6,5.39q1.25,14.42,5.68,49.48v.3a1.58,1.58,0,0,1-.79,1.49,6.8,6.8,0,0,1-1.55-.12,1,1,0,0,1-.65-.58,6.32,6.32,0,0,1-.35-1.54l-1.69-13.37a20.24,20.24,0,0,0-5-.5c-.77,0-2-.08-3.74-.25S201.43,160.48,200.8,160.48Zm.1-3c0,.33,1.31.63,3.94.9a67.3,67.3,0,0,0,6.78.4h1q-.75-10.73-3.89-43.44-5.29,26.28-5.54,27.28Q200.9,154.21,200.9,157.44Z" transform="translate(0 0)" fill="#fff"/>
    <path d="M250.52,177.94l-1.49-.5q-1.2-1.35-2.62-7.06t-2.62-12.89q-1-6-2.34-11.52c-.84-3.42-1.62-5.14-2.35-5.14h-.4c-1.49,0-2.24.48-2.24,1.45q0,5.53.9,22.39.34,9,.84,10.73l-.74,1.69H236l-.75-.8q-1.65-44.23-1.64-64.34a11.11,11.11,0,0,1,.12-1.89,3.1,3.1,0,0,1,.62-1.3,1.83,1.83,0,0,1,1.5-.7,12.68,12.68,0,0,1,8.3,2.6,8.91,8.91,0,0,1,3.17,7.33v7.43a15.33,15.33,0,0,1-1.22,5.09,57.75,57.75,0,0,1-2.77,6.13,22.87,22.87,0,0,0-1.34,2.6q0,.34,3.89,16.31T250,172.3a2.73,2.73,0,0,0,.15.38c.1.22.34.67.7,1.37a5.9,5.9,0,0,1,.8,2.44C251.67,177.46,251.29,177.94,250.52,177.94Zm-13.66-39.85.2.2a4.44,4.44,0,0,0,3.46-2,13.32,13.32,0,0,0,2.37-5,49.35,49.35,0,0,0,1.22-5.49,28,28,0,0,0,.43-4.44,27.72,27.72,0,0,0-.23-3.89,17.11,17.11,0,0,0-.82-3.24,5.2,5.2,0,0,0-2.12-2.67,6.92,6.92,0,0,0-3.71-.92c-.37,0-.66.29-.88.87a5.17,5.17,0,0,0-.32,1.77q0,5,.2,12.37T236.86,138.09Z" transform="translate(0 0)" fill="#fff"/>
    <path d="M284.69,155.35a68.69,68.69,0,0,1-2.74-7.63q-9.18-28.49-11.58-30.78a28.65,28.65,0,0,0-.79,7.18l.1,4,.1,4-.1,2.5-.1,2.44c0,1.1.06,2.38.2,3.84l.2,3.29h-.3q0,17,.69,18.81v9.18a4.39,4.39,0,0,1,.4,2.14,2.13,2.13,0,0,1-.52,1.42,1.69,1.69,0,0,1-1.37.62c-1.43,0-2.15-1.82-2.15-5.48,0-.9.07-2,.2-3.34a31.54,31.54,0,0,0,.2-3.35q0-4.93-.3-14.71-.34-9.07-.35-14.66c0-2.3.12-5.32.35-9.08.2-4.06.3-7.06.3-9v-1.29q0-5,1.85-6.59l.3.35,1-.25a2.88,2.88,0,0,1,1,.65,3.43,3.43,0,0,1,.45.9l.15.6.1.55q1.74,7.32,7.33,20.29,5.44,12.63,7.28,18.31c.44,1.43,1,3.52,1.65,6.28a77.89,77.89,0,0,0,2.07,7.71,30.11,30.11,0,0,0,2.52,5.71l.2-.3q2.34-22.54,2.34-55.66l-.1-1.25-.1-1.29c0-1.43.48-2.15,1.45-2.15a1.93,1.93,0,0,1,1.6.92,3.46,3.46,0,0,1,.64,2v6.84l-.55.84q0,5.59-.54,19t-1.3,24.54q-.75,11.17-1.4,12.47c-.36.06-.94.21-1.74.44v0l0,0a6.15,6.15,0,0,1-1.1.25A1.28,1.28,0,0,1,291,176a5.5,5.5,0,0,1-.64-1.82,5.06,5.06,0,0,0-.45-1.45l.1-.3a63.94,63.94,0,0,0-3.4-11.72Q285.18,156.9,284.69,155.35Z" transform="translate(0 0)" fill="#fff"/>
    <path d="M322.4,175.2a5.17,5.17,0,0,0-.85.05,7.62,7.62,0,0,1-.85.05q-2.19,0-2.79-1.05a1.25,1.25,0,0,1,.15-.65,2.13,2.13,0,0,1,.59-.55l.6-.55h2.95l.39-.39a5.43,5.43,0,0,1,.2-1,8.15,8.15,0,0,0,.15-1.2c0-2.83-.11-6.55-.35-11.17-.26-5.25-.39-9-.39-11.17s.08-6.06.25-12,.24-9.85.24-11.88A115.61,115.61,0,0,0,322.2,112a11.22,11.22,0,0,0-3.05-.29l-1.19.09-1.25.1q-1.95,0-1.95-1.74c0-.27.3-.54.9-.82a3.68,3.68,0,0,1,1.55-.43c2.23,0,4.8.14,7.73.4a17.39,17.39,0,0,1,4.69.95c1.19.43,1.79,1,1.79,1.74a2.58,2.58,0,0,1-.25.8l-2.34.2a5.15,5.15,0,0,0-2.94-.6l-.5.3a26.47,26.47,0,0,1,.3,5.44q0,4-.15,12.12t-.15,12.17c0,2.83.11,6.55.35,11.17s.35,8.4.35,11.22l0,1.3c0,.5-.05,1.11-.05,1.85a7.31,7.31,0,0,0,.3,2.84l-.1.25c0,.66.74,1,2.24,1,.57,0,1.06,0,1.5,0s.93-.05,1.49-.05c2,0,3.05.48,3.05,1.44a1.88,1.88,0,0,1-.65,1.47,2.32,2.32,0,0,1-1.6.58,9,9,0,0,1-1.69-.2,13.61,13.61,0,0,0-1.7-.15,4.87,4.87,0,0,0-1.9.55,4,4,0,0,1-1.74.6C323.59,176.2,322.66,175.86,322.4,175.2Z" transform="translate(0 0)" fill="#fff"/>
    <path d="M369.48,155.35a68.69,68.69,0,0,1-2.74-7.63q-9.18-28.49-11.58-30.78a28.65,28.65,0,0,0-.79,7.18l.1,4,.1,4-.1,2.5-.1,2.44c0,1.1.06,2.38.2,3.84l.19,3.29h-.29q0,17,.69,18.81v9.18a4.39,4.39,0,0,1,.4,2.14,2.13,2.13,0,0,1-.52,1.42,1.69,1.69,0,0,1-1.37.62c-1.43,0-2.15-1.82-2.15-5.48,0-.9.07-2,.2-3.34s.2-2.41.2-3.35q0-4.93-.3-14.71-.35-9.07-.35-14.66c0-2.3.12-5.32.35-9.08.2-4.06.3-7.06.3-9v-1.29q0-5,1.85-6.59l.3.35,1-.25a2.88,2.88,0,0,1,.95.65,3.43,3.43,0,0,1,.45.9l.15.6.1.55Q358.45,119,364,132q5.44,12.63,7.28,18.31c.44,1.43,1,3.52,1.65,6.28a75.22,75.22,0,0,0,2.07,7.71,30.11,30.11,0,0,0,2.52,5.71l.2-.3q2.34-22.54,2.34-55.66l-.1-1.25-.1-1.29c0-1.43.48-2.15,1.45-2.15a1.93,1.93,0,0,1,1.6.92,3.46,3.46,0,0,1,.64,2v6.84l-.55.84q0,5.59-.54,19t-1.3,24.54q-.75,11.17-1.4,12.47c-.36.06-.94.21-1.74.44v0l-.05,0a6.15,6.15,0,0,1-1.1.25,1.28,1.28,0,0,1-1.15-.62,5.71,5.71,0,0,1-.65-1.82,4.82,4.82,0,0,0-.44-1.45l.1-.3a63.94,63.94,0,0,0-3.4-11.72Q370,156.9,369.48,155.35Z" transform="translate(0 0)" fill="#fff"/>
    <path d="M400,145.12q0-3,.5-8l.55-6.38.1-1.4a91.47,91.47,0,0,1,1.2-10.72,14.64,14.64,0,0,1,3-6.69c1.53-1.86,3.84-3,6.93-3.29.67-.06,1.2-.1,1.6-.1,2.09,0,3.14.49,3.14,1.45a1.32,1.32,0,0,1-.65,1.1,2.4,2.4,0,0,1-1.4.45l-.94-.1-1-.1a4.73,4.73,0,0,0-3.07,1.12,8.32,8.32,0,0,0-2.27,3.22,36.82,36.82,0,0,0-1.72,4.68,38.12,38.12,0,0,0-1.07,5.34c-.3,2.29-.52,4.25-.67,5.86s-.26,3.4-.33,5.36c-.1,2.8-.15,5.42-.15,7.88a68.14,68.14,0,0,0,.3,7.48,7.91,7.91,0,0,1,.95,3.27q.25,2.18.55,6.46a28.6,28.6,0,0,0,.9,6.06,8.18,8.18,0,0,0,2.54,4.12,8.35,8.35,0,0,0,5.59,1.74,3.93,3.93,0,0,0,2.49-.85,5.8,5.8,0,0,0,1.75-2.39,28.63,28.63,0,0,0,1.09-3.39,21.54,21.54,0,0,0,.55-3.74q.26-3.95.25-7.78v-5.64a5,5,0,0,0-3.59-1l-.8,0a9.15,9.15,0,0,1-1.14.05c-1.63,0-2.45-.4-2.45-1.19,0-1.17.82-1.75,2.45-1.75,1.42,0,3.15.08,5.18.25a14.64,14.64,0,0,1,3,.65q1.2.45,1.2,1.14a21.17,21.17,0,0,1-.55,3.8,18.27,18.27,0,0,0-.6,3.84q0,3.18.2,7.83c.14,3.09.2,5.7.2,7.83q-5.28,5.28-10.42,5.28-4.69,0-6.93-1.12a7.12,7.12,0,0,1-3.35-4.31,54.69,54.69,0,0,1-1.94-10.33A135.83,135.83,0,0,1,400,145.12Z" transform="translate(0 0)" fill="#fff"/>
  </g>
  <g id="rocket">
    <path d="M147.44,98.94a113.88,113.88,0,0,0-29.1-19.11c13.59-8.28,25.85-7.19,25.85-7.19S148.34,86.64,147.44,98.94Z" transform="translate(0 0)" fill="#e22627"/>
    <path d="M85.13,143.35l-2.55,3.38s4.11,6.79,17.06,11.53l3.32-4.74Z" transform="translate(0 0)" fill="#e22627"/>
    <path d="M91,119.72s-7.89-3.64-14.53.94-9.48,11.85-7.26,25.44c0,0,4.26-11.22,12-12S91,136.62,91,136.62Z" transform="translate(0 0)" fill="#e22627"/>
    <path d="M121.35,139.21s6.9,5.48,5.18,13.57-7.67,14-22,18.19c0,0,9.24-9,6.77-16.34s-6.6-7.71-6.6-7.71Z" transform="translate(0 0)" fill="#e22627"/>
    <path d="M147.44,98.94a29.28,29.28,0,0,1-2.14,9.56c-5.69,13-19.28,27.17-19.28,27.17l-13.65,12.06-8,7.06c-15.8-3-21-14.22-21-14.22s1.52-3.1,3.81-9.45c1.1-3.05,2.39-6.84,3.77-11.4,4.27-14.06,13.27-31.12,27-39.66l.37-.23a113.88,113.88,0,0,1,29.1,19.11Z" transform="translate(0 0)" fill="#00b8c4"/>
    <circle cx="121.78" cy="106.15" r="12.93" fill="#cfedfc" stroke="#e22627" stroke-miterlimit="10" stroke-width="5"/>
  </g>
  <g id="fire">
    <path d="M91.52,168c-1.67,4.29-18.38,11.82-18.38,11.82s-.27-14.14,1.4-18.43,6.82-6.28,11.51-4.45S93.19,163.67,91.52,168Z" transform="translate(0 0)" fill="#fbb61f"/>
    <path d="M88.54,167.52c-1.28,3.29-13.61,9.24-13.61,9.24s0-10.76,1.27-14a6.63,6.63,0,0,1,12.34,4.8Z" transform="translate(0 0)" fill="#e59007"/>
  </g>
</svg>
