<svg id="Layer_1" data-name="Layer 1" xmlns="http://www.w3.org/2000/svg" width="4.78in" height="2.87in" viewBox="0 0 343.91 206.52">
  <title>uses</title>
  <g>
    <path d="M88.79,26.25c.63,0,.95.25.95.76a.67.67,0,0,0,.76.76l.58-.19q.38,9.15.57,17.14T91.84,60q0,7.24-.1,13.62c-.06,4.26-.09,8.28-.09,12.09,0,.51-.07.8-.19.86s-.23.26-.29.57S91,88,90.89,88.8a32.17,32.17,0,0,0-.19,4.29c0,1.4.19,2.16.57,2.29q-.76,5.7-1,11.42c-.19,3.81-.45,7.56-.76,11.24a106,106,0,0,1-1.53,11,48.86,48.86,0,0,1-3.33,10.56l-.38.2a2.77,2.77,0,0,0-1.71,2.18,3.34,3.34,0,0,1-1.72,2.39c0,.12.13.19.38.19a1.09,1.09,0,0,1,.77-.38c.25,0,.38.06.38.19a4.15,4.15,0,0,1-1.24,2.85,17.79,17.79,0,0,1-3,2.57,33.58,33.58,0,0,1-3.9,2.29c-1.4.7-2.61,1.36-3.62,2a68.79,68.79,0,0,1-9.05,2,64.49,64.49,0,0,1-9.42.66,104.11,104.11,0,0,1-15.43-1.14A29.28,29.28,0,0,1,23,149.84q-6-4.58-9.71-13.52T9.57,111.75c0-3.55.06-7.11.19-10.66S10,93.92,10,90.23V84.52a9.42,9.42,0,0,0-.19-1.9c.26-3.3.45-6.64.57-10s.19-6.76.19-10.19q0-2.85-.09-5.52c-.07-1.78-.13-3.72-.19-5.81s-.13-4.48-.19-7.14-.1-5.84-.1-9.52V32.15a18,18,0,0,1,.19-2.57,15.24,15.24,0,0,0,.19-2.38,1.41,1.41,0,0,0-.09-.57,1.24,1.24,0,0,1-.1-.57v-.38c1,.13,2.1.28,3.24.47a19.77,19.77,0,0,0,3.24.29,8.53,8.53,0,0,0,2.66-.38,8,8,0,0,1,2.48-.38,22.14,22.14,0,0,1,3.62.28,22,22,0,0,0,3.62.29,7.74,7.74,0,0,0,3.8-.76,2.79,2.79,0,0,0,2.1.57,3.22,3.22,0,0,1,2.09.38q-.37,5.15-.57,11t-.19,15.9q0,10.1.38,25.61t1.15,32.47a25.73,25.73,0,0,0,.76,5.9,21.26,21.26,0,0,0,2.38,6A16,16,0,0,0,45,127.94a9.4,9.4,0,0,0,5.91,1.9,6.35,6.35,0,0,0,3.61-1.33l1.34-1.14.19.76a4.26,4.26,0,0,0,3.61-2.86c.64-1.65,1.27-3.11,1.91-4.38l.76-2.66q.57-10.86.57-20,0-6.86-.09-12t-.1-10.47q0-7.23.1-14.09t.85-13.52l-.38-20c0-.5.19-.76.57-.76H65c.38,0,.69-.31,1-.95A38.63,38.63,0,0,0,73,27c2.54,0,5.18-.09,7.91-.29S86.25,26.38,88.79,26.25Zm1.52,37.51.19-20c0-2.67-.12-5.4-.38-8.19A43.34,43.34,0,0,0,88.79,28c-1.65-.12-3.49-.22-5.52-.28s-4-.1-5.91-.1H74.22a13.08,13.08,0,0,0-2.38.19,2.19,2.19,0,0,1-.66-.09,2,2,0,0,0-.67-.1,6.69,6.69,0,0,0-3.81,1.53,22.82,22.82,0,0,1,.38,4.38q0,3-.19,7.52c-.13,3-.28,6.22-.47,9.71s-.42,7.11-.67,10.85-.45,7.4-.57,10.95v5a8.67,8.67,0,0,0,.19,1.72v3.24q0,4.95.28,10.18t.29,10.57a76.69,76.69,0,0,1-1.14,13.33A35.41,35.41,0,0,1,60,128.89l-.58-.57a10.37,10.37,0,0,1-7.8,3.43,18.56,18.56,0,0,1-5.53-1.34c-1.39-.63-2.09-1-2.09-1.14a.6.6,0,0,1,.38.19.53.53,0,0,0,.38-.19q-1.71-1.52-3.43-3.14a12.53,12.53,0,0,1-2.66-3.52,2.8,2.8,0,0,1-.76-1.43q-.2-.86-.39-1.62a3.91,3.91,0,0,0-.57-1.33,1.71,1.71,0,0,0-1.52-.57l.38-.58V91l-1.71-.58q-.57-4.76-.86-10.57T33,69.67a17.32,17.32,0,0,1,.58-4.57,17.39,17.39,0,0,0,.57-4.57V58.81c0-.12-.13-.69-.38-1.71.12-.89.22-1.75.28-2.57s.1-1.68.1-2.57V46.62c0-3-.07-6.12-.19-9.23s-.32-6.19-.57-9.24h-.77c-1.27.26-2.28.48-3,.67a7.94,7.94,0,0,1-1.72.29,11.44,11.44,0,0,1-2.57-.29,10.59,10.59,0,0,0-2.38-.29,3.21,3.21,0,0,0-1.52.19,3.93,3.93,0,0,0-1.81-.47c-.83-.06-1.3-.35-1.43-.86a3.69,3.69,0,0,1-1.9.57,7.53,7.53,0,0,1-2-.28,7.15,7.15,0,0,0-1.81-.29v2.1q0,4.19.28,8.57T13,48.53a38.59,38.59,0,0,1-.29,5.24c-.19,1.33-.35,2.25-.47,2.76l.38,6.66a44.88,44.88,0,0,0,.47,4.86,75,75,0,0,1,.48,9.62,23,23,0,0,1-.28,3.9c-.2,1.08-.39,2.06-.58,3s-.38,1.81-.57,2.76A19.7,19.7,0,0,0,11.86,91a10.07,10.07,0,0,0,.38,2.85,13.89,13.89,0,0,1,.38,3.62c0,.64,0,1.33-.1,2.09s-.09,1.47-.09,2.1l.19,4.19c-.13.64-.22,1.21-.29,1.71a10.71,10.71,0,0,0-.09,1.15v3.23q3,21,8.57,30.28a.77.77,0,0,1-.57.19h-.39c.13.26.51.92,1.15,2a21.68,21.68,0,0,0,2.66,3.52,18.08,18.08,0,0,0,4.1,3.34,9.62,9.62,0,0,0,5,1.42,3.15,3.15,0,0,0,1.53-.19,43,43,0,0,0,15.61,2.86h2.67a2.43,2.43,0,0,0,2.28-1l9.72-.38,5.33-1.91a13.18,13.18,0,0,0,2.57-1c.82-.45,1.62-.92,2.38-1.43V150a5.22,5.22,0,0,0,2.76-1.91,9.21,9.21,0,0,0,1.62-2.66l-.19-.19a72.21,72.21,0,0,0,5-7.72,26.65,26.65,0,0,0,3-8.66,294.74,294.74,0,0,0,2.38-32.56Q89.75,79.95,90.31,63.76Z" transform="translate(-9.57 -5.39)" fill="#fff"/>
    <path d="M163.06,100.9a14.07,14.07,0,0,1,4.76,1.81,34,34,0,0,1,4.76,3.33,41.39,41.39,0,0,1,4.09,3.9,25.54,25.54,0,0,1,2.76,3.53,23.83,23.83,0,0,1,2.29,6,28.37,28.37,0,0,1,.95,7,20.82,20.82,0,0,1-1.33,6.66,57.44,57.44,0,0,1-3.52,7.9,64,64,0,0,1-5,7.81,34.39,34.39,0,0,1-5.8,6.19,48.81,48.81,0,0,1-5.34,4,37.46,37.46,0,0,1-5.61,3,28.25,28.25,0,0,1-6.48,1.81,51.17,51.17,0,0,1-8.09.57,49.63,49.63,0,0,1-15.62-2.38,36.19,36.19,0,0,1-12.66-7.14,32.94,32.94,0,0,1-8.47-11.62,38.92,38.92,0,0,1-3.05-16c0-.64,0-1.3.09-2s.1-1.43.1-2.19a18.74,18.74,0,0,0,7.81,1.33,50.9,50.9,0,0,0,8.76-.76,50.73,50.73,0,0,1,8.76-.76h1.9c1.78,0,2.92.66,3.43,2s1.08,2.76,1.71,4.28a12.88,12.88,0,0,0,3,4.29q2.09,2,7.43,2a9.46,9.46,0,0,0,6.76-3.15,10.48,10.48,0,0,0,3.14-7.71,7.87,7.87,0,0,0-3.91-7,34.14,34.14,0,0,0-9.8-4q-5.91-1.53-12.76-3A58.5,58.5,0,0,1,115.45,106a27.21,27.21,0,0,1-9.81-7.9q-3.9-5.06-3.9-13.62,0-10.47,5.62-16.57T125,58.24a59.2,59.2,0,0,0,6.28-2.09A17.75,17.75,0,0,1,137.92,55a94.44,94.44,0,0,1,11.52.77,84.56,84.56,0,0,1,11.81,2.28,47.76,47.76,0,0,1,10.19,4,18.75,18.75,0,0,1,6.85,5.9,13.14,13.14,0,0,1,1.81,4.57c.32,1.65.6,3.43.86,5.34l.76,5.52a18.42,18.42,0,0,0,1.52,5.33,13.58,13.58,0,0,1-5.33,3.52,25.33,25.33,0,0,1-7.43.86,53.18,53.18,0,0,1-9.61-.86,23.3,23.3,0,0,1-7.33-2.38,9.11,9.11,0,0,1-1.62-4.19,25.81,25.81,0,0,0-.86-4.19,6.31,6.31,0,0,0-2.1-3.14c-1-.82-2.85-1.24-5.52-1.24A10,10,0,0,0,137.16,79a6.35,6.35,0,0,0-2.48,5.33,9.11,9.11,0,0,0,1.24,4.76,16.16,16.16,0,0,1,1.81,4.57,14.08,14.08,0,0,0,5,2.1A42.63,42.63,0,0,1,148,97.28q2.67,1,5.53,2.28a13,13,0,0,0,5.52,1.34,8,8,0,0,0,1.24-.1,10.49,10.49,0,0,1,1.42-.09C162.49,100.71,162.93,100.77,163.06,100.9Zm6.85,43.8q1-1.53,2.38-4c1-1.65,1.91-3.49,2.86-5.53a47.18,47.18,0,0,0,2.47-6.47,23.28,23.28,0,0,0,1-6.86,12,12,0,0,0-1.14-4.85,31.3,31.3,0,0,0-2.76-4.95,26.5,26.5,0,0,0-3.62-4.29,18.94,18.94,0,0,0-3.71-2.85,23.29,23.29,0,0,0-6.67-2.48c-2.41-.5-4.85-1-7.33-1.33s-4.92-.79-7.33-1.24a24.65,24.65,0,0,1-6.67-2.19,18.46,18.46,0,0,1-8.95-15.61q0-5,2.19-7a7.52,7.52,0,0,1,5.24-2,17.79,17.79,0,0,1,7.24,1.62,32.29,32.29,0,0,1,5.71,3.15,10.21,10.21,0,0,0,3.43,5,16.07,16.07,0,0,0,5.23,2.57,24.63,24.63,0,0,0,6.19,1q3.24.09,6.48.09a15.66,15.66,0,0,0,5.14-.85,3.4,3.4,0,0,0,2.47-3.52,23.07,23.07,0,0,0-.76-5.81,19.9,19.9,0,0,0-2.19-5.34,14.54,14.54,0,0,0-3.33-3.9,6.59,6.59,0,0,0-4.19-1.52,9,9,0,0,1-3.9-.86c-1.21-.57-2.38-1.17-3.53-1.81s-2.28-1.24-3.42-1.81a8,8,0,0,0-3.62-.85H152a15.71,15.71,0,0,1-5.71-1,13.8,13.8,0,0,0-5-.95,4.81,4.81,0,0,0-1.91.19q-3.81,1.14-7.14,1.91a47.25,47.25,0,0,0-6.57,2,38.27,38.27,0,0,0-6.47,3.23,39.08,39.08,0,0,0-6.86,5.62,47.57,47.57,0,0,0-5.23,6c-1.21,1.71-1.81,4.35-1.81,7.9q0,8,3.9,11.52a28.27,28.27,0,0,0,10.19,5.62l3.81,1.52A62.59,62.59,0,0,0,133.92,107a98.49,98.49,0,0,1,11.52,3.24,34.15,34.15,0,0,1,9.14,4.66,8.89,8.89,0,0,1,3.72,7.53A17.21,17.21,0,0,1,154,134.13a12.52,12.52,0,0,1-4.09,3,10.53,10.53,0,0,1-4.38,1.05,16.11,16.11,0,0,1-7.14-1.62,13.4,13.4,0,0,1-5.05-3.9,12.13,12.13,0,0,1-1.81-2.76,5.59,5.59,0,0,0-2.19-2.38,10.52,10.52,0,0,0-3.62-1.24,25.72,25.72,0,0,0-3.81-.29,47.68,47.68,0,0,0-7.23.58,52.69,52.69,0,0,1-7.81.57h-1.71a4.14,4.14,0,0,1-1.53-.19c.26,2.54.54,4.85.86,7a30.3,30.3,0,0,0,1.43,5.81,19.32,19.32,0,0,0,6,8.47,30,30,0,0,0,9.33,5.14,55.21,55.21,0,0,0,11,2.57,86.71,86.71,0,0,0,11.33.76Q161.53,156.69,169.91,144.7Z" transform="translate(-9.57 -5.39)" fill="#fff"/>
    <path d="M234.09,108.71l-1,.38a6.77,6.77,0,0,1-2.09-.38,6.53,6.53,0,0,0-2.1-.39,24.33,24.33,0,0,0-2.85.19,24,24,0,0,1-3.05.2,16.64,16.64,0,0,1-3.52-.39A15,15,0,0,1,215.8,107a40.72,40.72,0,0,1,1.53,8.28,56.53,56.53,0,0,0,1.33,8.48,16.11,16.11,0,0,0,3.14,6.66q2.19,2.67,7.14,2.67,6.48,0,9.14-4.67a24.34,24.34,0,0,0,3-10.75q2.48.38,5.52.57c2,.12,4,.19,5.81.19h8.1a3.43,3.43,0,0,0,2.47-.76q0,2.85.1,6.18t.09,6.57a68.54,68.54,0,0,1-.66,9.62,14.06,14.06,0,0,1-3,7.33,24.79,24.79,0,0,1-5.33,4.29,44.31,44.31,0,0,1-7.43,3.61,48.86,48.86,0,0,1-8.85,2.48,51.18,51.18,0,0,1-9.24.86,40.26,40.26,0,0,1-17.23-3.43,34.38,34.38,0,0,1-12.19-9.33A39.25,39.25,0,0,1,192.1,132a58,58,0,0,1-2.38-16.85V101.66A85.88,85.88,0,0,1,192,81.28a30.39,30.39,0,0,1,8.19-15,16.23,16.23,0,0,1,4.19-2.76,40.82,40.82,0,0,1,6.76-2.57,60.67,60.67,0,0,1,8.66-1.81,70.66,70.66,0,0,1,9.91-.67,47.6,47.6,0,0,1,18.75,3.91,27.24,27.24,0,0,1,6.95,4.28A12.24,12.24,0,0,1,259.22,72a15,15,0,0,1,1.24,4.57,4.17,4.17,0,0,0,2,3.43q.77,4.38,1.62,9.33a58.07,58.07,0,0,1,.86,9.9,26.84,26.84,0,0,1-.77,7.43,9.43,9.43,0,0,1-4.95,2.67,33.2,33.2,0,0,1-6.47.57,89.3,89.3,0,0,1-8.95-.48C240.62,109.06,237.39,108.83,234.09,108.71Zm-17.52-6.1a2.87,2.87,0,0,0,2.09,1,10.63,10.63,0,0,0,2.38-.28,12.37,12.37,0,0,1,2.76-.29,19.85,19.85,0,0,1,5.14.67,45.54,45.54,0,0,0,5.15,1q2.66.38,8.66.57t15.33.76a12.22,12.22,0,0,0,2.86-.19,23.44,23.44,0,0,0,1.23-5.43,50.19,50.19,0,0,0,.29-5.43q0-22.65-14.28-29.89a24.53,24.53,0,0,0-8.38-2.19,101.06,101.06,0,0,0-12.19-.67,72.54,72.54,0,0,0-11.71,1,29.21,29.21,0,0,0-12,4.95,30,30,0,0,0-9.42,11.42q-3.81,7.53-3.81,20.48a93.87,93.87,0,0,0,2,19.8,69.17,69.17,0,0,0,5.62,16.57,41.1,41.1,0,0,0,8.37,11.71A17.62,17.62,0,0,0,217,153.27q3.81.38,7.14.47t6.57.1c3.68,0,6.69-.07,9-.19a22.3,22.3,0,0,0,6-1.05,13.5,13.5,0,0,0,4.38-2.48,32.26,32.26,0,0,0,4.19-4.47q6.66-10.1,6.67-25.71c-1.27-.12-2.42-.22-3.43-.29s-2-.09-3-.09h-8.28a8.16,8.16,0,0,1-1.62-.19c-.76,1.78-1.56,3.78-2.38,6a38,38,0,0,1-3,6.19,17.08,17.08,0,0,1-4.19,4.76,9.71,9.71,0,0,1-6.1,1.9,12.91,12.91,0,0,1-7.42-2.19,19,19,0,0,1-5.43-5.62,26.93,26.93,0,0,1-3.33-7.8,34.65,34.65,0,0,1-1.14-8.76,37.07,37.07,0,0,1,1.52-9.72,3.38,3.38,0,0,1,.76.1,2.84,2.84,0,0,0,.76.1C215.3,104.33,215.93,103.75,216.57,102.61Zm25.32-8c-.89.51-2.85.77-5.9.77a43,43,0,0,1-9.81-1.24,38.37,38.37,0,0,0-8.47-1.24c-1.65,0-2.6.7-2.86,2.09a7.4,7.4,0,0,0-1.43-1.42,2.62,2.62,0,0,1-.85-2.19,12.75,12.75,0,0,1,.28-2.67,12.76,12.76,0,0,0,.29-2.67,4.74,4.74,0,0,0-.19-1.9A14.63,14.63,0,0,0,215,81.47l2.1-3a13.18,13.18,0,0,1,2.47-2.57,5.38,5.38,0,0,1,3.43-1,4.91,4.91,0,0,1,3.05.86,4.94,4.94,0,0,0,3,.85,10.65,10.65,0,0,0,1.43-.09,9.26,9.26,0,0,1,1.43-.1,4.81,4.81,0,0,1,3,1,4.51,4.51,0,0,0,2.85,1.05,1.59,1.59,0,0,0,1-.19q2.09,2.48,4.28,5.42a11.07,11.07,0,0,1,2.19,6.76,8.66,8.66,0,0,1-.95,3c-.64,1.4-1.08,2.1-1.33,2.1s-.61-.1-.67-.29A2,2,0,0,0,241.89,94.61Zm-24.37-4a21.92,21.92,0,0,1,4.19-.19h7.14a43,43,0,0,1,4.66.19.53.53,0,0,0,.2-.38c-.13,0-.2-.06-.2-.19v-.38a12.86,12.86,0,0,1,2.67.76c0-.5.44-.76,1.33-.76.51,0,1.11,0,1.81.1s1.37.09,2,.09a14.94,14.94,0,0,0-1.9-8c-1.27-2-3.88-3-7.81-3a30.87,30.87,0,0,0-5.33.47,26,26,0,0,0-4.86,1.34,12.53,12.53,0,0,0-3.62,2.09,3.62,3.62,0,0,0-1.42,2.76,5.67,5.67,0,0,0,.57,2.38A6.55,6.55,0,0,1,217.52,90.61Z" transform="translate(-9.57 -5.39)" fill="#fff"/>
    <path d="M333.3,100.9a14.07,14.07,0,0,1,4.76,1.81,33.47,33.47,0,0,1,4.76,3.33,40.31,40.31,0,0,1,4.09,3.9,25.54,25.54,0,0,1,2.76,3.53,23.83,23.83,0,0,1,2.29,6,28.37,28.37,0,0,1,1,7,20.55,20.55,0,0,1-1.33,6.66,57.44,57.44,0,0,1-3.52,7.9,63.93,63.93,0,0,1-4.95,7.81A34.43,34.43,0,0,1,337.3,155a48.81,48.81,0,0,1-5.34,4,37,37,0,0,1-5.61,3,28.25,28.25,0,0,1-6.48,1.81,51.08,51.08,0,0,1-8.09.57,49.63,49.63,0,0,1-15.62-2.38,36.19,36.19,0,0,1-12.66-7.14A33.06,33.06,0,0,1,275,143.17a38.92,38.92,0,0,1-3-16,20,20,0,0,1,.1-2q.09-1.05.09-2.19a18.74,18.74,0,0,0,7.81,1.33,50.82,50.82,0,0,0,8.76-.76,50.82,50.82,0,0,1,8.76-.76h1.9c1.78,0,2.92.66,3.43,2s1.08,2.76,1.71,4.28a12.88,12.88,0,0,0,3,4.29c1.4,1.33,3.87,2,7.43,2a9.46,9.46,0,0,0,6.76-3.15,10.48,10.48,0,0,0,3.14-7.71,7.87,7.87,0,0,0-3.9-7,34.33,34.33,0,0,0-9.81-4q-5.91-1.53-12.76-3A58.5,58.5,0,0,1,285.69,106a27.21,27.21,0,0,1-9.81-7.9Q272,93.09,272,84.52,272,74.05,277.6,68t17.61-9.71a60.18,60.18,0,0,0,6.29-2.09A17.66,17.66,0,0,1,308.16,55a94.31,94.31,0,0,1,11.52.77,84.28,84.28,0,0,1,11.81,2.28,47.76,47.76,0,0,1,10.19,4,18.75,18.75,0,0,1,6.85,5.9,13.14,13.14,0,0,1,1.81,4.57c.32,1.65.6,3.43.86,5.34l.76,5.52a18.42,18.42,0,0,0,1.52,5.33,13.58,13.58,0,0,1-5.33,3.52,25.33,25.33,0,0,1-7.43.86,53.18,53.18,0,0,1-9.61-.86,23.39,23.39,0,0,1-7.33-2.38,9.11,9.11,0,0,1-1.62-4.19,25.81,25.81,0,0,0-.86-4.19,6.36,6.36,0,0,0-2.09-3.14c-1-.82-2.86-1.24-5.53-1.24A10,10,0,0,0,307.4,79a6.35,6.35,0,0,0-2.48,5.33,9.11,9.11,0,0,0,1.24,4.76A15.87,15.87,0,0,1,308,93.66a14.08,14.08,0,0,0,4.95,2.1,42.63,42.63,0,0,1,5.33,1.52q2.67,1,5.53,2.28a13,13,0,0,0,5.52,1.34,8,8,0,0,0,1.24-.1,10.6,10.6,0,0,1,1.42-.09C332.73,100.71,333.17,100.77,333.3,100.9Zm6.85,43.8q1-1.53,2.38-4t2.86-5.53a48.53,48.53,0,0,0,2.48-6.47,23.6,23.6,0,0,0,1-6.86,12,12,0,0,0-1.14-4.85A31.3,31.3,0,0,0,345,112a26.5,26.5,0,0,0-3.62-4.29,18.94,18.94,0,0,0-3.71-2.85,23.18,23.18,0,0,0-6.67-2.48c-2.41-.5-4.85-1-7.33-1.33s-4.92-.79-7.33-1.24a24.65,24.65,0,0,1-6.67-2.19,18.52,18.52,0,0,1-8.95-15.61q0-5,2.19-7a7.52,7.52,0,0,1,5.24-2,17.79,17.79,0,0,1,7.24,1.62,32.29,32.29,0,0,1,5.71,3.15,10.21,10.21,0,0,0,3.43,5,16.12,16.12,0,0,0,5.24,2.57,24.48,24.48,0,0,0,6.18,1q3.24.09,6.48.09a15.66,15.66,0,0,0,5.14-.85,3.41,3.41,0,0,0,2.48-3.52,23.09,23.09,0,0,0-.77-5.81,19.58,19.58,0,0,0-2.19-5.34,14.54,14.54,0,0,0-3.33-3.9,6.57,6.57,0,0,0-4.19-1.52,9,9,0,0,1-3.9-.86c-1.21-.57-2.38-1.17-3.52-1.81s-2.29-1.24-3.43-1.81a8,8,0,0,0-3.62-.85h-2.86a15.71,15.71,0,0,1-5.71-1,13.8,13.8,0,0,0-5-.95,4.81,4.81,0,0,0-1.91.19q-3.81,1.14-7.14,1.91a47.25,47.25,0,0,0-6.57,2,38.27,38.27,0,0,0-6.47,3.23,39.08,39.08,0,0,0-6.86,5.62,47.57,47.57,0,0,0-5.23,6c-1.21,1.71-1.81,4.35-1.81,7.9q0,8,3.9,11.52a28.27,28.27,0,0,0,10.19,5.62l3.81,1.52A62.59,62.59,0,0,0,304.16,107a97.94,97.94,0,0,1,11.52,3.24,34.15,34.15,0,0,1,9.14,4.66,8.89,8.89,0,0,1,3.72,7.53,17.21,17.21,0,0,1-4.29,11.71,12.52,12.52,0,0,1-4.09,3,10.53,10.53,0,0,1-4.38,1.05,16.11,16.11,0,0,1-7.14-1.62,13.48,13.48,0,0,1-5.05-3.9,12.48,12.48,0,0,1-1.81-2.76,5.53,5.53,0,0,0-2.19-2.38,10.52,10.52,0,0,0-3.62-1.24,25.69,25.69,0,0,0-3.8-.29,47.71,47.71,0,0,0-7.24.58,52.69,52.69,0,0,1-7.81.57h-1.71a4.18,4.18,0,0,1-1.53-.19c.26,2.54.54,4.85.86,7a31.06,31.06,0,0,0,1.43,5.81,19.4,19.4,0,0,0,6,8.47,30.25,30.25,0,0,0,9.33,5.14,55.21,55.21,0,0,0,11,2.57,86.82,86.82,0,0,0,11.33.76Q331.78,156.69,340.15,144.7Z" transform="translate(-9.57 -5.39)" fill="#fff"/>
  </g>
  <line x1="125.52" y1="45.92" x2="157.32" y2="14.13" fill="none" stroke="#fff" stroke-miterlimit="10"/>
  <line x1="157.32" y1="14.13" x2="229.23" y2="14.13" fill="none" stroke="#fff" stroke-miterlimit="10"/>
  <rect x="229.99" y="0.5" width="86.3" height="29.52" fill="none" stroke="#fff" stroke-miterlimit="10"/>
  <g>
    <path d="M248.64,23.42l.73-1.07a5.27,5.27,0,0,0,3,.9c1,0,1.45-.37,1.45-.84s-.31-.73-2-1.07c-1.89-.4-2.74-1.07-2.74-2.15,0-1.24,1.13-2.12,3.12-2.12a5.62,5.62,0,0,1,3,.93l-.77,1a4.41,4.41,0,0,0-2.35-.71c-.92,0-1.3.36-1.3.79s.52.68,1.85,1c2.27.51,2.86,1.11,2.86,2.24s-1.18,2.21-3.34,2.21A6.42,6.42,0,0,1,248.64,23.42Z" transform="translate(-9.57 -5.39)" fill="#f3f3f3"/>
    <path d="M257.19,20.8a3.57,3.57,0,1,1,7.14,0,3.57,3.57,0,1,1-7.14,0Zm5.42,0c0-1.43-.69-2.37-1.85-2.37s-1.85.94-1.85,2.37.69,2.35,1.85,2.35S262.61,22.22,262.61,20.8Z" transform="translate(-9.57 -5.39)" fill="#f3f3f3"/>
    <path d="M266.43,17.32l2-.08h4.32v1.32h-6.32Zm1.95-.47a2.69,2.69,0,0,1,3-2.89,5.9,5.9,0,0,1,2.1.39l-.34,1.24a4,4,0,0,0-1.57-.31,1.36,1.36,0,0,0-1.55,1.55v7.51h-1.67Z" transform="translate(-9.57 -5.39)" fill="#f3f3f3"/>
    <path d="M276.52,21.49V18.56h-1.9V17.32l2-.08.22-2.23h1.38v2.23h3.23v1.32h-3.23v2.92c0,1.17.44,1.7,1.64,1.7a4.6,4.6,0,0,0,1.55-.28l.32,1.21a6.87,6.87,0,0,1-2.27.41C277.26,24.52,276.52,23.3,276.52,21.49Z" transform="translate(-9.57 -5.39)" fill="#f3f3f3"/>
    <path d="M282.53,17.24h1.63l.64,3.7c.11.68.19,1.33.28,2h.05a16.54,16.54,0,0,1,.37-2l.65-3h1.37l.65,3c.15.68.3,1.33.39,2h.06c.11-.7.16-1.35.26-2l.62-3.7H291l-1.3,7.1h-2l-.6-2.83c-.1-.56-.2-1.25-.3-2.11h-.06c-.09.75-.18,1.41-.3,2.11l-.57,2.83h-2Z" transform="translate(-9.57 -5.39)" fill="#f3f3f3"/>
    <path d="M292.14,22.44c0-1.6,1.4-2.39,4.91-2.64-.06-.79-.53-1.39-1.69-1.39a5,5,0,0,0-2.32.75l-.62-1.1a6.49,6.49,0,0,1,3.25-1,2.77,2.77,0,0,1,3.06,3.07v4.2h-1.38l-.13-.88h-.05a4.52,4.52,0,0,1-2.65,1.06A2.16,2.16,0,0,1,292.14,22.44Zm4.91-.1V20.85c-2.55.17-3.29.69-3.29,1.46s.56.89,1.26.89A3.23,3.23,0,0,0,297.05,22.34Z" transform="translate(-9.57 -5.39)" fill="#f3f3f3"/>
    <path d="M301.68,17.24h1.38l.14,1.61h0a3.52,3.52,0,0,1,3-1.78,3,3,0,0,1,1.39.28l-.36,1.42a3.55,3.55,0,0,0-1.28-.22,3,3,0,0,0-2.66,1.88v3.91h-1.67Z" transform="translate(-9.57 -5.39)" fill="#f3f3f3"/>
    <path d="M309.36,20.78A3.59,3.59,0,0,1,313,17.07a3.1,3.1,0,0,1,3.29,3.37,5.63,5.63,0,0,1-.07.84h-5.69V20.1h4.61l-.32.37c0-1.41-.66-2.12-1.77-2.12S311,19.2,311,20.78a2.23,2.23,0,0,0,2.47,2.44,3.9,3.9,0,0,0,2-.58l.57,1a5.21,5.21,0,0,1-2.78.84A3.62,3.62,0,0,1,309.36,20.78Z" transform="translate(-9.57 -5.39)" fill="#f3f3f3"/>
  </g>
  <line x1="30.9" y1="157.2" x2="62.69" y2="191.38" fill="none" stroke="#fff" stroke-miterlimit="10"/>
  <line x1="62.69" y1="191.38" x2="134.61" y2="191.38" fill="none" stroke="#fff" stroke-miterlimit="10"/>
  <rect x="135.36" y="174.29" width="86.3" height="31.74" fill="none" stroke="#fff" stroke-miterlimit="10"/>
  <g>
    <path d="M154.31,189.75H156v2.64l-.09,1.52h0a3.36,3.36,0,0,1,2.5-1.22c1.64,0,2.38,1.05,2.38,2.88V200h-1.68v-4.19c0-1.14-.36-1.66-1.32-1.66a2.51,2.51,0,0,0-1.83,1V200h-1.67Z" transform="translate(-9.57 -5.39)" fill="#f3f3f3"/>
    <path d="M162.81,198.06c0-1.59,1.41-2.39,4.92-2.63-.06-.8-.54-1.4-1.7-1.4a4.9,4.9,0,0,0-2.32.76l-.62-1.11a6.49,6.49,0,0,1,3.25-1,2.77,2.77,0,0,1,3.06,3.07V200H168l-.12-.88h-.05a4.6,4.6,0,0,1-2.65,1A2.16,2.16,0,0,1,162.81,198.06Zm4.92-.1v-1.49c-2.56.17-3.29.69-3.29,1.46,0,.62.55.9,1.25.9A3.3,3.3,0,0,0,167.73,198Z" transform="translate(-9.57 -5.39)" fill="#f3f3f3"/>
    <path d="M172.35,192.86h1.38l.14,1.62h0a3.53,3.53,0,0,1,3-1.79,3,3,0,0,1,1.38.29l-.35,1.41a3.64,3.64,0,0,0-1.29-.22,3,3,0,0,0-2.66,1.88V200h-1.67Z" transform="translate(-9.57 -5.39)" fill="#f3f3f3"/>
    <path d="M179.92,196.42c0-2.31,1.51-3.73,3.12-3.73a2.66,2.66,0,0,1,2,.83h0l-.08-1.2v-2.57h1.68V200h-1.37l-.13-.83h0a3.19,3.19,0,0,1-2.14,1C181.12,200.14,179.92,198.77,179.92,196.42Zm5,1.49v-3.2a2.14,2.14,0,0,0-1.51-.64c-1,0-1.82.85-1.82,2.33s.65,2.36,1.73,2.36A2.07,2.07,0,0,0,185,197.91Z" transform="translate(-9.57 -5.39)" fill="#f3f3f3"/>
    <path d="M187.91,192.86h1.63l.64,3.7c.11.69.19,1.33.27,2h.06a19.12,19.12,0,0,1,.36-2l.66-3h1.37l.64,3c.15.69.31,1.33.4,2H194c.1-.7.15-1.34.26-2l.61-3.7h1.55l-1.3,7.11h-2l-.59-2.84c-.11-.56-.21-1.24-.31-2.1h-.06c-.08.74-.17,1.4-.29,2.1l-.58,2.84h-2Z" transform="translate(-9.57 -5.39)" fill="#f3f3f3"/>
    <path d="M197.52,198.06c0-1.59,1.4-2.39,4.91-2.63-.06-.8-.53-1.4-1.69-1.4a4.9,4.9,0,0,0-2.32.76l-.62-1.11a6.46,6.46,0,0,1,3.25-1,2.76,2.76,0,0,1,3,3.07V200h-1.37l-.13-.88h0a4.6,4.6,0,0,1-2.65,1A2.15,2.15,0,0,1,197.52,198.06Zm4.91-.1v-1.49c-2.55.17-3.29.69-3.29,1.46,0,.62.55.9,1.26.9A3.29,3.29,0,0,0,202.43,198Z" transform="translate(-9.57 -5.39)" fill="#f3f3f3"/>
    <path d="M207.06,192.86h1.38l.14,1.62h0a3.51,3.51,0,0,1,3-1.79A3,3,0,0,1,213,193l-.35,1.41a3.6,3.6,0,0,0-1.29-.22,3,3,0,0,0-2.65,1.88V200h-1.67Z" transform="translate(-9.57 -5.39)" fill="#f3f3f3"/>
    <path d="M214.74,196.4a3.6,3.6,0,0,1,3.66-3.71,3.11,3.11,0,0,1,3.3,3.37,5.3,5.3,0,0,1-.08.84h-5.69v-1.18h4.61l-.32.37c0-1.4-.66-2.12-1.77-2.12s-2.08.85-2.08,2.43a2.23,2.23,0,0,0,2.47,2.44,3.82,3.82,0,0,0,2-.58l.57,1a5.13,5.13,0,0,1-2.79.84A3.62,3.62,0,0,1,214.74,196.4Z" transform="translate(-9.57 -5.39)" fill="#f3f3f3"/>
  </g>
</svg>
