<?xml version="1.0" encoding="utf-8"?>
<!-- Generator: Adobe Illustrator 23.0.1, SVG Export Plug-In . SVG Version: 6.00 Build 0)  -->
<svg version="1.1" id="Layer_1" xmlns="http://www.w3.org/2000/svg" xmlns:xlink="http://www.w3.org/1999/xlink" x="0px" y="0px"
	 viewBox="0 0 1638.3 1896.1" style="enable-background:new 0 0 1638.3 1896.1;" xml:space="preserve">
<style type="text/css">
	.st0{fill:none;}
	.st1{fill:#2062AF;}
	.st2{fill:#3C9CD7;}
	.st3{fill:#FFFFFF;}
	.st4{fill:url(#SVGID_1_);}
	.st5{fill:url(#SVGID_2_);}
	.st6{fill:url(#SVGID_3_);}
	.st7{opacity:5.000000e-02;enable-background:new    ;}
	.st8{fill:url(#SVGID_4_);}
</style>
<path class="st0" d="M-425.4-517.3h2500v2500h-2500V-517.3z"/>
<path class="st1" d="M1456.8,1652.6l-632.3,170.2l-632.3-170.2L46.4,71.9h1556.3L1456.8,1652.6z"/>
<path class="st2" d="M824.6,199.9V1687l1.4,0.4l511.7-137.8l118.1-1349.7L824.6,199.9L824.6,199.9z"/>
<path class="st3" d="M824,595.2L371.5,783.6l15,186.6L824,783.2l465.4-199l19.3-190.9L824,595.2L824,595.2z"/>
<linearGradient id="SVGID_1_" gradientUnits="userSpaceOnUse" x1="-806.0919" y1="-408.1464" x2="-806.0919" y2="-488.9474" gradientTransform="matrix(4.6418 0 0 4.6418 4339.4409 2864.7559)">
	<stop  offset="0.387" style="stop-color:#D1D3D4;stop-opacity:0"/>
	<stop  offset="1" style="stop-color:#D1D3D4"/>
</linearGradient>
<path class="st4" d="M371.5,783.6l15,186.6L824,783.2v-188L371.5,783.6z"/>
<linearGradient id="SVGID_2_" gradientUnits="userSpaceOnUse" x1="-705.1349" y1="-448.4474" x2="-705.1349" y2="-532.4364" gradientTransform="matrix(4.6418 0 0 4.6418 4339.4409 2864.7559)">
	<stop  offset="0.387" style="stop-color:#D1D3D4;stop-opacity:0"/>
	<stop  offset="1" style="stop-color:#D1D3D4"/>
</linearGradient>
<path class="st5" d="M1308.7,393.3L824,595.2v188l465.4-199L1308.7,393.3z"/>
<linearGradient id="SVGID_3_" gradientUnits="userSpaceOnUse" x1="-854.687" y1="-372.1084" x2="-660.6219" y2="-372.1084" gradientTransform="matrix(4.6418 0 0 4.6418 4339.4409 2864.7559)">
	<stop  offset="0" style="stop-color:#E8E7E5"/>
	<stop  offset="1" style="stop-color:#FFFFFF"/>
</linearGradient>
<path class="st6" d="M372.2,783.6l15,186.6l671.3,2.1l-15,248.8l-220.9,62.2l-212.4-53.6l-12.9-154.4H400l25.7,298.1l398.9,118
	l396.8-115.8l51.5-591.9H372.2z"/>
<path class="st7" d="M824,783.6H371.5l15,186.6l437.5,1.4L824,783.6L824,783.6z M824,1282.7l-2.1,0.6l-212.3-53.6l-12.9-154.4H399.3
	l25.7,298.1l398.9,118V1282.7z"/>
<linearGradient id="SVGID_4_" gradientUnits="userSpaceOnUse" x1="-863.616" y1="-511.8754" x2="-652.924" y2="-511.8754" gradientTransform="matrix(4.6418 0 0 4.6418 4339.4409 2864.7559)">
	<stop  offset="0" style="stop-color:#E8E7E5"/>
	<stop  offset="1" style="stop-color:#FFFFFF"/>
</linearGradient>
<path class="st8" d="M330.7,393.3h978l-19.3,190.9H354.3L330.7,393.3L330.7,393.3z"/>
<path class="st7" d="M824,393.3H330.7l23.6,190.9H824L824,393.3L824,393.3z"/>
</svg>
