<svg xmlns="http://www.w3.org/2000/svg" viewBox="0 0 382 295.4">
<title>Asset 1</title>

  <g id="book-bottom">
    <rect id="cover" x="11.2" y="254.8" width="362" height="40" transform="translate(-1 0.7) rotate(-0.2)" fill="#0f6eab"/>
    <text id="title" transform="translate(90 275.9) rotate(-0.2)" font-size="17.87" fill="#fff" font-family="MyriadPro-Regular, Myriad Pro">SVG Animations</text>
    <text id="author" transform="translate(90 287.8) rotate(-0.2)" font-size="12" fill="#fff" font-family="MyriadPro-Regular, Myriad Pro">Sarah Drasner</text>
    <g id="accents">
      <rect x="36.2" y="255.3" width="27" height="40" transform="translate(-1 0.2) rotate(-0.2)" fill="#6f9aaf"/><rect x="320" y="254.3" width="27" height="40" transform="translate(-1 1.2) rotate(-0.2)" fill="#6f9aaf"/>
    </g>
  </g>

  <g id="book-middle">
    <rect id="cover-2" data-name="cover" x="0.1" y="215.3" width="362" height="40" transform="matrix(1, 0, 0, 1, -0.83, 0.64)" fill="#3eb791"/>
    <text id="title-2" data-name="title" transform="translate(70 237.1) rotate(-0.2)" font-size="17.87" fill="#fff" font-family="MyriadPro-Regular, Myriad Pro">SVG Animations</text>
    <text id="author-2" data-name="author" transform="translate(70 248) rotate(-0.2)" font-size="12" fill="#fff" font-family="MyriadPro-Regular, Myriad Pro">Sarah Drasner</text>
    <g id="accents-2" data-name="accents">
      <rect x="25.1" y="215.9" width="7" height="40" transform="translate(-0.8 0.1) rotate(-0.2)" fill="#d8eee7"/>
      <rect x="262.1" y="214.9" width="92" height="40" transform="translate(-0.8 1.1) rotate(-0.2)" fill="#d8eee7"/>
      <rect x="35.1" y="215.8" width="7" height="40" transform="translate(-0.8 0.1) rotate(-0.2)" fill="#d8eee7"/>
    </g>
  </g>
  
  <g id="book-top">
    <rect id="cover-3" data-name="cover" x="19.9" y="175.3" width="362" height="40" transform="translate(-0.7 0.7) rotate(-0.2)" fill="#cc952b"/>
    <text id="title-3" data-name="title" transform="translate(100 196.9) rotate(-0.2)" font-size="17.87" fill="#010101" font-family="MyriadPro-Regular, Myriad Pro">SVG Animations</text>
    <text id="author-3" data-name="author" transform="translate(100 208.8) rotate(-0.2)" font-size="12" fill="#010101" font-family="MyriadPro-Regular, Myriad Pro">Sarah Drasner</text>
    <g id="accents-3" data-name="accents">
      <rect id="rect" x="327.4" y="174.8" width="27" height="40" transform="translate(-0.7 1.2) rotate(-0.2)" fill="#e5d91b"/>
      <circle id="circle" cx="62.4" cy="195.2" r="15.5" fill="#e5d91b"/>
      <rect id="stripe-right" x="356.9" y="174.7" width="3" height="40" transform="translate(-0.7 1.3) rotate(-0.2)" fill="#a54924"/>
      <rect id="stripe-left" x="321.9" y="174.8" width="3" height="40" transform="translate(-0.7 1.1) rotate(-0.2)" fill="#a54924"/>
    </g>
  </g>
  
  <g id="camera">
    <path d="M120.9,175.9H321.3a9.6,9.6,0,0,0,9.5-9.6V35.3a9.6,9.6,0,0,0-9.5-9.6L128.9,28.8C98.7,31.9,95.8,41,91.2,59.5v91.3C95.8,164.6,107.1,175.9,120.9,175.9Z" fill="#2b2c2b"/>
    <path d="M92,55.8h50.6a.8.8,0,0,1,.8.8V178.8a3.5,3.5,0,0,1-3.5,3.5H94.7a3.5,3.5,0,0,1-3.5-3.5V56.6A.8.8,0,0,1,92,55.8Z" fill="#434343"/>
    <path d="M280.5,119H217.2a25.2,25.2,0,0,1-25.1-25.1l13.4-71.7C205.5,8.4,216,0,229.8,0l31.8.3c13.8,0,26.6,8.4,26.6,22.2l17.4,71.4A25.2,25.2,0,0,1,280.5,119Z" fill="#434343"/>
    <circle cx="247.7" cy="117" r="67.1" fill="#86898a"/>
    <circle cx="248.8" cy="116" r="56.8" fill="#191919"/>
    <rect x="290.1" y="14.8" width="34.7" height="12.07" rx="2.9" fill="#191919"/>
    <path d="M108.5,44.6c.3-4.3,3.5-13.1,24.9-11.9a3,3,0,0,1,2.8,3.7c-1.5,5.8-6.6,16.2-25.7,11.1A2.7,2.7,0,0,1,108.5,44.6Z" fill="#5f5f61" stroke="#a9a8a8" stroke-miterlimit="10"/>
    <path d="M91.2,56.7h52.1a3.4,3.4,0,0,1-4.1,3c-3.8-.5-22.2-1.9-38.9,3.8,0,0-3.6,1.7-5.6-1.2S91.2,56.7,91.2,56.7Z" fill="#ee2826"/>
  </g>
  
</svg>