<svg id="Layer_1" data-name="Layer 1" xmlns="http://www.w3.org/2000/svg" viewBox="0 0 239.6 184.1"><title>camera</title><g id="camera"><path d="M116.4,191.1H316.8a9.6,9.6,0,0,0,9.6-9.6V50.5a9.7,9.7,0,0,0-9.6-9.6L124.5,44C94.3,47.1,91.3,56.2,86.8,74.7V166C91.3,179.8,102.6,191.1,116.4,191.1Z" transform="translate(-86.8 -15.2)" fill="#2b2c2b"/><path d="M.8,55.8H51.4a.8.8,0,0,1,.8.8V178.8a3.5,3.5,0,0,1-3.5,3.5H3.5A3.5,3.5,0,0,1,0,178.8V56.6a.8.8,0,0,1,.8-.8Z" fill="#434343"/><path d="M276.1,134.2H212.7a25.2,25.2,0,0,1-25.1-25.1l13.5-71.7c0-13.8,10.5-22.2,24.3-22.2l31.8.3c13.8,0,26.6,8.4,26.6,22.2l17.4,71.4A25.2,25.2,0,0,1,276.1,134.2Z" transform="translate(-86.8 -15.2)" fill="#434343"/><circle cx="156.5" cy="117" r="67.1" fill="#86898a"/><circle cx="157.6" cy="116" r="56.8" fill="#191919"/><rect x="198.9" y="14.8" width="34.7" height="12.07" rx="2.9" fill="#191919"/><path d="M104,59.8c.3-4.3,3.6-13.1,24.9-11.9a3,3,0,0,1,2.8,3.7c-1.4,5.8-6.6,16.2-25.6,11.1A2.8,2.8,0,0,1,104,59.8Z" transform="translate(-86.8 -15.2)" fill="#5f5f61" stroke="#a9a8a8" stroke-miterlimit="10"/><path d="M86.8,71.9h52.1a3.4,3.4,0,0,1-4.1,3c-3.8-.5-22.3-1.9-39,3.8,0,0-3.6,1.7-5.6-1.2S86.8,71.9,86.8,71.9Z" transform="translate(-86.8 -15.2)" fill="#ee2826"/></g></svg>