<svg viewBox="0 0 540.36 321.59">
  <title>computer</title>
  <g id="laptop">
    <path d="M12,0H528.36a12,12,0,0,1,12,12V321.59a0,0,0,0,1,0,0H0a0,0,0,0,1,0,0V12A12,12,0,0,1,12,0Z" fill="#939393"/>
    <circle id="laptop-light" cx="271.28" cy="172.83" r="32.82" fill="#e2e2e2"/>
    <g id="rubber-duck-debugger">
      <polygon points="15.5 63.25 15.5 68.06 45.64 85.46 75.78 68.06 75.78 63.25 15.5 63.25" fill="#0680b7"/>
      <polygon points="75.78 63.25 75.78 33.25 45.64 15.85 15.5 33.26 15.5 63.25 75.78 63.25" fill="#bbdce8"/>
      <g>
        <path d="M25.34,61.76S26.47,40.56,23.66,37" transform="translate(0 -0.06)" fill="none" stroke="#51873e" stroke-miterlimit="10" stroke-width="0.15"/>
        <path d="M28.34,60.91s3.71-2.2,3-26.38" transform="translate(0 -0.06)" fill="none" stroke="#51873e" stroke-miterlimit="10" stroke-width="0.15"/>
        <rect x="30.4" y="36.38" width="1.97" height="8.54" rx="0.33" fill="#a56b28"/>
        <path d="M25.49,46.37l-.72.09a.62.62,0,0,1-.69-.57l-.83-7.18A.65.65,0,0,1,23.8,38l.71-.09a.63.63,0,0,1,.7.57L26,45.65A.64.64,0,0,1,25.49,46.37Z" transform="translate(0 -0.06)" fill="#a56b28"/>
        <path d="M23.8,63.38S21.55,49.83,18.18,46.3c0,0,3.65,1.77,7.3,17.37Z" transform="translate(0 -0.06)" fill="#51873e"/>
        <path d="M26.19,60.58s2.53-5.89,2-10.3c0,0,1.41,5.59-.56,10.59" transform="translate(0 -0.06)" fill="#51873e"/>
        <path d="M30.4,59.4S33.86,53,32.82,48.59c0,0,2.79,2.14-1.5,11.16S30.4,59.4,30.4,59.4Z" transform="translate(0 -0.06)" fill="#51873e"/>
      </g>
      <path d="M15.51,63.32s1.91.35.69,1.58,2,.08,3.05.15,2.56-.46-1.09,1.93-1.1,1.39,6.34.16.36,1.07.49,2.92S33.4,68.45,43.4,68s2.44,2.47,5.37,3,8-3.7,11.71-4-2.32,2.78.24,3.55,15.07-7.21,15.07-7.21Z" transform="translate(0 -0.06)" fill="#26ace3"/>
      <g>
        <g>
          <path d="M57.87,53.88a42,42,0,0,1-5.37.29c-1-.17-2.06-1.2-2.4.69s-.34,4.62.86,6,3.43,5.32,12.17,4.63,7.36-7.54,5.48-9.25S57.87,53.88,57.87,53.88Z" transform="translate(0 -0.06)" fill="#fac112"/>
          <path d="M62.18,46s-5.82.17-4.62,6.51,7,3.94,7.54,3.77a6.28,6.28,0,0,0,3.08-6.17A4.91,4.91,0,0,0,62.18,46Z" transform="translate(0 -0.06)" fill="#fddb00"/>
          <ellipse cx="64.58" cy="50.85" rx="0.86" ry="1.11" fill="#5b2415"/>
          <path d="M59.78,59.23a19.13,19.13,0,0,1-5.14-.86c-2.74-.86-2.91,1.71-1.54,3.25s5.66,4.8,9.43,2.4S61.33,59.05,59.78,59.23Z" transform="translate(0 -0.06)" fill="#f49f1d"/>
          <path d="M70.24,53.74s2.4-1.54.85-1.71A12.81,12.81,0,0,1,68,51.51c-.17-.17-2.23,1.89-2.57,3.09s2.74,1.71,3.43,1.71,1.88-.4,1.37-1.54C69.81,53.83,70.24,53.74,70.24,53.74Z" transform="translate(0 -0.06)" fill="#f08321"/>
          <path d="M66.12,54.6s.52.51,2.06.17,1.37-.69,1.54-.51.52,1.54-.85,1.37A8.2,8.2,0,0,1,66.12,54.6Z" transform="translate(0 -0.06)" fill="#e85824"/>
        </g>
        <g>
          <path d="M42.07,60.81a12.18,12.18,0,0,1-1.69.09c-.33,0-.65-.38-.76.22A2.49,2.49,0,0,0,39.89,63c.38.44,1.08,1.68,3.84,1.46s2.33-2.38,1.73-2.92S42.07,60.81,42.07,60.81Z" transform="translate(0 -0.06)" fill="#fac112"/>
          <path d="M43.43,58.33A1.56,1.56,0,0,0,42,60.39a1.61,1.61,0,0,0,2.38,1.19,2,2,0,0,0,1-1.95A1.56,1.56,0,0,0,43.43,58.33Z" transform="translate(0 -0.06)" fill="#fddb00"/>
          <ellipse cx="44.19" cy="59.81" rx="0.27" ry="0.35" fill="#5b2415"/>
          <path d="M42.68,62.5a6.13,6.13,0,0,1-1.63-.27c-.86-.27-.92.54-.48,1s1.78,1.51,3,.75S43.16,62.44,42.68,62.5Z" transform="translate(0 -0.06)" fill="#f49f1d"/>
          <path d="M46,60.77s.75-.49.27-.54a5,5,0,0,1-1-.16,2.19,2.19,0,0,0-.81,1c-.11.38.87.54,1.08.54s.6-.13.44-.49S46,60.77,46,60.77Z" transform="translate(0 -0.06)" fill="#f08321"/>
          <path d="M44.68,61s.16.16.65.05.43-.21.48-.16.17.49-.27.43A2.43,2.43,0,0,1,44.68,61Z" transform="translate(0 -0.06)" fill="#e85824"/>
        </g>
        <g>
          <path d="M33.45,60.68a14,14,0,0,1-1.69.09c-.33-.05-.65-.38-.76.22a2.49,2.49,0,0,0,.27,1.89c.38.43,1.08,1.68,3.84,1.46s2.33-2.38,1.73-2.92S33.45,60.68,33.45,60.68Z" transform="translate(0 -0.06)" fill="#fac112"/>
          <path d="M34.81,58.2a1.56,1.56,0,0,0-1.46,2.06,1.61,1.61,0,0,0,2.38,1.19,2,2,0,0,0,1-2A1.55,1.55,0,0,0,34.81,58.2Z" transform="translate(0 -0.06)" fill="#fddb00"/>
          <ellipse cx="35.56" cy="59.68" rx="0.27" ry="0.35" fill="#5b2415"/>
          <path d="M34.05,62.37a6.09,6.09,0,0,1-1.62-.27c-.86-.27-.92.54-.48,1s1.78,1.52,3,.76S34.54,62.31,34.05,62.37Z" transform="translate(0 -0.06)" fill="#f49f1d"/>
          <path d="M37.35,60.64s.76-.49.27-.55a3.63,3.63,0,0,1-1-.16,2.3,2.3,0,0,0-.81,1c-.11.37.86.54,1.08.54s.6-.13.43-.49S37.35,60.64,37.35,60.64Z" transform="translate(0 -0.06)" fill="#f08321"/>
          <path d="M36.06,60.91s.16.16.64.05.44-.22.49-.16.16.48-.27.43A2.43,2.43,0,0,1,36.06,60.91Z" transform="translate(0 -0.06)" fill="#e85824"/>
        </g>
        <g>
          <path d="M24.56,60.81a12.18,12.18,0,0,1-1.69.09c-.33,0-.65-.38-.76.22A2.49,2.49,0,0,0,22.38,63c.38.44,1.08,1.68,3.84,1.46s2.33-2.38,1.73-2.92S24.56,60.81,24.56,60.81Z" transform="translate(0 -0.06)" fill="#fac112"/>
          <path d="M25.93,58.33a1.57,1.57,0,0,0-1.47,2.06,1.61,1.61,0,0,0,2.38,1.19,2,2,0,0,0,1-1.95A1.55,1.55,0,0,0,25.93,58.33Z" transform="translate(0 -0.06)" fill="#fddb00"/>
          <ellipse cx="26.68" cy="59.81" rx="0.27" ry="0.35" fill="#5b2415"/>
          <path d="M25.17,62.5a6,6,0,0,1-1.62-.27c-.87-.27-.92.54-.49,1s1.78,1.51,3,.75S25.65,62.44,25.17,62.5Z" transform="translate(0 -0.06)" fill="#f49f1d"/>
          <path d="M28.47,60.77s.75-.49.27-.54a5,5,0,0,1-1-.16A2.19,2.19,0,0,0,27,61c-.11.38.87.54,1.08.54s.6-.13.44-.49S28.47,60.77,28.47,60.77Z" transform="translate(0 -0.06)" fill="#f08321"/>
          <path d="M27.17,61s.16.16.65.05.43-.21.48-.16.17.49-.27.43A2.43,2.43,0,0,1,27.17,61Z" transform="translate(0 -0.06)" fill="#e85824"/>
        </g>
      </g>
      <g>
        <path d="M35.37,37.66l-.92,0v1.63h-.6V34.85c2.06-.3,2.75.29,2.75,1.21a1.56,1.56,0,0,1-.75,1.3l1.07,1.94-.65.09Zm-.92-.41,1,0a1.21,1.21,0,0,0,.59-1c0-.65-.47-1-1.56-.88Z" transform="translate(0 -0.06)" fill="#f08321"/>
        <path d="M40,38.93a1.84,1.84,0,0,1-1.18.48c-.63,0-1-.36-1-1.23V35.8l.59,0V38c0,.7.26.93.7.93a1.49,1.49,0,0,0,.9-.33c0-.63,0-1.56,0-2.8h.59c0,1.55,0,2.7,0,3.52l-.54,0Z" transform="translate(0 -0.06)" fill="#f08321"/>
        <path d="M41.77,39.23v-5l.58-.05V36.1a1.57,1.57,0,0,1,1-.4c.76,0,1.31.66,1.31,1.69a1.9,1.9,0,0,1-1.87,2A3.2,3.2,0,0,1,41.77,39.23Zm2.34-1.69c0-.88-.41-1.35-1-1.35a1.29,1.29,0,0,0-.79.28v2.31a2,2,0,0,0,.66.12C43.64,38.9,44.11,38.44,44.11,37.54Z" transform="translate(0 -0.06)" fill="#f08321"/>
        <path d="M45.73,39.23v-5l.59-.05V36.1a1.57,1.57,0,0,1,1-.4c.75,0,1.31.66,1.31,1.69a1.91,1.91,0,0,1-1.88,2A3.24,3.24,0,0,1,45.73,39.23Zm2.34-1.69c0-.88-.4-1.35-1-1.35a1.29,1.29,0,0,0-.78.28v2.31a1.91,1.91,0,0,0,.65.12C47.61,38.9,48.07,38.44,48.07,37.54Z" transform="translate(0 -0.06)" fill="#f08321"/>
        <path d="M49.53,37.6a1.78,1.78,0,0,1,1.66-1.9c1,0,1.46.78,1.33,1.94l-2.42.06c.06.84.59,1.16,2.3,1.2l-.06.5C50.12,39.39,49.53,38.75,49.53,37.6Zm.57-.26L52,37.28c0-.67-.29-1.1-.88-1.1S50.15,36.58,50.1,37.34Z" transform="translate(0 -0.06)" fill="#f08321"/>
        <path d="M53.5,39.32v-.45h.94c0-1.08,0-1.91,0-2.62l-.89,0,0-.42h1.37c0,.08,0,.44.05.61a2.62,2.62,0,0,1,1.61-.74l0,.62a3.46,3.46,0,0,0-1.62.47c0,.62,0,1.31,0,2.13h1.2l-.05.45Z" transform="translate(0 -0.06)" fill="#f08321"/>
        <path d="M57.6,39.33V34.84c2.18-.31,3,.42,3,2.16S59.6,39.63,57.6,39.33Zm.59-4v3.53c1.25.19,1.8-.43,1.8-1.75S59.49,35.16,58.19,35.31Z" transform="translate(0 -0.06)" fill="#f08321"/>
        <path d="M63.76,38.93a1.87,1.87,0,0,1-1.18.48c-.63,0-1-.36-1-1.23V35.8l.58,0V38c0,.7.26.93.71.93a1.51,1.51,0,0,0,.9-.33c0-.63,0-1.56,0-2.8h.58c0,1.55,0,2.7,0,3.52l-.54,0Z" transform="translate(0 -0.06)" fill="#f08321"/>
        <path d="M68.21,35.73l0,.56c-1.83,0-2.18.49-2.18,1.24,0,.93.5,1.41,2.23,1.33l-.07.49c-2.14.14-2.74-.66-2.74-1.74S66.15,35.78,68.21,35.73Z" transform="translate(0 -0.06)" fill="#f08321"/>
        <path d="M70.72,37.73l-.53,0v1.57h-.58v-5l.58-.05v3.09h.55a17.66,17.66,0,0,0,1.17-1.53l.6,0c-.4.57-.83,1.14-1.28,1.67l1.36,1.8-.62.08Z" transform="translate(0 -0.06)" fill="#f08321"/>
      </g>
      <g>
        <path d="M35,44a1.59,1.59,0,0,1-1,.53c-.33,0-.58-.29-.58-.86A1.72,1.72,0,0,1,35,41.85a1.84,1.84,0,0,1,.39,0l.2-1.07.42,0-.59,3c-.08.39-.05.47.45.28l.05.21C35.15,44.76,34.93,44.55,35,44Zm0-.31.28-1.43a2,2,0,0,0-.52-.09c-.51,0-.93.7-.93,1.4,0,.39.16.57.37.57A1.37,1.37,0,0,0,35,43.72Z" transform="translate(0 -0.06)" fill="#f08321"/>
        <path d="M36.42,43.59A1.73,1.73,0,0,1,38,41.85c.46,0,.74.24.74.62,0,.6-.69,1-1.9,1.06h0c0,.69.5.86,1.7.46l0,.22C37.18,44.93,36.42,44.45,36.42,43.59Zm.43-.31c.9-.06,1.48-.3,1.48-.73,0-.21-.17-.36-.44-.36A1.19,1.19,0,0,0,36.85,43.28Z" transform="translate(0 -0.06)" fill="#f08321"/>
        <path d="M39.29,44.43,40,40.82l.4,0-.31,1.6a1.69,1.69,0,0,1,1-.53c.34,0,.59.28.59.87a1.72,1.72,0,0,1-1.58,1.84A2.83,2.83,0,0,1,39.29,44.43Zm2-1.61c0-.41-.17-.59-.37-.59a1.46,1.46,0,0,0-.84.49l-.27,1.4a2,2,0,0,0,.53.09C40.81,44.21,41.24,43.52,41.24,42.82Z" transform="translate(0 -0.06)" fill="#f08321"/>
        <path d="M43.77,44a1.41,1.41,0,0,1-1,.61c-.39,0-.59-.31-.43-1l.19-.88-.22-.14.39-.65.42,0-.37,1.65c-.11.45,0,.62.22.62s.51-.19.84-.57l.33-1.69h.4l-.38,1.92c-.07.37,0,.46.43.27l.05.21C43.89,44.76,43.68,44.56,43.77,44Z" transform="translate(0 -0.06)" fill="#f08321"/>
        <path d="M45.07,45.41l0-.41c1,.09,1.47,0,1.58-.12s0-.52,0-1.07a1.28,1.28,0,0,1-.94.57c-.36,0-.63-.27-.63-.82a1.63,1.63,0,0,1,1.5-1.71,1.34,1.34,0,0,1,.55.13c.06-.08.1-.13.14-.13s.28.07.28.15a5,5,0,0,1-.52,1.37c0,.09,0,.18,0,.25,0,.69.14,1.06,0,1.32S46.32,45.48,45.07,45.41Zm1.64-2a5.06,5.06,0,0,1,.28-1.1,1.27,1.27,0,0,0-.54-.15c-.53,0-.91.65-.91,1.26,0,.37.17.54.41.54A1,1,0,0,0,46.71,43.45Z" transform="translate(0 -0.06)" fill="#f08321"/>
        <path d="M48,45.41,48,45c1,.09,1.47,0,1.58-.12s0-.52,0-1.07a1.28,1.28,0,0,1-.93.57c-.36,0-.63-.27-.63-.82a1.63,1.63,0,0,1,1.49-1.71,1.31,1.31,0,0,1,.55.13c.06-.08.11-.13.14-.13s.28.07.28.15A5,5,0,0,1,50,43.37c0,.09,0,.18,0,.25,0,.69.14,1.06,0,1.32S49.23,45.48,48,45.41Zm1.64-2a4.54,4.54,0,0,1,.29-1.1,1.34,1.34,0,0,0-.54-.15c-.54,0-.92.65-.92,1.26,0,.37.17.54.41.54A1,1,0,0,0,49.62,43.45Z" transform="translate(0 -0.06)" fill="#f08321"/>
        <path d="M51,43.59a1.72,1.72,0,0,1,1.56-1.74c.46,0,.74.24.74.62,0,.6-.68,1-1.9,1.06h0c0,.69.5.86,1.7.46l.06.22C51.73,44.93,51,44.45,51,43.59Zm.42-.31c.9-.06,1.48-.3,1.48-.73,0-.21-.17-.36-.44-.36A1.19,1.19,0,0,0,51.4,43.28Z" transform="translate(0 -0.06)" fill="#f08321"/>
        <path d="M55.63,42.37a3.35,3.35,0,0,1-.84.14A5.27,5.27,0,0,1,54,43.68l-.17-.16a4.48,4.48,0,0,0,.71-1c-.16,0-.26-.11-.26-.24a.58.58,0,0,1,.52-.51A.2.2,0,0,1,55,42a.76.76,0,0,1,0,.21,3.94,3.94,0,0,0,1-.29l.2.11c-.93,2.24-.77,2.4,0,2.14l0,.22C55.1,44.86,54.73,44.47,55.63,42.37Z" transform="translate(0 -0.06)" fill="#f08321"/>
      </g>
    </g>
    <g id="javascript-duck">
      <polygon points="76.56 137.18 106.74 119.76 106.75 84.89 76.56 67.47 46.37 84.89 46.37 119.75 76.56 137.18" fill="#fbf398"/>
      <g>
        <path d="M96.15,119.12c-1.83,2.2-4.75,4-9.15,5a33.88,33.88,0,0,1-4.59.67c-20.77,1.63-26-7.74-28.9-11s-2.85-9.76-2-14.24,3.26-2,5.7-1.63,12.74-.68,12.74-.68h.14A134.66,134.66,0,0,1,87.9,99.82c.86.2,1.69.42,2.46.65a13.63,13.63,0,0,1,5.07,2.36l.19.18C98.49,105.86,100.71,113.65,96.15,119.12Z" transform="translate(0 -0.06)" fill="#fac112"/>
        <path d="M80.17,78.6s-13.84.41-11,15.47,16.69,9.37,17.91,9,8.55-5.7,7.33-14.66S84.24,77.38,80.17,78.6Z" transform="translate(0 -0.06)" fill="#fddb00"/>
        <ellipse cx="85.86" cy="90.14" rx="2.04" ry="2.65" fill="#5b2415"/>
        <path d="M99.3,96.92s5.7-3.66,2-4.07S94.42,92,94,91.63,88.72,96.11,87.9,99,94.42,103,96,103s4.49-1,3.26-3.67C98.28,97.13,99.3,96.92,99.3,96.92Z" transform="translate(0 -0.06)" fill="#f08321"/>
        <path d="M89.53,99s1.22,1.22,4.89.4,3.25-1.62,3.66-1.22,1.22,3.67-2,3.26A19,19,0,0,1,89.53,99Z" transform="translate(0 -0.06)" fill="#e85824"/>
      </g>
      <path d="M78.09,111.13H82.2v7.21a11.62,11.62,0,0,1-.4,3.46,4,4,0,0,1-1.62,2,5.57,5.57,0,0,1-3.12.82,7.29,7.29,0,0,1-3.12-.54,4.1,4.1,0,0,1-1.71-1.59,6.12,6.12,0,0,1-.71-2.59l3.92-.53a4.44,4.44,0,0,0,.16,1.3,1.38,1.38,0,0,0,.49.69,1.14,1.14,0,0,0,.67.17,1.11,1.11,0,0,0,1-.51,3.43,3.43,0,0,0,.32-1.72Z" transform="translate(0 -0.06)" fill="#231f20"/>
      <path d="M95.73,118.12A4,4,0,0,0,94,116.65a16.76,16.76,0,0,0-3.85-1.17,3.39,3.39,0,0,1-1.38-.49.74.74,0,0,1-.3-.57.93.93,0,0,1,.36-.74,1.66,1.66,0,0,1,1.08-.31,1.81,1.81,0,0,1,2,1.71l3.87-.22a4.15,4.15,0,0,0-1.59-3,6.69,6.69,0,0,0-3.88-.95,8.52,8.52,0,0,0-3.27.52,4,4,0,0,0-1.78,1.43,3.47,3.47,0,0,0-.59,1.94,3.21,3.21,0,0,0,1.16,2.56A8.79,8.79,0,0,0,89.72,119a5.22,5.22,0,0,1,2.1.77,1.23,1.23,0,0,1,.46.93,1.22,1.22,0,0,1-.48,1,2,2,0,0,1-1.35.41,2.17,2.17,0,0,1-1.81-.8,3,3,0,0,1-.52-1.45l-3.9.24a5.13,5.13,0,0,0,1.47,3.32,3.84,3.84,0,0,0,1.31.81c4.4-1,7.32-2.82,9.15-5A3.66,3.66,0,0,0,95.73,118.12Z" transform="translate(0 -0.06)" fill="#231f20"/>
    </g>
    <g id="html-duck">
      <polygon points="106.36 85.46 136.48 68.06 136.49 33.27 106.36 15.87 76.22 33.27 76.22 68.06 106.36 85.46" fill="#dcaa9d"/>
      <g>
        <path d="M92.3,43.62s-.9,5.91,3.91,7.27,8.64,1.37,15.91-2.36,3.27-16.63,3.27-16.63-4.09-9-14.27-6.18a11.93,11.93,0,0,0-9.27,12.36Z" transform="translate(0 -0.06)" fill="#d34128"/>
        <path d="M115.57,46.74s3.18-3.66,6.54-2.75,4,6.45,4,6.45S120.38,48.76,115.57,46.74Z" transform="translate(0 -0.06)" fill="#bc4327"/>
        <path d="M85.61,56.14s-2.36-5.17,4-6.88,3.73,2.47,3.73,2.47S88.73,56.65,85.61,56.14Z" transform="translate(0 -0.06)" fill="#bc4327"/>
        <path d="M129.66,54.44c0,1.45-1,13.27-10.27,17.35s-27,1-29.82-.9-5.9-1.73-5-10.82a12.86,12.86,0,0,1,2-5.75,14.94,14.94,0,0,1,2.6-3A18.9,18.9,0,0,1,95,47.71s4.82-1.18,16.9-1.18S129.66,53,129.66,54.44Z" transform="translate(0 -0.06)" fill="#e34f25"/>
        <path d="M116.48,55.07s6.9-4.45,13.17-4.63,1.2,8.15,0,9.27-3.78,5.23-11.87,2.78S116.48,55.07,116.48,55.07Z" transform="translate(0 -0.06)" fill="#bc4327"/>
        <path d="M102.3,41.44S98.48,35,92.94,34.63c0,0-3-2.64-5.91-.46s1.37,7.27,1.37,7.27-2.82,2.46-1.82,3.27S91.21,49.35,98,46,102.3,41.44,102.3,41.44Z" transform="translate(0 -0.06)" fill="#f48220"/>
        <path d="M99.12,42.35S90,36.24,87.38,40l1,1.42-1.77,2a15.86,15.86,0,0,0,6.77,0A49.23,49.23,0,0,1,99.12,42.35Z" transform="translate(0 -0.06)" fill="#f05827"/>
        <ellipse cx="106.66" cy="34.61" rx="2.18" ry="2.59" fill="#50200c"/>
      </g>
      <g>
        <path d="M95.27,54H90.46l.3,3.5,4.51,0,8,0-.93,10.55-7,2h0l-7-2-.51-5.35,3.45,0,.26,2.76,3.82,1,3.84-1L99.44,61H87.63L87,54.05a17.47,17.47,0,0,1,3-3.46h13.89L103.48,54Z" transform="translate(0 -0.06)" fill="#fff"/>
        <path d="M95.27,54H90.46l.3,3.5,4.51,0V61H87.63L87,54.05a17.47,17.47,0,0,1,3-3.46h5.3Z" transform="translate(0 -0.06)" fill="#cccbcb"/>
        <polygon points="91.44 65.34 95.26 66.34 95.26 69.93 88.24 67.96 87.74 62.62 91.18 62.58 91.44 65.34" fill="#cccbcb"/>
      </g>
    </g>
    <g id="css-duck">
      <polygon points="136.55 137.18 166.73 119.76 166.74 84.89 136.55 67.47 106.36 84.89 106.36 119.75 136.55 137.18" fill="#9bbed2"/>
      <path d="M155.63,113.54c-.59,4.29-10.18,8-19.76,8.46V95.69c4.66-.23,9.43,0,12,1.43h0C153.75,100.53,156.72,105.7,155.63,113.54Z" transform="translate(0 -0.06)" fill="#1787c7"/>
      <path d="M131.37,112.72h-3.72l.62,6,7.6,2.2V122c-7.94.42-15.87-1.34-18.68-6.71-6.14-11.74,6.11-18,6.39-18.17a10,10,0,0,0,1.56,1.29,12.35,12.35,0,0,0,3,1.45h-1.69l.51,3.7h8.83L127,107.4l.61,3.48,8.22,0v5.64l-.18,0-3.95-1Z" transform="translate(0 -0.06)" fill="#166ca4"/>
      <path d="M147.83,97.13a9.33,9.33,0,0,1-1.89,1.28,21.39,21.39,0,0,1-3.73,1.45,26.07,26.07,0,0,1-6.34,1V76.68l.7,0c9.7,1,13.51,7.3,13.72,8.93C150.49,87.11,152,93.43,147.83,97.13Z" transform="translate(0 -0.06)" fill="#1495cd"/>
      <path d="M135.87,76.68V99.86h-7.72a12.35,12.35,0,0,1-3-1.45,10,10,0,0,1-1.56-1.29c-3.48-3.5-3.48-8.78-2-12.44C121.55,84.68,126.62,76.18,135.87,76.68Z" transform="translate(0 -0.06)" fill="#1495cd"/>
      <polygon points="145.15 103.25 136.54 106.93 144.48 106.93 143.52 118.39 135.97 120.84 135.87 120.81 135.87 116.41 139.97 115.69 140.46 110.74 135.87 110.77 135.87 99.8 145.15 99.8 145.15 103.25" fill="#fff"/>
      <polygon points="135.87 99.8 135.87 110.77 127.64 110.81 127.04 107.34 135.8 103.5 126.97 103.5 126.45 99.8 135.87 99.8" fill="#e2e2e2"/>
      <polygon points="135.87 116.41 135.87 120.81 128.26 118.61 127.64 112.66 131.37 112.66 131.74 115.43 135.69 116.44 135.87 116.41" fill="#e2e2e2"/>
      <path d="M157.7,104.61s-1.71-4.08-4.39-2.69-1.71,6.18-.84,8.36,2.73,5.11,4.69,1.52A9.16,9.16,0,0,0,157.7,104.61Z" transform="translate(0 -0.06)" fill="#0a5887"/>
      <path d="M119.47,103.63a2.51,2.51,0,0,0-2.72-2c-2.39,0-3.27,5.77-3.16,7.21s1.53,6.88,4.47,3.83S119.47,103.63,119.47,103.63Z" transform="translate(0 -0.06)" fill="#0a5887"/>
      <path d="M128.79,94.24s2,2,7.39,1.92S142.94,94,142.94,94,135.18,90.26,128.79,94.24Z" transform="translate(0 -0.06)" fill="#cc6f28"/>
      <path d="M129.18,92.21a14.8,14.8,0,0,0,4.12-3.11c1.11-1.56,4.27-1.09,4.89-.32s2.61,3.1,4.61,3.43.33,2.28-1.17,2-4.33-1.67-8.56-.55S126.47,94,129.18,92.21Z" transform="translate(0 -0.06)" fill="#ec8a2b"/>
      <ellipse cx="125.26" cy="88.29" rx="1.84" ry="1.89" fill="#361c0d"/>
      <ellipse cx="146.47" cy="88.29" rx="1.84" ry="1.89" fill="#361c0d"/>
    </g>
    <g id="terminal-duck">
      <polygon points="196.3 33.7 196.3 68.21 166.42 85.46 136.54 68.21 136.54 33.7 166.42 16.45 196.3 33.7" fill="#4d4c4d"/>
      <g>
        <path d="M159.72,71.35c10.34,2.75,16.75.23,20.45-3.52-5.18,3.1-9.56.34-9.83-1.48,0,0-.47-3.82,4.63-7.41,3-2.12,7.35-2.86,9.47-1.42-.24-5.18-1-10.63-4.71-15.71a2.71,2.71,0,0,0-3.28-1.06c.24,3.79-.7,9.24-6,12.56-5.43,3.43-13,1.11-16.94-1.37a8.88,8.88,0,0,1-1.07-.1,7.86,7.86,0,0,1-4.3-1.88A3.17,3.17,0,0,0,147,53.3s-3.7,5.09-.56,10.25C148.15,66.41,152,69.3,159.72,71.35Z" transform="translate(0 -0.06)" fill="#353535"/>
        <path d="M152.05,38.65c0-.07,0-.13,0-.19S152.07,38.58,152.05,38.65Z" transform="translate(0 -0.06)" fill="#ea565f"/>
        <path d="M152,38.92a1.29,1.29,0,0,1,0-.19A1.29,1.29,0,0,0,152,38.92Z" transform="translate(0 -0.06)" fill="#ea565f"/>
        <path d="M152.75,36.79l.23-.4Z" transform="translate(0 -0.06)" fill="#ea565f"/>
        <path d="M152.12,38.37a1.8,1.8,0,0,1,0-.19A1.8,1.8,0,0,0,152.12,38.37Z" transform="translate(0 -0.06)" fill="#ea565f"/>
        <path d="M152.4,37.54a1.69,1.69,0,0,1,.12-.28A1.69,1.69,0,0,0,152.4,37.54Z" transform="translate(0 -0.06)" fill="#ea565f"/>
        <path d="M154.41,40.54c.93.38,1.5,1.54,2.08,2.31s2.59,3.59,4.13,3.94,3.78.73,3.78,2.66-2.78,2.08-5.59,2c-2.4-.07-3.4.53-5.26.48,3.91,2.48,11.51,4.8,16.94,1.37,5.26-3.32,6.2-8.77,6-12.56a16.41,16.41,0,0,0-.32-2.33c-.77-3.47-4.79-6.1-5.4-7.41s-2.32-4.09-3.32-3.08-1.78,2.23-6.19,2.85a11.25,11.25,0,0,0-8.23,5.6c.16-.29.35-.58.54-.86a.93.93,0,0,1,.16.18c.36.6.06,1.88-.67,2.85a2.55,2.55,0,0,1-1.09.92,7.8,7.8,0,0,0,.07,1.9,4.08,4.08,0,0,0,1-.48A1.68,1.68,0,0,1,154.41,40.54Zm7.05,0a2.1,2.1,0,1,1,.91,3A2.2,2.2,0,0,1,161.46,40.56Z" transform="translate(0 -0.06)" fill="#444344"/>
        <path d="M152.29,37.82c0-.07.05-.13.07-.2S152.31,37.75,152.29,37.82Z" transform="translate(0 -0.06)" fill="#ea565f"/>
        <path d="M152,39.19l0-.19Z" transform="translate(0 -0.06)" fill="#ea565f"/>
        <path d="M151.93,39.46c0-.06,0-.13,0-.2S151.94,39.4,151.93,39.46Z" transform="translate(0 -0.06)" fill="#ea565f"/>
        <path d="M152.52,37.26l.2-.4Z" transform="translate(0 -0.06)" fill="#ea565f"/>
        <path d="M152.2,38.09a1.27,1.27,0,0,1,.06-.18A1.27,1.27,0,0,0,152.2,38.09Z" transform="translate(0 -0.06)" fill="#ea565f"/>
        <path d="M162.37,43.52a2.29,2.29,0,1,0-.91-3A2.18,2.18,0,0,0,162.37,43.52Z" transform="translate(0 -0.06)" fill="#c6c5c5"/>
        <path d="M153,38.55c.73-1,1-2.25.67-2.85a.93.93,0,0,0-.16-.18c-.19.28-.38.57-.54.86h0l-.23.4,0,.07-.2.4a1.69,1.69,0,0,0-.12.28.3.3,0,0,0,0,.08c0,.07-.05.13-.07.2l0,.09a1.27,1.27,0,0,0-.06.18l0,.09a1.8,1.8,0,0,0,0,.19.29.29,0,0,0,0,.09c0,.06,0,.12,0,.19s0,.05,0,.08a1.29,1.29,0,0,0,0,.19s0,0,0,.08l0,.19s0,.05,0,.07,0,.14,0,.2h0A2.55,2.55,0,0,0,153,38.55Z" transform="translate(0 -0.06)" fill="#c6c5c5"/>
        <path d="M152.48,51.84a8.88,8.88,0,0,0,1.07.1c1.86.05,2.86-.55,5.26-.48,2.81.07,5.59-.08,5.59-2s-2.24-2.31-3.78-2.66-3.55-3.16-4.13-3.94-1.15-1.93-2.08-2.31a1.68,1.68,0,0,0-1.39.35,4.08,4.08,0,0,1-1,.48,4.44,4.44,0,0,1-2.22.17c-1.47-.27-2.35-.11-2.78.47s0,1.58,1,2.16A2.86,2.86,0,0,1,149.32,46c-2,1.67-2,3-1.14,3.94A7.86,7.86,0,0,0,152.48,51.84Zm-2.55-7.52c3.86.35,7.72,4.4,7.72,4.4-1-.7-2.93.34-5.25-.31s-1.46-1.85-1.39-2.19-.34-.36-.84-.7S149.08,44.24,149.93,44.32Z" transform="translate(0 -0.06)" fill="#f5851f"/>
        <path d="M150.17,45.52c.5.34.92.36.84.7s-.92,1.53,1.39,2.19,4.25-.39,5.25.31c0,0-3.86-4-7.72-4.4C149.08,44.24,149.66,45.17,150.17,45.52Z" transform="translate(0 -0.06)" fill="#f05822"/>
        <path d="M175,58.94c-5.1,3.59-4.63,7.41-4.63,7.41.27,1.82,4.65,4.58,9.83,1.48a16.32,16.32,0,0,0,4.13-3.71l.16-.2c1.84-3.36,1.44-5.4,0-6.4C182.32,56.08,178,56.82,175,58.94Z" transform="translate(0 -0.06)" fill="#212120"/>
      </g>
      <g>
        <path d="M173.13,67.61l-.49-.48.73-1.68-1.66.74-.48-.48,2.46-1,.41.41Z" transform="translate(0 -0.06)" fill="#0baa4b"/>
        <path d="M176,66.74l-.31-.32,2-2,.31.31Z" transform="translate(0 -0.06)" fill="#0baa4b"/>
      </g>
    </g>
    <g id="node-duck">
      <polygon points="195.91 137.18 226.1 119.76 226.1 84.89 195.91 67.47 165.72 84.89 165.72 119.75 195.91 137.18" fill="#bcd2b9"/>
      <path d="M176.72,101.73c3.36.74,7.34,2.29,9.22,4,3.21,3,1.69,5.45,1.36,5.86-.92,1.13-7,3.89-12.3.38h0c-5.28-3.51-5.51-9.13-3.51-10.38.83-.52,2.88-.41,5.23.1.07-3.6,2.21-7.11,5.18-7,2.32.11,4.29,1.84,5.31,2.93-.77.09-1.61.22-2.53.41C180.68,98.92,178.26,100.07,176.72,101.73Z" transform="translate(0 -0.06)" fill="#497a43"/>
      <path d="M208.41,99.57l.09-.13a9.74,9.74,0,0,1,5.86,1.85c1.95,1.67,1.6,4.16,1.18,5.58A14.17,14.17,0,0,0,208.41,99.57Z" transform="translate(0 -0.06)" fill="#497a43"/>
      <path id="body" d="M216.83,114.18v.33a5,5,0,0,1-.07.77c-.74,4.69-7.31,8.69-20.93,8.83-14.49.16-14.47-3.73-17.86-6.62-.16-.14-.32-.29-.47-.45a11.06,11.06,0,0,1-2.5-5c5.28,3.51,11.38.75,12.3-.38.33-.41,1.85-2.89-1.36-5.86-1.88-1.75-5.86-3.3-9.22-4,1.54-1.66,4-2.81,8-3.64.92-.19,1.77-.32,2.53-.41l1.07-.09a7.82,7.82,0,0,0,.79.91c3.56,3.51,11,5.33,15.84,3.63a3.8,3.8,0,0,0,.47-.18,6.44,6.44,0,0,0,.65-.3,6.21,6.21,0,0,0,.78-.47,5.84,5.84,0,0,0,1.6-1.61,16.08,16.08,0,0,1,4.18,2.93c.27.27.53.54.77.82s.43.52.62.79a13,13,0,0,1,1.56,2.76c0,.09.08.18.11.27a15.16,15.16,0,0,1,.7,2.3,20.12,20.12,0,0,1,.44,3.28C216.82,113.22,216.83,113.7,216.83,114.18Z" transform="translate(0 -0.06)" fill="#63965c"/>
      <g>
        <path d="M207,118.14a3,3,0,0,1-1.67,0l-2.06-.48a1.45,1.45,0,0,1-1.07-1L199.82,109a1.47,1.47,0,0,1,.33-1.43l5.23-5.6.28-.29h0a1.54,1.54,0,0,1,1.11-.47h0l.27,0,5.51,1.28c.27.27.53.54.77.82s.43.52.62.79l-7.18-1.67a.22.22,0,0,0-.21.06l-5.52,5.9a.2.2,0,0,0,0,.21l2.34,7.73a.24.24,0,0,0,.16.15l2.16.5c1.15.19,1.58-.58,1.4-1.17l-2.32-7.62a.19.19,0,0,1,.13-.25l.85-.26a.2.2,0,0,1,.25.13l2.32,7.63A1.93,1.93,0,0,1,207,118.14Z" transform="translate(0 -0.06)" fill="#fff"/>
        <path d="M216.83,114.18v.33l-4.31,4.6a1.48,1.48,0,0,1-.65.41h0a1.63,1.63,0,0,1-.76,0l-2.64-.65c-.39-.08-.25-.2-.15-.27a4.34,4.34,0,0,0,.87-.77.17.17,0,0,1,.17,0l2,.49a.26.26,0,0,0,.21-.06l5.18-5.54C216.82,113.22,216.83,113.7,216.83,114.18Z" transform="translate(0 -0.06)" fill="#fff"/>
        <path id="_Path_" data-name="&lt;Path&gt;" d="M212.33,113.57c-2.93.89-4-.27-4.3-1.4a.2.2,0,0,1,.14-.25l.86-.26a.2.2,0,0,1,.24.1c.4.85.93,1.17,2.7.63,1.41-.43,1.91-.93,1.68-1.67-.13-.44-.4-.7-2.65-.25-1.89.38-3.15.32-3.59-1.15s.48-2.5,2.39-3.08c2.14-.65,3.43-.23,4,1.32a.25.25,0,0,1,0,.17.24.24,0,0,1-.13.11l-.87.26a.19.19,0,0,1-.23-.09c-.49-.87-1.09-1-2.46-.59-1.54.47-1.56,1.06-1.44,1.46s.4.57,2.57.21,3.23-.27,3.67,1.18-.52,2.66-2.64,3.31Z" transform="translate(0 -0.06)" fill="#fff"/>
      </g>
      <path d="M210.88,87.45c2.34,7.47-1.29,15.58-9,15.67-1.05,0-13.19-.5-15.54-8s1.24-15.24,8-17.37S208.53,80,210.88,87.45Z" transform="translate(0 -0.06)" fill="#7db776"/>
      <path d="M195.8,88.44a2.44,2.44,0,0,1-2.71-2.14,2.47,2.47,0,0,1,1.85-2.94,2.44,2.44,0,0,1,2.72,2.14A2.47,2.47,0,0,1,195.8,88.44Z" transform="translate(0 -0.06)" fill="#521b00"/>
      <path d="M199.82,95a1.6,1.6,0,0,1-.47-2.29c.13-.24.44-.38.88-.52a6,6,0,0,0,.36-1c.2-.89,3.35-5,7.92-5.26h0a7,7,0,0,1,.67-.57,4.1,4.1,0,0,1,4.21-.47c3.58,1.36.69,5.76-.18,7.32.18-.33.46-.8.75-1.33a6.79,6.79,0,0,0-2.58-1c-2.36-.34-7.76,3.35-9.2,3.46s4.25.47,5.76,1.3a9.63,9.63,0,0,0,6.81.12c-.3-.76-1.33-1.41-1.67-1.85.4.52,1.79,1.34,1.75,2.3s-3.07,2.9-5.85,3.27a7.57,7.57,0,0,1-.94.07C205.06,98.56,200.69,95.74,199.82,95Z" transform="translate(0 -0.06)" fill="#f5851f"/>
      <path d="M214.75,94.77a9.63,9.63,0,0,1-6.81-.12c-1.51-.83-7.2-1.2-5.76-1.3s6.84-3.8,9.2-3.46a6.79,6.79,0,0,1,2.58,1c-.29.53-.57,1-.75,1.33l0,0,0,.05,0,0,0,0,0,.06v0l0,.06v0l0,0v0l0,0v0a.06.06,0,0,0,0,0h0a0,0,0,0,0,0,0v0a0,0,0,0,0,0,0h0v0h0l0,0h0l0,0h0C213.42,93.36,214.45,94,214.75,94.77Z" transform="translate(0 -0.06)" fill="#f05822"/>
    </g>
  </g>
</svg>
