<svg id="Layer_1" xmlns="http://www.w3.org/2000/svg" viewBox="0 0 190.78 724.27">
  <defs>
    <linearGradient id="linear-gradient" x1="95.65" y1="658.77" x2="95.65" y2="108.09" gradientUnits="userSpaceOnUse">
      <stop offset="0" stop-color="#1360b7"/>
      <stop offset="1" stop-color="#13b7b7"/>
    </linearGradient>
    <linearGradient id="linear-gradient-2" x1="0.5" y1="55.9" x2="190.28" y2="55.9" gradientUnits="userSpaceOnUse">
      <stop offset="0.49" stop-color="#464646"/>
      <stop offset="0.54" stop-color="#363636"/>
    </linearGradient>
    <linearGradient id="linear-gradient-3" x1="0" y1="55.9" x2="190.78" y2="55.9" xlink:href="#linear-gradient-2"/>
    <linearGradient id="linear-gradient-4" x1="-215.76" y1="534.78" x2="-25.99" y2="534.78" gradientTransform="translate(225.52 165.7)" gradientUnits="userSpaceOnUse">
      <stop offset="0.47" stop-color="#363636"/>
      <stop offset="0.52" stop-color="#464646"/>
    </linearGradient>
    <linearGradient id="linear-gradient-5" x1="-216.26" y1="534.78" x2="-25.49" y2="534.78" gradientTransform="translate(225.52 165.7)" xlink:href="#linear-gradient-2"/>
  </defs>
  <title>fishtank</title>
  <g id="fishtank">
    <rect id="water" x="0.76" y="108.09" width="189.78" height="550.68" fill="url(#linear-gradient)"/>
    <g id="tall-plant" transform="translate(-9.26 -8.76)">
      <path d="M146.26,175.2s21.58,5.35,19.57-2.45S151.81,172.62,146.26,175.2Z"  fill="#5b9850"/>
      <path d="M146.61,174.57s-22.22.53-18.23,7.52S141.94,178.52,146.61,174.57Z" fill="#87bb73"/>
      <path d="M146.26,175.21S166.42,165.84,160,161,149,169.72,146.26,175.21Z" fill="#66af4a"/>
      <path d="M146.94,174.27s-21.4,6.1-19.67-2.23S141.3,171.64,146.94,174.27Z" fill="#bce3ac"/>
      <path d="M146.2,177.69s9.42-23.18-1.77-22.42S143,171,146.2,177.69Z" fill="#246648"/>
      <path d="M154.52,636.28S123.58,599,158.46,482.33s4.5-258.38,0-267.76-15.19-35.3-12.38-45.23" fill="none" stroke="#35843f" stroke-miterlimit="10"/>
      <path d="M160.85,220.45s-21.15-6.85-19.7,1.07S155.13,222.63,160.85,220.45Z"  fill="#5b9850"/>
      <path d="M160.45,221.05s22.21,1,18.72-6.22S165.4,217.44,160.45,221.05Z"  fill="#87bb73"/>
      <path d="M160.85,220.44s-20.76,7.93-14.67,13.19S157.77,225.72,160.85,220.44Z"  fill="#66af4a"/>
      <path d="M160.1,221.32s21.78-4.57,19.47,3.61S165.55,224.35,160.1,221.32Z"  fill="#bce3ac"/>
      <path d="M151.28,193.44s-13.55,17.32-16.48,10.83S145.53,195.25,151.28,193.44Z"  fill="#87bb73"/>
      <path d="M151.29,193.44s-20.9,6.58-18.69-.74S146.06,191.5,151.29,193.44Z"  fill="#5b9850"/>
      <path d="M150.83,193.78s21.8-4.41,16-12.52S154.42,188,150.83,193.78Z"  fill="#66af4a"/>
      <path d="M150.58,194.21s19.54-11.26,20-.52S156.84,196.56,150.58,194.21Z"  fill="#246648"/>
      <path d="M168.62,257.84s-20.24-9.18-19.69-1.15S162.7,259.37,168.62,257.84Z"  fill="#5b9850"/>
      <path d="M168.16,258.4s22,3.52,19.3-4.08S173.48,255.36,168.16,258.4Z"  fill="#87bb73"/>
      <path d="M168.63,257.83s-21.53,5.56-16.06,11.46S165,262.74,168.63,257.83Z"  fill="#66af4a"/>
      <path d="M167.78,258.63s22.16-2.1,18.95,5.77S172.86,262.25,167.78,258.63Z"  fill="#bce3ac"/>
      <path d="M172.14,302.25s19.56,10.56,19.57,2.51S178.16,301.14,172.14,302.25Z"  fill="#5b9850"/>
      <path d="M172.64,301.73s-21.65-5-19.54,2.73S167.13,304.39,172.64,301.73Z"  fill="#87bb73"/>
      <path d="M172.14,302.26S194,298.21,189,291.94,176.13,297.62,172.14,302.26Z"  fill="#66af4a"/>
      <path d="M173,301.52s-22.24.56-18.5-7.06S168.22,297.56,173,301.52Z"  fill="#bce3ac"/>
      <path d="M175.45,335.35s-21.15-6.85-19.7,1.07S169.73,337.53,175.45,335.35Z"  fill="#5b9850"/>
      <path d="M175.05,336s22.2,1,18.72-6.22S180,332.34,175.05,336Z"  fill="#87bb73"/>
      <path d="M175.45,335.34s-20.77,7.93-14.67,13.19S172.36,340.63,175.45,335.34Z"  fill="#66af4a"/>
      <path d="M174.7,336.23s21.78-4.58,19.47,3.6S180.15,339.25,174.7,336.23Z"  fill="#bce3ac"/>
      <path d="M175.88,377.34s-13.07-18-16.56-10.73S170,375.74,175.88,377.34Z"  fill="#5b9850"/>
      <path d="M175.2,377.6s17.34,13.91,18.8,6S181.32,377.59,175.2,377.6Z"  fill="#87bb73"/>
      <path d="M175.88,377.34s-21.45-5.81-19.62,2S170.28,379.8,175.88,377.34Z"  fill="#66af4a"/>
      <path d="M174.76,377.61s20.29,9.13,13.61,14.38S177.38,383.27,174.76,377.61Z"  fill="#bce3ac"/>
      <path d="M172.91,411.65s-17.95-13.11-19-5.14S166.79,411.93,172.91,411.65Z"  fill="#5b9850"/>
      <path d="M172.34,412.1s20.77,7.92,19.73-.06S178.16,410.21,172.34,412.1Z"  fill="#87bb73"/>
      <path d="M172.91,411.64s-22.21,1.05-18.06,7.95S168.33,415.7,172.91,411.64Z"  fill="#66af4a"/>
      <path d="M171.92,412.25s22.12,2.46,17.37,9.51S176.15,416.82,171.92,412.25Z"  fill="#bce3ac"/>
      <path d="M166.3,455.08s16.73,14.64,18.53,6.79S172.42,455.33,166.3,455.08Z"  fill="#5b9850"/>
      <path d="M166.91,454.68s-20-9.71-19.66-1.67S160.94,456.05,166.91,454.68Z"  fill="#87bb73"/>
      <path d="M166.3,455.09s22.21.91,18.68-6.33S171.22,451.45,166.3,455.09Z"  fill="#66af4a"/>
      <path d="M167.34,454.57s-21.82-4.39-16.47-11S163.52,449.64,167.34,454.57Z"  fill="#bce3ac"/>
      <path d="M157.24,489.65s-15.44-16-17.89-8.32S151.16,488.89,157.24,489.65Z"  fill="#5b9850"/>
      <path d="M156.6,490s19.1,11.36,19.44,3.32S162.66,489.14,156.6,490Z"  fill="#87bb73"/>
      <path d="M157.24,489.65s-22.06-2.78-19.15,4.73S152,492.86,157.24,489.65Z"  fill="#66af4a"/>
      <path d="M156.16,490.08s21.37,6.21,15.48,12.34S159.55,495.31,156.16,490.08Z"  fill="#bce3ac"/>
      <path d="M147.84,521.27s18.08,12.92,19.1,4.93S154,520.92,147.84,521.27Z"  fill="#5b9850"/>
      <path d="M148.4,520.81s-20.85-7.7-19.73.27S142.59,522.76,148.4,520.81Z"  fill="#87bb73"/>
      <path d="M147.83,521.28s22.19-1.29,18-8.14S152.37,517.17,147.83,521.28Z"  fill="#66af4a"/>
      <path d="M148.81,520.66s-22.14-2.23-17.47-9.33S144.53,516.13,148.81,520.66Z"  fill="#bce3ac"/>
      <path d="M142.18,552s-18.87-11.76-19.38-3.72S136.1,552.7,142.18,552Z"  fill="#5b9850"/>
      <path d="M141.65,552.46s21.29,6.37,19.66-1.52S147.31,550.15,141.65,552.46Z"  fill="#87bb73"/>
      <path d="M142.18,552s-22.07,2.68-17.42,9.26S137.91,556.34,142.18,552Z"  fill="#66af4a"/>
      <path d="M141.24,552.64s22.24.82,18,8.2S145.8,556.89,141.24,552.64Z"  fill="#bce3ac"/>
      <path d="M142.62,599.48s-21.15-6.85-19.7,1.07S136.9,601.66,142.62,599.48Z"  fill="#5b9850"/>
      <path d="M142.22,600.08s22.21,1,18.72-6.22S147.16,596.47,142.22,600.08Z"  fill="#87bb73"/>
      <path d="M142.62,599.47S121.85,607.4,128,612.66,139.53,604.76,142.62,599.47Z"  fill="#66af4a"/>
      <path d="M141.87,600.36s21.78-4.58,19.47,3.6S147.32,603.38,141.87,600.36Z"  fill="#bce3ac"/>
    </g>
    <g id="plant" transform="translate(-9.26 -8.76)" >
      <path d="M36.89,638.61s-19.49-7.74-11-60.73S8.15,512.15,18.15,462.41c0,0,2,31.5,17,50.74S27.14,608.37,36.89,638.61Z"  fill="#5eb142"/>
      <path d="M49.66,648.32s2.36-27.17-16-57.07c-12.15-19.74,10.55-10.93,12.61-112,0,0,2.75,62.3-4.13,90.83S55.39,597,49.66,648.32Z"  fill="#5f9655"/>
      <path d="M53.46,526.17s1.42,33.38,6.93,52.73S58.7,611,56.15,618.34s-6.8,15.13-5.1,25c0,0-6.8-14.9-3-36.45s6-26.28,4.11-46.16A126.91,126.91,0,0,1,53.46,526.17Z"  fill="#35843f"/>
    </g>
    <circle id="bubble8" cx="176.6" cy="630.44" r="2.25" fill="#ebf6ff"/>
    <circle id="bubble7" cx="151.86" cy="632.69" r="2.25" fill="#ebf6ff"/>
    <circle id="bubble6" cx="131.62" cy="630.44" r="2.25" fill="#ebf6ff"/>
    <circle id="bubble5" cx="106.89" cy="632.69" r="2.25" fill="#ebf6ff"/>
    <circle id="bubble4" cx="86.65" cy="632.69" r="2.25" fill="#ebf6ff"/>
    <circle id="bubble3" cx="61.91" cy="634.94" r="2.25" fill="#ebf6ff"/>
    <circle id="bubble2" cx="41.67" cy="632.69" r="2.25" fill="#ebf6ff"/>
    <circle id="bubble1" cx="16.93" cy="634.94" r="2.25" fill="#ebf6ff"/>
    <g id="sand" transform="translate(-9.26 -8.76)" >
      <path d="M10.45,623.46S45.64,643,85.51,626.25s52.84,8.81,77.34,6.56,36.51-12.27,36.51-12.27v50.28h-188Z" fill="#f39920"/>
      <path d="M10.45,637S43,651.7,83.58,640.21s53.74,6,78.65,4.5,37.13-8.43,37.13-8.43v34.54l-188.91-.13Z"  fill="#ba6b0d"/>
      <path d="M10.45,650.45s32.59,8.84,73.13,1.91,53.74,3.65,78.65,2.71S199.36,650,199.36,650v20.83l-188.91-.13Z"  fill="#f39920"/>
    </g>
    <rect x="0.5" y="111.38" width="189.78" height="550.68" fill="none" stroke="#000" stroke-miterlimit="10"/>
    <path d="M10.9.5H179.62a10.66,10.66,0,0,1,10.66,10.66V111.29a0,0,0,0,1,0,0H.5a0,0,0,0,1,0,0V10.9A10.4,10.4,0,0,1,10.9.5Z" stroke-miterlimit="10" fill="url(#linear-gradient-2)" stroke="url(#linear-gradient-3)"/>
    <g id="short-plant" transform="translate(-9.26 -8.76)" >
      <path d="M75.77,596.62s.54-.49-6.67,5.18c-5.19,4.07-22.12-8.7-10.37-20.49s26.48-6.89,31.2,2.82.68,11.65-6.76,11.63C74.18,595.73,75.77,596.62,75.77,596.62Z" fill="#a3af0e"/>
      <path d="M103.55,596.2s-4-1.71-9.78.78-11-16.14,5.59-17.07,24.52,9.3,21.73,17.3-7.92,7.68-12.73,3.34Z"  fill="#c8dd35"/>
      <path d="M79.06,620.93s1.73-1.68,5-.58,2.81-12.77-5.61-11.51a10.2,10.2,0,0,0-8,14.83c2.71,5.38,5.21,4.57,6.89.91Z"  fill="#c8dd35"/>
      <path d="M104.91,591.71s-5.9,20.78-1.52,40.17"  fill="none" stroke="#c8dd35" stroke-miterlimit="10" stroke-width="0.75"/>
      <path d="M73.31,590.13s21.17,22.36,21.33,43.16"  fill="none" stroke="#a3af0e" stroke-miterlimit="10" stroke-width="0.75"/>
      <path d="M77.68,618.14s6.16,7,5.23,16.09"  fill="none" stroke="#c8dd35" stroke-miterlimit="10" stroke-width="0.75"/>
    </g>
    <path d="M20.16,668.44H188.88a10.66,10.66,0,0,1,10.66,10.66v53.44a0,0,0,0,1,0,0H9.76a0,0,0,0,1,0,0V678.84A10.4,10.4,0,0,1,20.16,668.44Z" transform="translate(200.04 1392.21) rotate(-180)" stroke-miterlimit="10" fill="url(#linear-gradient-4)" stroke="url(#linear-gradient-5)"/>
    <g id="fish" transform="translate(-9.26 -8.76)" >
      <path d="M15,438.7s37-26.31,80.3.86c0,0,7.61,5.2,10.55,8.83s12.12,8.83,12.12,8.83,7.09,2.94,1.9,10.9-9.69,18-41.53,14.54a24.58,24.58,0,0,1-11.32-4s16,2.95,16.19-6.93-1.25-10.35-4.21-8.4-8,10-21.32,10-15.88-8.72-15.88-8.72,12,7.24,18.37,3.27S64,458,59.5,456s-10.2-1-10.2-1,6.85-4.59,16.66-.31,15.41,7.16,16.73-1.17-10.82-16.81-20.78-18.37C61.91,435.12,46.15,430.39,15,438.7Z" fill="#d0d2d4"/>
      <path d="M116.19,456.2s-7.47,10.09-15,9-4.59-5.29-4.59-5.29-7.32-13.95-15.33-19.3c-5.64-3.77-26.35-16-56.48-4.19h0c-3.1.63-6.39,1.39-9.87,2.32,0,0,37-26.31,80.3.86,0,0,7.61,5.19,10.55,8.83C107.94,451,113.38,454.5,116.19,456.2Z" fill="#044068"/>
      <circle cx="102.24" cy="460.86" r="6.42" stroke="#fff" stroke-miterlimit="10"/>
      <path d="M79.38,460.62S68,457.83,65.57,456.4s-6-2.48-7.5-2.2c0,0,9.63,1.62,7.12,9.74s-15.33,5.53-15.33,5.53,10,5.36,18.47-1.59S79.38,460.62,79.38,460.62Z" fill="#a2a8a8"/>
      <path d="M88.47,480.53s20.68-3,27.72-11.65a17.54,17.54,0,0,1-10.13,9.72C98.27,481.53,88.47,480.53,88.47,480.53Z" fill="#a2a8a8"/>
    </g>
  </g>
</svg>
