<svg id="fishtank" xmlns="http://www.w3.org/2000/svg" xmlns:xlink="http://www.w3.org/1999/xlink" viewBox="0 0 190.8 724.3"><defs><style>.cls-1{fill:url(#linear-gradient);}.cls-2{fill:#5b9850;}.cls-3{fill:#87bb73;}.cls-4{fill:#66af4a;}.cls-5{fill:#bce3ac;}.cls-6{fill:#246648;}.cls-14,.cls-18,.cls-19,.cls-7{fill:none;}.cls-7{stroke:#35843f;}.cls-14,.cls-15,.cls-18,.cls-19,.cls-20,.cls-23,.cls-7{stroke-miterlimit:10;}.cls-8{fill:#5eb142;}.cls-9{fill:#5f9655;}.cls-10{fill:#35843f;}.cls-11{fill:#ebf6ff;}.cls-12{fill:#f39920;}.cls-13{fill:#ba6b0d;}.cls-14{stroke:#000;}.cls-15{fill:url(#linear-gradient-2);stroke:url(#linear-gradient-3);}.cls-16{fill:#a3af0e;}.cls-17{fill:#c8dd35;}.cls-18{stroke:#c8dd35;}.cls-18,.cls-19{stroke-width:0.75px;}.cls-19{stroke:#a3af0e;}.cls-20{fill:url(#linear-gradient-4);stroke:url(#linear-gradient-5);}.cls-21{fill:#d0d2d4;}.cls-22{fill:#044068;}.cls-23{stroke:#fff;}.cls-24{fill:#a2a8a8;}</style><linearGradient id="linear-gradient" x1="95.65" y1="658.77" x2="95.65" y2="108.09" gradientUnits="userSpaceOnUse"><stop offset="0" stop-color="#1360b7"/><stop offset="1" stop-color="#13b7b7"/></linearGradient><linearGradient id="linear-gradient-2" x1="0.5" y1="55.9" x2="190.28" y2="55.9" gradientUnits="userSpaceOnUse"><stop offset="0.49" stop-color="#464646"/><stop offset="0.54" stop-color="#363636"/></linearGradient><linearGradient id="linear-gradient-3" x1="0" y1="55.9" x2="190.78" y2="55.9" xlink:href="#linear-gradient-2"/><linearGradient id="linear-gradient-4" x1="-217.76" y1="533.78" x2="-27.99" y2="533.78" gradientTransform="translate(225.5 165.7)" gradientUnits="userSpaceOnUse"><stop offset="0.47" stop-color="#363636"/><stop offset="0.52" stop-color="#464646"/></linearGradient><linearGradient id="linear-gradient-5" x1="-218.26" y1="533.78" x2="-27.49" y2="533.78" gradientTransform="translate(225.5 165.7)" xlink:href="#linear-gradient-2"/></defs><title>fishtank</title><rect id="water" class="cls-1" x="0.8" y="108.1" width="189.8" height="550.68"/><g id="tall-plant"><path class="cls-2" d="M144.3,174.2s21.5,5.3,19.5-2.5S149.8,171.6,144.3,174.2Z" transform="translate(-7.3 -7.8)"/><path class="cls-3" d="M144.6,173.6s-22.2.5-18.2,7.5S139.9,177.5,144.6,173.6Z" transform="translate(-7.3 -7.8)"/><path class="cls-4" d="M144.3,174.2s20.1-9.4,13.7-14.2S147,168.7,144.3,174.2Z" transform="translate(-7.3 -7.8)"/><path class="cls-5" d="M144.9,173.3s-21.4,6.1-19.6-2.3S139.3,170.6,144.9,173.3Z" transform="translate(-7.3 -7.8)"/><path class="cls-6" d="M144.2,176.7s9.4-23.2-1.8-22.4S141,170,144.2,176.7Z" transform="translate(-7.3 -7.8)"/><path class="cls-7" d="M152.5,635.3s-30.9-37.3,4-154,4.5-258.4,0-267.7-15.2-35.3-12.4-45.3" transform="translate(-7.3 -7.8)"/><path class="cls-2" d="M158.9,219.4s-21.2-6.8-19.7,1.1S153.1,221.6,158.9,219.4Z" transform="translate(-7.3 -7.8)"/><path class="cls-3" d="M158.5,220s22.2,1.1,18.7-6.2S163.4,216.4,158.5,220Z" transform="translate(-7.3 -7.8)"/><path class="cls-4" d="M158.9,219.4s-20.8,8-14.7,13.2S155.8,224.7,158.9,219.4Z" transform="translate(-7.3 -7.8)"/><path class="cls-5" d="M158.1,220.3s21.8-4.5,19.5,3.6S163.6,223.3,158.1,220.3Z" transform="translate(-7.3 -7.8)"/><path class="cls-3" d="M149.3,192.4s-13.6,17.4-16.5,10.9S143.5,194.3,149.3,192.4Z" transform="translate(-7.3 -7.8)"/><path class="cls-2" d="M149.3,192.4s-20.9,6.6-18.7-.7S144.1,190.5,149.3,192.4Z" transform="translate(-7.3 -7.8)"/><path class="cls-4" d="M148.8,192.8s21.8-4.4,16.1-12.5S152.4,187,148.8,192.8Z" transform="translate(-7.3 -7.8)"/><path class="cls-6" d="M148.6,193.2s19.5-11.3,20-.5S154.8,195.6,148.6,193.2Z" transform="translate(-7.3 -7.8)"/><path class="cls-2" d="M166.6,256.8s-20.2-9.1-19.7-1.1S160.7,258.4,166.6,256.8Z" transform="translate(-7.3 -7.8)"/><path class="cls-3" d="M166.2,257.4s21.9,3.5,19.3-4.1S171.5,254.4,166.2,257.4Z" transform="translate(-7.3 -7.8)"/><path class="cls-4" d="M166.6,256.8s-21.5,5.6-16,11.5S163,261.7,166.6,256.8Z" transform="translate(-7.3 -7.8)"/><path class="cls-5" d="M165.8,257.6s22.1-2.1,18.9,5.8S170.9,261.2,165.8,257.6Z" transform="translate(-7.3 -7.8)"/><path class="cls-2" d="M170.1,301.3s19.6,10.5,19.6,2.5S176.2,300.1,170.1,301.3Z" transform="translate(-7.3 -7.8)"/><path class="cls-3" d="M170.6,300.7s-21.6-5-19.5,2.8S165.1,303.4,170.6,300.7Z" transform="translate(-7.3 -7.8)"/><path class="cls-4" d="M170.1,301.3s21.9-4.1,16.8-10.4S174.1,296.6,170.1,301.3Z" transform="translate(-7.3 -7.8)"/><path class="cls-5" d="M171,300.5s-22.2.6-18.5-7S166.2,296.6,171,300.5Z" transform="translate(-7.3 -7.8)"/><path class="cls-2" d="M173.4,334.3s-21.1-6.8-19.7,1.1S167.7,336.5,173.4,334.3Z" transform="translate(-7.3 -7.8)"/><path class="cls-3" d="M173,335s22.3,1,18.8-6.3S178,331.3,173,335Z" transform="translate(-7.3 -7.8)"/><path class="cls-4" d="M173.4,334.3s-20.7,8-14.6,13.2S170.4,339.6,173.4,334.3Z" transform="translate(-7.3 -7.8)"/><path class="cls-5" d="M172.7,335.2s21.8-4.5,19.5,3.6S178.1,338.2,172.7,335.2Z" transform="translate(-7.3 -7.8)"/><path class="cls-2" d="M173.9,376.3s-13.1-17.9-16.6-10.7S168,374.7,173.9,376.3Z" transform="translate(-7.3 -7.8)"/><path class="cls-3" d="M173.2,376.6s17.3,13.9,18.8,6S179.3,376.6,173.2,376.6Z" transform="translate(-7.3 -7.8)"/><path class="cls-4" d="M173.9,376.3s-21.5-5.8-19.6,2.1S168.3,378.8,173.9,376.3Z" transform="translate(-7.3 -7.8)"/><path class="cls-5" d="M172.8,376.6s20.3,9.1,13.6,14.4S175.4,382.3,172.8,376.6Z" transform="translate(-7.3 -7.8)"/><path class="cls-2" d="M170.9,410.6s-17.9-13.1-19-5.1S164.8,410.9,170.9,410.6Z" transform="translate(-7.3 -7.8)"/><path class="cls-3" d="M170.3,411.1s20.8,7.9,19.8-.1S176.2,409.2,170.3,411.1Z" transform="translate(-7.3 -7.8)"/><path class="cls-4" d="M170.9,410.6s-22.2,1.1-18,8S166.3,414.7,170.9,410.6Z" transform="translate(-7.3 -7.8)"/><path class="cls-5" d="M169.9,411.2s22.1,2.5,17.4,9.6S174.2,415.8,169.9,411.2Z" transform="translate(-7.3 -7.8)"/><path class="cls-2" d="M164.3,454.1s16.7,14.6,18.5,6.8S170.4,454.3,164.3,454.1Z" transform="translate(-7.3 -7.8)"/><path class="cls-3" d="M164.9,453.7s-20-9.7-19.6-1.7S158.9,455.1,164.9,453.7Z" transform="translate(-7.3 -7.8)"/><path class="cls-4" d="M164.3,454.1s22.2.9,18.7-6.3S169.2,450.4,164.3,454.1Z" transform="translate(-7.3 -7.8)"/><path class="cls-5" d="M165.3,453.6s-21.8-4.4-16.4-11S161.5,448.6,165.3,453.6Z" transform="translate(-7.3 -7.8)"/><path class="cls-2" d="M155.2,488.7s-15.4-16-17.8-8.4S149.2,487.9,155.2,488.7Z" transform="translate(-7.3 -7.8)"/><path class="cls-3" d="M154.6,489s19.1,11.4,19.4,3.3S160.7,488.1,154.6,489Z" transform="translate(-7.3 -7.8)"/><path class="cls-4" d="M155.2,488.6s-22-2.7-19.1,4.8S150,491.9,155.2,488.6Z" transform="translate(-7.3 -7.8)"/><path class="cls-5" d="M154.2,489.1s21.3,6.2,15.4,12.3S157.5,494.3,154.2,489.1Z" transform="translate(-7.3 -7.8)"/><path class="cls-2" d="M145.8,520.3s18.1,12.9,19.1,4.9S151.9,519.9,145.8,520.3Z" transform="translate(-7.3 -7.8)"/><path class="cls-3" d="M146.4,519.8s-20.9-7.7-19.7.3S140.6,521.8,146.4,519.8Z" transform="translate(-7.3 -7.8)"/><path class="cls-4" d="M145.8,520.3s22.2-1.3,18-8.2S150.4,516.2,145.8,520.3Z" transform="translate(-7.3 -7.8)"/><path class="cls-5" d="M146.8,519.7s-22.1-2.3-17.5-9.4S142.5,515.1,146.8,519.7Z" transform="translate(-7.3 -7.8)"/><path class="cls-2" d="M140.2,551s-18.9-11.8-19.4-3.8S134.1,551.7,140.2,551Z" transform="translate(-7.3 -7.8)"/><path class="cls-3" d="M139.6,551.5s21.3,6.3,19.7-1.6S145.3,549.1,139.6,551.5Z" transform="translate(-7.3 -7.8)"/><path class="cls-4" d="M140.2,551s-22.1,2.6-17.4,9.2S135.9,555.3,140.2,551Z" transform="translate(-7.3 -7.8)"/><path class="cls-5" d="M139.2,551.6s22.3.9,18.1,8.2S143.8,555.9,139.2,551.6Z" transform="translate(-7.3 -7.8)"/><path class="cls-2" d="M140.6,598.5s-21.1-6.9-19.7,1S134.9,600.7,140.6,598.5Z" transform="translate(-7.3 -7.8)"/><path class="cls-3" d="M140.2,599.1s22.2,1,18.7-6.2S145.2,595.5,140.2,599.1Z" transform="translate(-7.3 -7.8)"/><path class="cls-4" d="M140.6,598.5s-20.7,7.9-14.7,13.2S137.5,603.8,140.6,598.5Z" transform="translate(-7.3 -7.8)"/><path class="cls-5" d="M139.9,599.4s21.7-4.6,19.4,3.6S145.3,602.4,139.9,599.4Z" transform="translate(-7.3 -7.8)"/></g><g id="plant"><path class="cls-8" d="M34.9,637.6s-19.5-7.7-11-60.7S6.1,511.2,16.1,461.4c0,0,2,31.5,17,50.7S25.1,607.4,34.9,637.6Z" transform="translate(-7.3 -7.8)"/><path class="cls-9" d="M47.7,647.3s2.3-27.1-16.1-57.1c-12.1-19.7,10.6-10.9,12.6-112,0,0,2.8,62.3-4.1,90.9S53.4,596,47.7,647.3Z" transform="translate(-7.3 -7.8)"/><path class="cls-10" d="M51.5,525.2s1.4,33.3,6.9,52.7-1.7,32.1-4.3,39.4-6.8,15.2-5.1,25c0,0-6.7-14.9-2.9-36.4s5.9-26.3,4.1-46.2S51.5,525.2,51.5,525.2Z" transform="translate(-7.3 -7.8)"/></g><circle id="bubble8" class="cls-11" cx="176.6" cy="630.4" r="2.2"/><circle id="bubble7" class="cls-11" cx="151.9" cy="632.7" r="2.2"/><circle id="bubble6" class="cls-11" cx="131.6" cy="630.4" r="2.2"/><circle id="bubble5" class="cls-11" cx="106.9" cy="632.7" r="2.2"/><circle id="bubble4" class="cls-11" cx="86.6" cy="632.7" r="2.2"/><circle id="bubble3" class="cls-11" cx="61.9" cy="634.9" r="2.2"/><circle id="bubble2" class="cls-11" cx="41.7" cy="632.7" r="2.2"/><circle id="bubble1" class="cls-11" cx="16.9" cy="634.9" r="2.2"/><g id="sand"><path class="cls-12" d="M8.4,622.5s35.2,19.5,75.1,2.8,52.8,8.8,77.3,6.5,36.6-12.3,36.6-12.3v50.3H9.3Z" transform="translate(-7.3 -7.8)"/><path class="cls-13" d="M8.4,636s32.6,14.7,73.2,3.2,53.7,6.1,78.6,4.5,37.2-8.4,37.2-8.4v34.5H8.4Z" transform="translate(-7.3 -7.8)"/><path class="cls-12" d="M8.4,649.4s32.6,8.9,73.2,2,53.7,3.6,78.6,2.7,37.2-5.1,37.2-5.1v20.8H8.4Z" transform="translate(-7.3 -7.8)"/></g><rect class="cls-14" x="0.5" y="111.4" width="189.8" height="550.68"/><path class="cls-15" d="M10.9.5H179.6a10.7,10.7,0,0,1,10.7,10.7V111.3a0,0,0,0,1,0,0H.5a0,0,0,0,1,0,0V10.9A10.4,10.4,0,0,1,10.9.5Z"/><g id="short-plant"><path class="cls-16" d="M73.8,595.6s.5-.5-6.7,5.2c-5.2,4.1-22.1-8.7-10.4-20.5s26.5-6.9,31.2,2.8.7,11.7-6.7,11.7C72.2,594.7,73.8,595.6,73.8,595.6Z" transform="translate(-7.3 -7.8)"/><path class="cls-17" d="M101.6,595.2s-4.1-1.7-9.8.8-11-16.2,5.6-17.1,24.5,9.3,21.7,17.3-7.9,7.7-12.7,3.3Z" transform="translate(-7.3 -7.8)"/><path class="cls-17" d="M77.1,619.9s1.7-1.7,5-.5,2.8-12.8-5.6-11.6a10.3,10.3,0,0,0-8,14.9c2.7,5.4,5.2,4.5,6.9.9Z" transform="translate(-7.3 -7.8)"/><path class="cls-18" d="M102.9,590.7s-5.9,20.8-1.5,40.2" transform="translate(-7.3 -7.8)"/><path class="cls-19" d="M71.3,589.1s21.2,22.4,21.3,43.2" transform="translate(-7.3 -7.8)"/><path class="cls-18" d="M75.7,617.1s6.1,7.1,5.2,16.1" transform="translate(-7.3 -7.8)"/></g><path class="cls-20" d="M18.2,667.4H186.9a10.7,10.7,0,0,1,10.7,10.7v53.4a0,0,0,0,1,0,0H7.8a0,0,0,0,1,0,0V677.8A10.4,10.4,0,0,1,18.2,667.4Z" transform="translate(198 1391.2) rotate(-180)"/><g id="fish"><path class="cls-21" d="M12.9,437.7s37.1-26.3,80.3.9c0,0,7.7,5.2,10.6,8.8s12.1,8.8,12.1,8.8,7.1,3,1.9,10.9-9.7,18-41.5,14.6A24.8,24.8,0,0,1,65,477.6s16,3,16.2-6.9-1.3-10.4-4.2-8.4-8.1,10-21.4,10-15.8-8.8-15.8-8.8,11.9,7.3,18.3,3.3S62,457,57.5,455s-10.2-1-10.2-1,6.9-4.6,16.7-.3,15.4,7.1,16.7-1.2-10.8-16.8-20.8-18.4C59.9,434.1,44.2,429.4,12.9,437.7Z" transform="translate(-7.3 -7.8)"/><path class="cls-22" d="M114.2,455.2s-7.5,10.1-15,9-4.6-5.3-4.6-5.3-7.3-14-15.3-19.3c-5.6-3.8-26.3-16-56.5-4.2h0c-3.1.6-6.4,1.4-9.9,2.3,0,0,37.1-26.3,80.3.9,0,0,7.7,5.2,10.6,8.8S111.4,453.5,114.2,455.2Z" transform="translate(-7.3 -7.8)"/><circle class="cls-23" cx="93.2" cy="451.9" r="6.4"/><path class="cls-24" d="M77.4,459.6s-11.4-2.8-13.8-4.2-6-2.5-7.5-2.2c0,0,9.6,1.6,7.1,9.7s-15.3,5.6-15.3,5.6,9.9,5.3,18.4-1.6S77.4,459.6,77.4,459.6Z" transform="translate(-7.3 -7.8)"/><path class="cls-24" d="M86.5,479.5s20.6-3,27.7-11.6a17.7,17.7,0,0,1-10.1,9.7C96.3,480.5,86.5,479.5,86.5,479.5Z" transform="translate(-7.3 -7.8)"/></g></svg>