<svg id="Layer_1" data-name="Layer 1" xmlns="http://www.w3.org/2000/svg" viewBox="0 0 1758.5 912.7"><title>home-background</title><g id="background"><path id="window" d="M1650.6,943.2v.8H148.5v-.8c0-414.8,336.3-751,751.1-751S1650.6,528.4,1650.6,943.2Z" transform="translate(-34.1 -36.3)" fill="#ebf6ff"/><path id="window-outline" d="M1682,943.2v.8H181.7v-.8c0-422.1,335.8-764.3,750.1-764.3S1682,521.1,1682,943.2Z" transform="translate(-34.1 -36.3)" fill="none" stroke="#d2e9f9" stroke-miterlimit="10" stroke-width="10"/><g id="closing-brackets"><path d="M340.2,229.8c3.5-11.4,6.3-21.6,8.5-30.7a139.5,139.5,0,0,0,4-26.5l2.6-.9a40.9,40.9,0,0,1,9.4-2.1c3.1-.2,5.1.8,5.9,3.1q-1.5,6.9-5.1,26.1c-2.5,12.7-3.5,19.6-3.1,20.7l.2.7c1.3,3.5,2.4,5.2,3.5,5.2l27.1,22,3.6,3.5a10.7,10.7,0,0,1,1.7,3.4c.7,1.8-.6,4-3.8,6.5a33.7,33.7,0,0,1-7.5,4.8c-.8.3-7.5-4.2-20.1-13.4s-20.6-15.5-24-18.6l-.3-.4-.3-1.2-1.3.5Zm8-5.1a9.6,9.6,0,0,0,0,5.8l2.9-.9a10.3,10.3,0,0,0,4-2.2,3,3,0,0,0,.9-3.3,6.3,6.3,0,0,0-1.6-2.5,2.5,2.5,0,0,0-2.5-.9A5.7,5.7,0,0,0,348.2,224.7Zm4.4-11.6a8.4,8.4,0,0,0,.3,5.4l2.2-.8,1.3-8.2h-.7A5,5,0,0,0,352.6,213.1Zm.1,21.7a7.5,7.5,0,0,0,3.5-2.1,11.2,11.2,0,0,0,1.4-4.2C354.9,229.4,353.3,231.5,352.7,234.8Zm3-40.1a41.9,41.9,0,0,0-1.4,9.1c1.9-.6,3.5-2.6,4.9-6s1.8-5.8,1.3-7.3l-.6-1.6C357.9,189.6,356.5,191.5,355.7,194.7Zm5.4,45.4a6,6,0,0,0,3.3-2.8,4.5,4.5,0,0,0,.4-4.2,13.8,13.8,0,0,0-1.3-2.9,6.1,6.1,0,0,0-2-1.9,15,15,0,0,1-2.1,2.4,7,7,0,0,0-2.4,4.2l4.9-1.8A7,7,0,0,0,361.1,240.1Zm-3-60.1s0,1.2-.1,3.6c.1.2.2.2.3.2s.9-.7,1.5-1.6a4.5,4.5,0,0,0,.7-2.8l-1.7-1Zm8.2,58.5a9.3,9.3,0,0,1-.2,2.6l1.5-.2a7.5,7.5,0,0,0,2.3-1.5,1.9,1.9,0,0,0,.6-2.2q-.2-.6-1.2-1.2a1.7,1.7,0,0,0-1.6-.3C366.8,236,366.3,236.9,366.3,238.5Zm4.6,4-.8.3a3.2,3.2,0,0,0-2.5,2.4l2,1.2Zm9.3,11.7a20.2,20.2,0,0,1,2.5,1.6c.9.7,1.4,1.1,1.6,1l3.9-4.5-3.7,1.4a12.9,12.9,0,0,0,.1-2.3,10.9,10.9,0,0,0-.5-2.5c-.4-.6-1.9-1.8-4.6-3.7s-4.1-2.7-4.4-2.6c-1.8.6-3.2,2.2-4.1,4.8.7.9,1.9,1.1,3.6.5a8.4,8.4,0,0,0,1.9-.9l-1.4,3.6A55,55,0,0,1,380.2,254.2Z" transform="translate(-34.1 -36.3)" fill="#d2e9f9"/><path d="M446.1,266.1c1.1-4.7,1.2-8.4.2-11.1s-.8-5.2-1.2-9.1-.5-6.1-.2-6.2l1.3-3.8,6.8-61.5,1.5-22.5c-.6-1.8-1.1-15.8-1.4-41.8V98a122.9,122.9,0,0,1,1.2-14,28.9,28.9,0,0,1,4.1-9.9c1,.2,2.9-.1,5.5-.7a26.6,26.6,0,0,1,7.2-.7,14.8,14.8,0,0,1,6.9,2.1c.5,1.4.9,6,1.2,13.9s.4,15.6.1,23.1-.7,11.7-1.4,12.6l-1.9-1.1-.5,10,1.6-2.4-4.6,74.9-1.4,3.6,3.2-1.1-2.5,21.8h-.5c-.9.3-1.2,4.6-1,12.7.1,6,0,10.7-.2,14.1s-.9,5.3-1.9,6.1l-2.5,1.1a33.7,33.7,0,0,1-5,1.5l-3.6.8a48.2,48.2,0,0,0-8.8,2.2A3.8,3.8,0,0,0,446.1,266.1Zm2.3-4.1,13.7-4.9q.8-.3,1.2-2.4a6.6,6.6,0,0,0,.2-3,37.2,37.2,0,0,0-7,3.5,40.5,40.5,0,0,1-7.6,3.7A2.8,2.8,0,0,0,448.4,262Zm5.7-8.1a8.3,8.3,0,0,0,3.5.1c.5-.2.8-.9.8-2.1a2.4,2.4,0,0,1,1.6-2.4l1.6-.3,1.4-.2c1.3-.5,1.8-2,1.4-4.7l-6.1,2.2a16.9,16.9,0,0,0,2.9-3.6,11.4,11.4,0,0,1,3.9-4.2c.3-2,.8-6.5,1.6-13.4s1.2-12.3,1.6-16.4c-.8-6.3-1.2-9.8-1.2-10.7a16.7,16.7,0,0,1,.2-3.7,16,16,0,0,0,.4-3.2,31.1,31.1,0,0,0,.9-6.9,15.5,15.5,0,0,0-.9-5.7l-3.2,1.1c.9-.5,1.2-1.1.9-1.9a3.7,3.7,0,0,0-.6-1l-.7-1.3,1.2-.6.5-.3c.5-.2,1.5.1,3,.7a14.1,14.1,0,0,0-.2-7.4,12.8,12.8,0,0,1-.6-3.4,11.9,11.9,0,0,1,.9-3.7c.5-1.7,1-4.8,1.7-9.2s1.3-9.1,1.7-13.9.4-8.2-.3-10c-.1-.3-1.1-.6-3-1s-3.1-1-3.5-2.1V124l6.4,1c1.5-.5,2.2-2.1,2.3-4.7a67.3,67.3,0,0,0-.7-10.8,48.4,48.4,0,0,1-.5-7.7c.1-1.8.4-2.9,1.1-3.1s-.4-5.7-1.8-16.9v-.5c-.3-1-1.9-1.2-4.6-.7a36.8,36.8,0,0,0-6.7,1.6,3.7,3.7,0,0,0,2.8,2.6c-2.9,2.1-4.6,5.4-5.3,10a27.3,27.3,0,0,0,1.3,13.1c.1.5.7.9,1.8,1.3a17.1,17.1,0,0,0,3,.9l-1.7.3c-1.9.7-2.9,2.2-3.2,4.7a16.4,16.4,0,0,0,1,7.2,1.8,1.8,0,0,0,.7.9l.8.4c-1.1.9-1.8,2.5-2.2,4.8s-.7,3.6-1.2,4.2l.8,25.2c.6,1.7.7,4.4.4,8s-1,9.2-1.9,16.6c-.7,4.8-1.2,9.6-1.7,14.4s-.5,8-.1,9.9l.7,2.1c.2.3-.3,1.6-1.2,3.9s-1.2,4.3-.6,5.8.2.4.7.7a1.3,1.3,0,0,0,.9.3q-2.1.8-3.6,6.6a66.9,66.9,0,0,0-1.9,12.5c-.2,4.5-.1,7.4.4,8.8a8.4,8.4,0,0,0,1.4,2.7,3,3,0,0,0,2.5.8l-4.9,1.7A8.8,8.8,0,0,0,454.1,253.9Zm9.9-33.7c-.9.4-2.3.3-4.3-.2l3.8-1.4Zm7.8-1.5a10.4,10.4,0,0,0-.3-4.5A8.2,8.2,0,0,0,471.8,218.7Z" transform="translate(-34.1 -36.3)" fill="#d2e9f9"/><path d="M579.9,145.9a3.3,3.3,0,0,1,0,2.4l-2.1,3c-.5,4.7-2.6,14.2-6.1,28.5s-5.6,21.7-6.4,21.9a29.5,29.5,0,0,1-8.9,1.2c-4,0-6.4-.8-7.1-2.7a9.5,9.5,0,0,1-.7-3.7c0-.9.2-2.6.5-5l7-34.2c.8-.6.7-2.4-.4-5.3l-.4-1.1a10.7,10.7,0,0,0-2.9-3.9c-2.7-2.5-7.3-6.3-13.8-11.6l-13.7-11.6a19.9,19.9,0,0,1-4-1.8,4.4,4.4,0,0,1-1.8-2.5c-.9-2.3,0-4.3,2.6-6.1a33.2,33.2,0,0,1,8.6-4.4l2.5-.9a151.4,151.4,0,0,0,20,17.9c7.4,5.6,16.1,11.6,26.1,18.2ZM532,119.5l1.5.5a3.3,3.3,0,0,0,2.1.2c.2,0,.2-.1.2-.3a14.2,14.2,0,0,0-4-3.5l-.7,1.8Zm11.8,12.1c3.3,1.7,5.8,2.2,7.6,1.6a41.2,41.2,0,0,0-6.9-6.2q-3.9-2.9-6.9-1.8l.6,1.6C538.8,128.3,540.6,129.9,543.8,131.6Zm9.7,7.3,6.2,5.5,2.2-.8a9.7,9.7,0,0,0-3.3-4.4,4.9,4.9,0,0,0-4.6-.8Zm10.3,41.2q2.6-.9,2.4-2.7c-2.3-1.4-4.4-1.8-6.2-1.1-.3.1-.9,1.7-1.7,4.9s-1.3,5-1.2,5.7a9.9,9.9,0,0,0,1.2,2.2,5.3,5.3,0,0,0,1.5,1.7l-3.7,1.3,5.9,1c.1,0,.3-.6.6-1.7a14.8,14.8,0,0,1,.8-2.9c.8-3,1.3-5,1.7-6l-3.4-1.9A7,7,0,0,0,563.8,180.1Zm-3.5-12.6a3,3,0,0,0-.2,1.8,2.1,2.1,0,0,0,1.9,1.2,5.9,5.9,0,0,0,2.7-.3l1.3-.7a14.7,14.7,0,0,1-1.8-2c-1-1.1-2-1.6-2.9-1.2S560.6,166.8,560.3,167.5Zm4.3-10.4-3.2-.4a5,5,0,0,0-.4,2.6,15.7,15.7,0,0,0,.9,3.1,4.9,4.9,0,0,0,3,3.1,6.6,6.6,0,0,0,4.4,0,7.6,7.6,0,0,0-5.1-4.9l4.9-1.8A7.6,7.6,0,0,0,564.6,157.1Zm-2-10.1a9.2,9.2,0,0,0,.4,2.9,2.8,2.8,0,0,0,3.2,2,19.4,19.4,0,0,0,4.3-1.1l2.6-.9a9.4,9.4,0,0,0-3.7-4.5,5.8,5.8,0,0,0-5.4-.8A3,3,0,0,0,562.6,147Zm1.4,26.3-.8.3,3.5,2.1.8-2.1A3.5,3.5,0,0,0,564,173.3Zm4.3-16.7a7,7,0,0,0,4.1-.5q-3.9-3.3-7.8-1.8A10,10,0,0,0,568.3,156.6Z" transform="translate(-34.1 -36.3)" fill="#d2e9f9"/></g><g id="semi-colon"><path d="M1726.2,841h-.8c-.2,0-.7-.6-1.3-1.6a27.9,27.9,0,0,0,7.7-7.3,24.9,24.9,0,0,0,4.4-8.8c.1-.4-.3-.9-1.1-1.6a7.9,7.9,0,0,0-2.6-1.3l4.9-20.8,33.4,7.8q.6.2.9,6.3a62.6,62.6,0,0,1-.2,9.3q-.9,3.9-10.8,9.6t-16.2,7.2l-8.9,2.1a64.3,64.3,0,0,1-6.4,1.3l-1.9-.4.4-1.5Zm13.7-27.7c-.1.3.1.7.5,1.2a3.3,3.3,0,0,0,1.6,1.1,5.8,5.8,0,0,0,2.9-3.6c.3-1.4.5-2.2.5-2.4a7.4,7.4,0,0,0-3.3,1.2,4.3,4.3,0,0,0-1.9,2.6Zm.4,18.5.9.4,2.9-.3c1.5-.2,2.3-.6,2.5-1.3A21.3,21.3,0,0,0,1740.3,831.8Zm5.3-5.7,1.9.6a6,6,0,0,0,4.1-.5,21,21,0,0,0,4.2-2.2c3.4-2.1,6-2.9,7.7-2.5a7.3,7.3,0,0,1,1.8.9v-8.2c-.5-.1-2.5.7-6.1,2.3l-7.8,3.9,1.6,2C1749.3,823.2,1746.9,824.4,1745.6,826.1Zm7.4-10.9a3.9,3.9,0,0,1-3,.7,10.3,10.3,0,0,0,7-.6,6.2,6.2,0,0,0,3.9-4.5c-6.8-1.6-11.6-.5-14.5,3.1l8.6-.9.2.9A10.1,10.1,0,0,1,1753,815.2Zm37.3-79.1c1.8,1.1,2.6,2.4,2.2,4.1l-3.3,14.3-4.5,1.9-11.6-2.3c-5.1-.7-9.2-1.5-12.2-2.2l-1.9.4a6.3,6.3,0,0,1-2.3.2l-.9-.2a6.8,6.8,0,0,1-1.7-.7c-.7-.4-1-.9-.8-1.4l4.8-20.9,9.3,1.4a139.7,139.7,0,0,1,14.6,2.6A34.4,34.4,0,0,1,1790.3,736.1Zm-26,10.1c1.9.5,4.6-.1,8.2-1.8s5.7-3.2,6.1-4.9q-4.5-1.1-6.6-.6a17.3,17.3,0,0,0-4.5,2,14.8,14.8,0,0,1-6.7,2.7C1761,744.9,1762.1,745.7,1764.3,746.2Zm15.2.3a14.2,14.2,0,0,0-3.4,2.3l2.2.7c2.7.6,4.4-.3,4.9-2.7l.2-2A21,21,0,0,0,1779.5,746.5Z" transform="translate(-34.1 -36.3)" fill="#d2e9f9"/></g><g id="curly-brackets"><path d="M1585.8,458c.1-2.4,0-3.8-.4-4.4l-.9-1.3a10.4,10.4,0,0,1,1.1-3.1,13.4,13.4,0,0,0,1.2-4c.3-3.7-1.3-10.2-4.6-19.3s-6.3-14.4-8.7-15.6a8.8,8.8,0,0,0-2.8-.7h-1a4.5,4.5,0,0,1-2.6-1c-.5-.6-.7-1.8-.5-3.7l.6-3.2c11.3-8.5,19-19.3,22.9-32.3s6.7-29.6,8.3-50c1-12,2.7-20.7,5.1-26.2s7.2-11.5,14.5-18.2l3.3-2.2a7,7,0,0,1,4-1.3c-.1.8.5,1.3,1.6,1.4a8.5,8.5,0,0,0,4.1-.9,10.8,10.8,0,0,0,3.1-1.8l17.9-.6c4.8.4,7.1,2.7,6.7,7a7.9,7.9,0,0,1-1.5,3.9,28,28,0,0,1-3.3,3.8,6.4,6.4,0,0,1,2.8,3.2,10.1,10.1,0,0,1,.8,4.3c-.1,1.4-2.7,2.5-7.9,3.4q-13.2,2.7-22.2,9c-6,4.2-9.5,11.7-10.3,22.4a129.3,129.3,0,0,0,.6,18.6,114.2,114.2,0,0,1,.7,18.2,35.5,35.5,0,0,1-4.1,13.6c-2.3,4.5-5.9,10.3-10.6,17.5s-7.2,11.4-7.4,13.5,1.2,5.9,3.8,14.3,4.7,14.8,6.2,19.2l-4.8,60.9q-.1,1.2,3,6.3a50.6,50.6,0,0,0,7.2,9.5c2.8,2.9,5.4,4.4,7.7,4.6h4.9c3.7.3,6.7,2.2,9,5.8s3.2,7.9,2.8,13.3a5.5,5.5,0,0,1-4.3,5.7l-12.4-3c-3.7-.5-8.5-2.3-14.6-5.2a57.2,57.2,0,0,1-15.7-10.9c-4.4-4.4-6.5-8.8-6.1-13.4l2.9-36.9a20.8,20.8,0,0,0-1.1-3.3,5.1,5.1,0,0,0-1.9-2.6A69.8,69.8,0,0,0,1585.8,458Zm-1.6-46.9.5-6,11.7-15.6.4-5.2c-1.1-.1-4.4,3.1-9.7,9.7s-7.9,10.5-8,11.9S1580.6,409.2,1584.2,411.1Zm5.5,12.6a55.7,55.7,0,0,1,3.3,9.1l.6-2.8a16.3,16.3,0,0,0-1.9-7.6,22.2,22.2,0,0,0-4.4-6.6l-.4.8A66.7,66.7,0,0,0,1589.7,423.7Zm0,81.5c.4,4,1.2,6.2,2.3,6.6s2.2-1.7,2.5-4.7c.5-7.2-1.2-10.9-5.1-11.3A53.5,53.5,0,0,0,1589.7,505.2Zm4.5,16a13.8,13.8,0,0,0,5.6,1.7h3.9c-1.8-.4-3.3-1.9-4.5-4.6s-2.7-4-4.6-4.2-2.9,1-3.1,3.4S1592.3,520.3,1594.2,521.2Zm-.9-32.5a8,8,0,0,0,1.1-3.3l-1.7-.2-.5,6.4A5.9,5.9,0,0,1,1593.3,488.7Zm2.7-23.4h-1.7l-.3,4A4.4,4.4,0,0,0,1596,465.3Zm-1.7-26.8a25,25,0,0,0,.4,5.7c.4,2.5,1.1,4,2.3,4.6l.5-2.7c.4-4.3-.7-7.5-3.1-9.6v2Zm2.9-62.9a17.8,17.8,0,0,0-2.8,8.1c3.5.3,6.6-1.4,9.5-5.1a21.8,21.8,0,0,0,4.8-11.5,18.2,18.2,0,0,0-.7-2.5,23.3,23.3,0,0,1-.7-2.5,5.6,5.6,0,0,0,2.4-3.8,7.3,7.3,0,0,0-1.7-5.2,6.3,6.3,0,0,0-4.7-2.6,20.1,20.1,0,0,1-2.4,6.9,18.9,18.9,0,0,0-2.4,6,10.5,10.5,0,0,0,.9,5.5,4.3,4.3,0,0,0,3.6,3C1600.7,371.9,1598.7,373.2,1597.2,375.6ZM1614.9,536a3.3,3.3,0,0,0,1.9-2.9c-.3-1.6-1.8-3.4-4.6-5.2s-4.5-2.8-5.2-2.8c-2.5-.2-3.9.9-4.1,3.3l.3.8,8.3,4.7-.2,2.8A6.6,6.6,0,0,0,1614.9,536ZM1606,347.5a6,6,0,0,1,1.7-3.7,5.9,5.9,0,0,0,1.7-3.3,2.8,2.8,0,0,0-1.1-2.5,3.9,3.9,0,0,0-2.5-1l-1.4.3-.8,10Zm-1.4-21.9c-.3,3.5.2,5.9,1.5,7.4s1.6-1.3,2.1-4.1.8-6.1,1.1-9.8l.4-9.7a13.1,13.1,0,0,1,3.4-5.3,23,23,0,0,1,5.4-3.6,44.5,44.5,0,0,0,5.6-4.6,11.1,11.1,0,0,0,2.2-6.5,50,50,0,0,0,12.6-.8,34,34,0,0,0,11.9-4.6l-10-1.2a50.1,50.1,0,0,0-19.9,2.5c-6.6,2.2-10.2,6.7-10.7,13.7v2.4c0,1.1-1.2,2.2-3.4,3.4.3,0,.5.3.8.9a2.4,2.4,0,0,1,.4,1.6c-1.3,1.5-2.2,5.7-2.7,12.7Zm15.5,210.6,6.9.5.2-1.6-7-.5Z" transform="translate(-34.1 -36.3)" fill="#d2e9f9"/><path d="M1759.1,420.1c-.1,1.9-.5,3-1.1,3.5a4.2,4.2,0,0,1-3,.6c-1.9-.2-4.5,1.6-7.9,5.2a64.8,64.8,0,0,0-9.5,13.2c-2.8,5.2-4.4,9.9-4.7,14.1a13,13,0,0,0,.5,4.1,9.2,9.2,0,0,1,.6,3.3l-1.1,1.1c-.5.5-.9,2-1.1,4.4a72.2,72.2,0,0,0,.6,14.5,5.4,5.4,0,0,0-2.2,2.3,20.6,20.6,0,0,0-1.7,3.1l-2.9,36.9c-.3,4.5-3.1,8.6-8.1,12.2a58,58,0,0,1-17.3,8.4c-6.4,1.9-11.5,2.8-15.2,2.8l-12.6,1a7.3,7.3,0,0,1-3-2.6,8,8,0,0,1-.4-3.7c.5-6.2,1.4-9.9,2.7-11.3s4.1-1.9,8.5-1.5c.2-3,1.3-4.4,3.4-4.2l4.8.8c2.4.2,5.1-1,8.3-3.4a48.5,48.5,0,0,0,8.7-8.2c2.6-3,3.9-4.9,4-5.7l4.8-61c2.2-4.1,5.2-10.1,9.1-18s5.9-12.4,5.9-13.5-1.5-6.9-5.1-14.5-5.9-14.1-7.6-18.9a33.8,33.8,0,0,1-2-14.1c.3-4,1.5-10,3.5-17.9s3.2-14,3.5-18.3c.9-10.7-1.4-18.6-6.7-23.7s-12.1-9.2-20.5-12.3c-4.9-1.8-7.4-3.3-7.3-4.6a7.8,7.8,0,0,1,1.6-4.1,6,6,0,0,1,3.2-2.8,25.4,25.4,0,0,1-2.7-4.3,7.7,7.7,0,0,1-.9-4.1c.4-4.2,3-6.2,7.8-5.8l17.6,3.4c.1.5,1.5,1.7,3.9,3.3a29,29,0,0,0,6,3.5l-1.4-4.1a6.6,6.6,0,0,1,3.7,1.9l2.9,2.6-1.5,1.9c6.6,6.8,10.9,12.9,12.6,18.6s2.2,14.5,1.3,26.5q-2.4,30.4.3,50.7a62.5,62.5,0,0,0,17.6,35.5Zm-73.4,121.3v-1.6l-6.9-.6-.2,1.6Zm18.2-5c.2-2.5-1-3.8-3.6-4-.7,0-2.5.6-5.5,2s-4.9,2.9-5.4,4.4a3.4,3.4,0,0,0,1.5,3.2,7.6,7.6,0,0,0,3.3,1.3l.3-2.8,9-3.4Zm15.7-232.8a15,15,0,0,0,4.4,4.8c3.9,3.5,6.4,7.1,7.5,10.7l-1.1,9.6c-.3,3.7-.4,7-.4,9.8s.4,4.3,1.4,4.4,2.3-3.6,2.6-7.1v-5.6c.6-7,.3-11.3-.7-13a3.5,3.5,0,0,1,.6-1.6c.4-.5.7-.7,1-.7-2-1.5-3-2.8-2.9-3.9l.6-2.3c.5-7-2.3-12-8.4-15.2a49.8,49.8,0,0,0-19.3-5.6l-10.1-.4a32,32,0,0,0,10.8,6.3,43.7,43.7,0,0,0,12.2,2.8,1.6,1.6,0,0,1-.2-1.2,4.2,4.2,0,0,1,.4-1.6c.3-.5.7-.8,1.1-.7s1.4.9,1.2,2.5-.6,2-1.5,1.9l-.7-.5A14,14,0,0,0,1719.6,303.6Zm-16.8-5.4a2.3,2.3,0,0,0-.4-1.4c-.4-.4-.7-.7-1.2-.7s-1.1.6-1.2,1.9.2,2,.9,2.1S1702.7,299.6,1702.8,298.2Zm10.8,232.5c2-.7,3.1-1.8,3.2-3.4s-.6-3.7-2.5-3.8-3.6,1-5.1,3.4-3.4,3.7-5.2,3.8l3.8.7A15.1,15.1,0,0,0,1713.6,530.7Zm-7.1-252.8a4.9,4.9,0,0,0,2.7,1.1c1.6.1,2.4-.1,2.5-.6s-.8-.9-2.4-1S1706.5,277.4,1706.5,277.9Zm7.9,174.2c-.1,1,.2,1.6.9,1.6s1.8-.4,1.8-1.4-.4-2.1-1.5-2.2S1714.5,450.7,1714.4,452.1Zm6.1,63.4a65.2,65.2,0,0,0,1.8-9.2c-3.9-.3-6.2,3.2-6.8,10.4-.2,2.9.4,4.6,1.8,5S1719.5,519.4,1720.5,515.5Zm-1.5-20.3a7.6,7.6,0,0,0,.6,3.5,6.1,6.1,0,0,1,.6,3l.5-6.4Zm3.8-11.2a1.5,1.5,0,0,0-1.1-.7c-.7-.1-1.1.6-1.2,1.9s.2,2,.9,2.1,1.7-.5,1.9-1.9A1.9,1.9,0,0,0,1722.8,484Zm-2.2-8.9a4.5,4.5,0,0,0,1.4,4.2l.3-4Zm3.9,39.1c.1-1.4-.3-2.1-1.3-2.1a.9.9,0,0,0-1,.5,2.2,2.2,0,0,0-.5,1.4q-.2,1.9,1.2,2.1C1723.9,516.1,1724.4,515.5,1724.5,514.2Zm-.7-44.1c0-.8-.3-1.2-1-1.2s-.8.8-.8,1.1.2,1.2.6,1.3S1723.7,470.9,1723.8,470.1Zm-1.7-14.2v2.8q1.8-.6,3-4.2a29.5,29.5,0,0,0,1.3-5.5v-2C1723.9,448.6,1722.4,451.6,1722.1,455.9Zm4.3-67.7c2.2,4.1,5.1,6.3,8.6,6.6a17,17,0,0,0-1.5-8.4c-1.2-2.7-2.9-4.2-5.2-4.7a4,4,0,0,0,4-2.3,10.2,10.2,0,0,0,1.8-5.3c.1-1-.4-3.2-1.4-6.3s-1.5-5.6-1.3-7.2a7.2,7.2,0,0,0-7.5,6.7,5.4,5.4,0,0,0,1.7,4.1,24.4,24.4,0,0,1-1,2.4,24,24,0,0,0-1.1,2.3A20.9,20.9,0,0,0,1726.4,388.2Zm1-88.4c0,.8-.5,1.1-1.4,1.1a6.3,6.3,0,0,1-2.1-1c.1-.8.8-1.1,2.2-1S1727.5,299.2,1727.4,299.8Zm3.7,47.1a4.2,4.2,0,0,0-2.7.6,2.5,2.5,0,0,0-1.4,2.3,5.9,5.9,0,0,0,1.1,3.5,6.5,6.5,0,0,1,1.1,3.9l2.4.2.8-10Zm2.2,88.1a58.5,58.5,0,0,0,3.9-6.6l-.3-.8a25.8,25.8,0,0,0-5.4,5.8,16.2,16.2,0,0,0-3,7.3l.2,2.8A58.9,58.9,0,0,1,1733.3,435Zm-2.7-140.2a2.9,2.9,0,0,0-.4,1.6,2.2,2.2,0,0,0,.2,1.4,1.3,1.3,0,0,0,1,.7c.9,0,1.4-.6,1.5-1.9s-.2-2.5-1.2-2.5S1730.9,294.3,1730.6,294.8Zm.4-5a2.4,2.4,0,0,1-.2-1.5,3,3,0,0,1,.5-1.5,1.1,1.1,0,0,1,1.1-.8c.9.1,1.3,1,1.2,2.6s-.7,1.9-1.6,1.9A1.3,1.3,0,0,1,1731,289.8Zm15.6,129.3c.2-1.3-1.9-5.7-6.1-13s-6.9-11-8-11.1l-.4,5.2,9.1,17.3-.5,6C1744.5,422.2,1746.5,420.7,1746.6,419.1Zm-10.8-106.2c-.1,1.4.3,2.1,1.3,2.2s1.4-.6,1.5-1.9-.3-2.5-1.2-2.6S1736,311.3,1735.8,312.9Zm3.7,121c.2-1.4-.3-2.1-1.2-2.1s-1.4.5-1.5,1.9.3,1.6,1.2,1.7A1.3,1.3,0,0,0,1739.5,433.9Z" transform="translate(-34.1 -36.3)" fill="#d2e9f9"/></g><g id="bang"><path d="M72.1,723.4q-15-43-23-67.8c-5.4-16.5-10.1-33.2-14.3-50.2-.8-2.8-.9-4.9-.3-6.1a4.6,4.6,0,0,1,3.5-2.5,5.8,5.8,0,0,1,3.7.5,6.6,6.6,0,0,0,3.7.5,8.3,8.3,0,0,1,4.7-2.8,40.1,40.1,0,0,1,7.7-.7,16.4,16.4,0,0,1,6.1-2.8,9.9,9.9,0,0,1,6.4.5q3,1.3,4.2,6,4.9,19.9,10.6,56.6c3.7,24.5,7.2,43.2,10.3,55.9l-.2,4.6c.2,1.1,1.1,5.8,2.6,14.3s2.8,14.8,3.9,18.9c.5,2.1.3,3.6-.7,4.6s-3,1.8-6.2,2.5l-2.7.7q-6,1.5-8.7-.3ZM44,608.7c.9,1.1,1.5,1.5,2,1.4,2-.5,2.7-2,2-4.7l-5.7,1.5A16.5,16.5,0,0,1,44,608.7Zm9.5,30.2c1.4,5.5,3,8.8,5,9.9a17.3,17.3,0,0,1,1.7-6c1.1-2.3,1.6-3.9,1.4-4.7-2.1.5-3.6.5-4.7,0s-1.9-1.9-2.4-4-.3-4.6.6-7.6a48.9,48.9,0,0,0,1.6-6.6l-5.8,5.6c-.3,0,.3,2.7,1.6,7.9ZM52,612.7l3.9-3a15.4,15.4,0,0,0,4.4-5.3l-8.7,2.2L51,613Zm11.5,58.9a3,3,0,0,0,2.3-2.2,10.6,10.6,0,0,0,.6-3.4l-1,.2C63.3,666.7,62.7,668.5,63.5,671.6Zm2.2-49.8,4.1-1.1-1.5-5.8C66.2,617.9,65.3,620.2,65.7,621.8Zm.5,29.3c5-1.3,6.8-4.6,5.4-10.1C68.7,641.7,66.9,645.1,66.2,651.1ZM71.5,691q-.4,1.9,1.2,9a17.6,17.6,0,0,0,4.2-6.4,14.7,14.7,0,0,0-.1-7.5C73.7,688,71.9,689.6,71.5,691Zm.9-19.7a17.9,17.9,0,0,0,.2,8q3.3-.7,4.2-4.8a19.1,19.1,0,0,0-.3-8.2C74.3,666.9,72.9,668.5,72.4,671.3Zm7.1,32.8,3.4-.8-.5-2ZM82,730c1.8,7.1,4.2,11.7,7.4,13.9A53.6,53.6,0,0,0,88,729.4c-1.3-5.8-2.5-11.3-3.8-16.5-3.8,1-5.3,3.1-4.5,6.5Zm15.7,82.8c-3.3-13-3.6-19.9-.9-20.6a85.9,85.9,0,0,1,13.6-2.3c4.1-.3,7.2.6,9.2,2.9s2.5,6.6,3.7,10,2.1,5.8,2.7,7-.1,2.1-.8,4-1.1,2.9-1,3.1a19.9,19.9,0,0,1-3.2-.4,5.9,5.9,0,0,0-2.4-.3l-6.2,2.6-5.4,2.4c-2.5.6-4.4.6-5.7-.2a7.9,7.9,0,0,1-2.8-4.7Zm-.9-18a2,2,0,0,0,.8,1.2,1.6,1.6,0,0,0,1.3.3,1.1,1.1,0,0,0,.9-.9,3.3,3.3,0,0,0,0-1.4,5.1,5.1,0,0,0-.7-1.5,1.3,1.3,0,0,0-1.2-.5C96.7,792.3,96.4,793.2,96.8,794.8Zm10,13.6a7.4,7.4,0,0,0,4.1-.2l1-.2c2.5-.7,3.7-1.8,3.8-3.5-1.8-2.3-4.7-2.9-8.7-1.9-1.2.2-1.9,1.1-2.3,2.6S105.9,808.1,106.8,808.4Z" transform="translate(-34.1 -36.3)" fill="#d2e9f9"/></g><g id="brackets"><path d="M1128.4,66.8q19.8-7.8,34.8-14.7A161.7,161.7,0,0,0,1190,36.3l3.2,1.7a53.8,53.8,0,0,1,10.6,6.9c3.1,2.6,4.1,5.1,2.9,7.5-5,2.5-14.2,7.3-27.6,14.5s-20.4,11.2-21,12.3l-.3.8c-1.9,3.7-2.4,6-1.4,6.9l6.1,40.4a34.4,34.4,0,0,1,.3,5.8,8.4,8.4,0,0,1-1.3,4c-.9,2-4,2.4-9.2,1.4s-8.9-2.1-11.2-3.3-3.4-9.8-7.1-27.9-5.8-29.8-6.2-35v-.7l.9-1-1.7-.9Zm11.9,3.5a9.3,9.3,0,0,0-5,4.3,31.6,31.6,0,0,1,3.4,1.9,14.8,14.8,0,0,0,5.7,1.9c1.8.3,3.1-.2,3.8-1.5a8.8,8.8,0,0,0,.7-3.3,3.3,3.3,0,0,0-1.6-2.9A8.2,8.2,0,0,0,1140.3,70.3Zm-4.6,11.5a11.6,11.6,0,0,0,5.1,1.5,13.2,13.2,0,0,0,5-1.8A10.1,10.1,0,0,0,1135.7,81.8Zm3.2,11.3a9.2,9.2,0,0,0,5.6,1,4.8,4.8,0,0,0,4-2.8,14.6,14.6,0,0,0,1.4-3.2,6.4,6.4,0,0,0-.3-3.2,23.4,23.4,0,0,1-4-.2,8.9,8.9,0,0,0-5.9.9l6.1,3.1A7.8,7.8,0,0,0,1138.9,93.1Zm7.1,10.6-1-.5c-1.8-.9-3.3-1.1-4.5-.5l.9,2.6Zm-1.5,16.9c.3.9.6,2.1.9,3.4s.4,2.1.6,2.2l7.6.2L1149,124a5.8,5.8,0,0,0,2-1.5,14.7,14.7,0,0,0,1.8-2.3c.1-.7-.2-3-1.1-6.7s-1.5-5.8-1.8-6c-2.3-1.2-5-1.2-8-.1-.2,1.3.7,2.5,2.8,3.6a11.7,11.7,0,0,0,2.6,1l-4.4,1.4C1143.3,114.6,1143.8,117,1144.5,120.6Zm.7-24-2.4,1.8,1.6,1.1a8.5,8.5,0,0,0,3.4,1c1.2.1,2.1-.2,2.5-1a2.8,2.8,0,0,0-.1-2,3.2,3.2,0,0,0-1.2-1.7C1147.9,95.3,1146.6,95.5,1145.2,96.6Zm9.4-30.8a9.2,9.2,0,0,0-4.5,4.2l2.7,1.4,8.4-4.9-.6-.6A6.7,6.7,0,0,0,1154.6,65.8Zm19-10.7a51.6,51.6,0,0,0-9.3,5.4c2.3,1.2,5.5,1.2,9.8,0s6.7-2.6,7.6-4.2l.8-1.6C1180,53.4,1177.1,53.5,1173.6,55.1Zm14.9-8.6-3.2,2.6c0,.2,0,.3.2.4a5.5,5.5,0,0,0,2.7.1,5,5,0,0,0,3.2-1.4l-.8-2.2Z" transform="translate(-34.1 -36.3)" fill="#d2e9f9"/><path d="M1294.4,154a2.9,2.9,0,0,1-2.1,1.7l-4.5.4q-6.9,4.3-30.6,15.3c-15.8,7.4-24.1,10.8-25.1,10.3s-5.4-3.6-9.3-7.2-5.3-6.3-4.3-8.3a11.1,11.1,0,0,1,2.5-3.4,50.9,50.9,0,0,1,4.9-3.1l36.3-18.8c1.3.3,2.8-1.1,4.3-4.2l.6-1.2c.6-1.1.8-2.9.7-5.4-.4-4.3-1.3-11.2-2.8-20.9l-2.7-20.8a25.1,25.1,0,0,1-2.2-4.9,4.6,4.6,0,0,1,.6-3.5c1.2-2.4,3.8-3.1,7.7-2.1a57.8,57.8,0,0,1,11.9,4.5l3.2,1.6a153.3,153.3,0,0,0,3,31c2,10.8,4.8,23.1,8.4,36.8Zm-44.8,10.5c2.1,1.1,3.6,1.1,4.5.2a9.8,9.8,0,0,0-4.8-6.4c-.3-.2-2.3.5-5.8,2s-5.7,2.6-6.1,3.1a8.5,8.5,0,0,0-.8,2.8,5.4,5.4,0,0,0-.1,2.5l-4.7-2.4,4.7,6.1c.2.1.9-.2,2.1-.8a20.3,20.3,0,0,1,3.3-1.3,61.3,61.3,0,0,1,6.8-2.9l-1.5-4.4A10,10,0,0,0,1249.6,164.5Zm6.1-4.8-1-.5,1.4,4.7,2.6-.8C1258.5,161.8,1257.5,160.7,1255.7,159.7Zm1.5-7.5a2.2,2.2,0,0,0-1.6,1.1,2.2,2.2,0,0,0,.7,2.6,9,9,0,0,0,2.7,2.2l1.9.6a12.7,12.7,0,0,1,0-3c.1-1.8-.5-3-1.6-3.6A3.1,3.1,0,0,0,1257.2,152.2Zm13.2-3.8a20.3,20.3,0,0,1-2.6-3.2,5.4,5.4,0,0,0-2.7,1.6,26.4,26.4,0,0,0-1.9,3.1,5,5,0,0,0,.1,4.9,9.6,9.6,0,0,0,4.1,3.9,7.7,7.7,0,0,0-.5-8.1l6.2,3.1A10,10,0,0,0,1270.4,148.4Zm2.8-37.3c1.5,4.2,3.5,6.8,5.8,8a50.5,50.5,0,0,0-1.1-10.7c-.8-3.8-2.4-6.3-4.9-7.5l-.8,1.7C1271.3,104.2,1271.7,107,1273.2,111.1Zm-.4-19.5,1,1.7a4.3,4.3,0,0,0,1.7,2.1.2.2,0,0,0,.4-.1,14.7,14.7,0,0,0-.7-6.1l-2.2.7A12,12,0,0,0,1272.8,91.6Zm1.5,59.8a10.9,10.9,0,0,0,4.2,3.3,10.3,10.3,0,0,0-5.7-8.4A11.9,11.9,0,0,0,1274.3,151.4Zm3.1-12.2a7.4,7.4,0,0,0-2.2,2.5c-.9,1.6-.4,3.1,1.2,4.3a26.6,26.6,0,0,0,4.9,3.1l3.2,1.7a9.2,9.2,0,0,0,.6-6.6,8.2,8.2,0,0,0-4.4-5.4A3.5,3.5,0,0,0,1277.4,139.2Zm-1.5-14.1,1,9.6,2.7,1.4a9.2,9.2,0,0,0,.8-6.1,6.9,6.9,0,0,0-3.6-4.8Z" transform="translate(-34.1 -36.3)" fill="#d2e9f9"/></g></g></svg>