<svg id="Layer_1" data-name="Layer 1" xmlns="http://www.w3.org/2000/svg" viewBox="0 0 144.3 233.4"><title>pen-cup</title><g id="pencil_cup" data-name="pencil cup"><g id="pencil-3"><rect x="103.9" y="31.7" width="11.3" height="100.24" fill="#fdb515"/><path d="M671.8,337.8a.5.5,0,0,0-.5-.4H661.2c-.4,0-.7.2-.7.5v6.4h11.3Z" transform="translate(-556.6 -318)" fill="#dea1c8" fill-rule="evenodd"/><rect x="103.5" y="25.2" width="12.1" height="7.68" fill="#dbdada"/></g><g id="pencil-2"><rect x="52.8" y="12.3" width="11.3" height="100.24" fill="#fdb515"/><path d="M620.7,318.4c0-.2-.3-.4-.5-.4H610a.6.6,0,0,0-.6.5v6.4h11.3Z" transform="translate(-556.6 -318)" fill="#dea1c8" fill-rule="evenodd"/><rect x="52.4" y="5.8" width="12.1" height="7.68" fill="#dbdada"/></g><g id="pencil-1"><polygon points="3.3 56.7 14.3 54.3 42.6 151.5 31.6 153.9 3.3 56.7" fill="#fdb515" fill-rule="evenodd"/><path d="M567.5,360.8c0-.2-.3-.4-.6-.3l-9.8,2.1c-.3.1-.6.3-.5.7l1.8,6.1,11-2.3Z" transform="translate(-556.6 -318)" fill="#dea1c8" fill-rule="evenodd"/><polygon points="1.1 50.4 12.8 47.9 15 55.4 3.3 57.9 1.1 50.4" fill="#dbdada" fill-rule="evenodd"/></g><g id="pencil-4"><rect x="632.7" y="410.3" width="100.2" height="11.33" transform="translate(-419.3 682.6) rotate(-78.3)" fill="#fdb515"/><path d="M700.9,356.4c.1-.2-.1-.4-.4-.5l-9.9-2c-.4-.1-.7,0-.8.4l-1.3,6.2,11.1,2.3Z" transform="translate(-556.6 -318)" fill="#dea1c8" fill-rule="evenodd"/><rect x="689.7" y="358.3" width="7.7" height="12.06" transform="translate(-360.1 651.8) rotate(-78.3)" fill="#dbdada"/></g><path id="cup" d="M680.9,551.4H576.1L565.5,411.3H691.2Z" transform="translate(-556.6 -318)" fill="#957e5e"/></g></svg>